<?xml version="1.0" encoding="UTF-8"?>
<svg width="18.514mm" height="9.2568mm" version="1.1" viewBox="0 0 18.514 9.2568" xmlns="http://www.w3.org/2000/svg">
 <g transform="translate(-51.972 -68.243)">
  <rect x="52.246" y="68.517" width="17.966" height="8.7087" rx=".61949" ry=".48381" fill="#fff" stroke="#181c57" stroke-linecap="round" stroke-linejoin="round" stroke-width=".54809"/>
  <path transform="matrix(.26458 0 0 .26458 51.972 68.243)" d="m11.727 3.332v0.61328h-1.1719v0.48438h2.2285c-0.43917 0.50547-1.3084 0.89762-2.6094 1.1738l0.14062 0.49609c0.52204-0.116 0.99227-0.255 1.4121-0.41797v1.2715h0.56836v-1.4961c0.45022 0.28726 0.87603 0.57717 1.2793 0.86719l0.32812-0.41992c-0.26792-0.18782-0.6413-0.44017-1.1191-0.75781 0.32594-0.22097 0.57828-0.45992 0.75781-0.7168v-0.48438h-1.2461v-0.61328h-0.56836zm25.361 0.054688-0.58398 0.078125c0.082873 0.48889 0.17401 0.95455 0.27344 1.3965-0.49165 0.29002-0.73828 0.61358-0.73828 0.97266 0 0.31488 0.12446 0.56037 0.37305 0.73438 0.24859 0.17401 0.60089 0.25977 1.0566 0.25977 0.46956 0 0.94632-0.041334 1.4297-0.12695l-0.076172-0.52734c-0.49166 0.085619-0.92513 0.12891-1.3008 0.12891-0.58556 0-0.87695-0.16006-0.87695-0.48047 0-0.4005 0.74594-0.80067 2.2402-1.2012l-0.13672-0.50977c-0.58281 0.15744-1.0607 0.31636-1.4336 0.47656-0.074583-0.33974-0.14923-0.7399-0.22656-1.2012zm-4.5996 0.027344c-0.096675 0.65462-0.39574 1.2424-0.89844 1.7617l0.37305 0.33203c0.37841-0.37012 0.65182-0.74578 0.82031-1.127h1.3242c-0.071814 0.61319-0.28317 1.0757-0.63672 1.3906-0.35355 0.31212-0.89466 0.50974-1.6211 0.58984l0.10352 0.49219c0.87835-0.10772 1.5317-0.35664 1.957-0.74609 0.42536-0.38946 0.68114-0.96422 0.76953-1.7266v-0.48047h-1.7324c0.033083-0.11325 0.060676-0.26531 0.080078-0.45312l-0.53906-0.033203zm9.7773 0.013672c-0.01663 0.21545-0.02766 0.46436-0.033203 0.74609-0.37289 0.024945-0.73744 0.037109-1.0938 0.037109v0.49609c0.36184-0.0026708 0.72639-0.016071 1.0938-0.041016 0.005543 0.17676 0.0109 0.31118 0.013672 0.40234 0.002771 0.074583 0.006175 0.18793 0.011718 0.33984-0.1022-0.027616-0.20674-0.041016-0.31445-0.041016-0.2845 0-0.51006 0.068927-0.67578 0.20703-0.16297 0.1381-0.24414 0.32038-0.24414 0.54688 0 0.23478 0.082327 0.42049 0.24805 0.55859 0.16572 0.13533 0.39014 0.20312 0.67188 0.20312 0.22648 0 0.40991-0.047851 0.55078-0.14453 0.14362-0.09668 0.23705-0.23992 0.28125-0.42773 0.13257 0.11876 0.26928 0.24975 0.41016 0.39062l0.36523-0.33594c-0.3066-0.30936-0.55666-0.53607-0.75-0.67969-0.005543-0.26516-0.010081-0.46507-0.015625-0.59766 0-0.038677-0.003087-0.088822-0.005859-0.15234-0.002772-0.063521-0.005041-0.12021-0.007813-0.16992v-0.14062c0.26793-0.024869 0.52566-0.054757 0.77148-0.087891l-0.033203-0.49609c-0.24032 0.033058-0.48694 0.060993-0.73828 0.085938 0.002772-0.19887 0.013802-0.43015 0.033204-0.69531l-0.53906-0.0039062zm-22.68 0.048828v3.418h0.57617v-1.7188c0.57176 0.16019 1.1374 0.36239 1.6953 0.60547l0.19336-0.48047c-0.59938-0.26793-1.2285-0.49005-1.8887-0.66406v-1.1602h-0.57617zm20.629 0.0097656c-0.14088 0.54137-0.21094 1.1073-0.21094 1.7012 0 0.59109 0.070062 1.1578 0.21094 1.6992l0.54297-0.0625c-0.14362-0.52204-0.21484-1.0689-0.21484-1.6406 0.002746-0.57176 0.073968-1.1174 0.21484-1.6367l-0.54297-0.060547zm5.7637 0.085938c-0.38946 0-0.77966 0.053233-1.1719 0.1582l0.10742 0.48047c0.36184-0.10497 0.68964-0.1582 0.98242-0.1582 0.41432 0 0.62109 0.10992 0.62109 0.32812 0 0.066293-0.022211 0.12984-0.066406 0.19336-0.044195 0.060775-0.088617 0.11058-0.13281 0.14648-0.041423 0.033159-0.10922 0.08101-0.20312 0.14453-0.077354 0.049713-0.13631 0.088753-0.17773 0.11914-0.041424 0.027641-0.095816 0.073198-0.16211 0.13672-0.063547 0.060775-0.1114 0.12055-0.14453 0.17578-0.033159 0.052485-0.064181 0.12141-0.091797 0.20703-0.027615 0.082872-0.041015 0.16976-0.041015 0.26367h0.56836c0.002671-0.085619 0.016071-0.16027 0.041016-0.22656 0.027616-0.066293 0.06895-0.1295 0.12695-0.1875 0.06075-0.058003 0.11171-0.10243 0.15039-0.13281 0.041423-0.030387 0.10692-0.071722 0.19531-0.12695 0.093909-0.060775 0.16397-0.11058 0.21094-0.14648 0.049713-0.035906 0.1064-0.084916 0.16992-0.14844 0.063546-0.066293 0.1091-0.13865 0.13672-0.21875 0.030388-0.080101 0.044922-0.17124 0.044922-0.27344 0-0.21822-0.10224-0.39592-0.30664-0.53125-0.2044-0.13533-0.49006-0.20312-0.85742-0.20312zm-41.42 0.041016-0.74023 0.42773v0.54297l0.73242-0.38672 0.0078126 0.0058594v2.5098h0.59375v-3.0996h-0.59375zm18.645 0.033203v1.4551h0.55078v-0.97852h1.998v0.25781c0 0.61043-0.1532 1.073-0.45703 1.3906-0.30107 0.31763-0.76363 0.49991-1.3906 0.54688l0.074219 0.49414c0.76787-0.049718 1.3492-0.27871 1.7441-0.6875 0.39498-0.41156 0.5918-0.99285 0.5918-1.7441v-0.73438h-3.1113zm-6.9844 0.57617-0.45312 0.11719c0.09668 0.3425 0.1932 0.70052 0.28711 1.0762l0.45117-0.11523c-0.082872-0.34803-0.17744-0.708-0.28516-1.0781zm0.95312 0.095703c-0.058006 0.6629-0.21807 1.1496-0.48047 1.459-0.2624 0.30935-0.6913 0.51842-1.2852 0.62891l0.10742 0.42773c0.71539-0.12706 1.2354-0.37597 1.5586-0.74609 0.32317-0.37012 0.51998-0.95027 0.5918-1.7402l-0.49219-0.029297zm-1.8203 0.085938-0.44336 0.11719c0.071811 0.2403 0.1672 0.58493 0.2832 1.0352l0.44336-0.10742c-0.088391-0.36183-0.18378-0.71071-0.2832-1.0449zm11.957 0.49805v0.56836h3.373v-0.56836h-3.373zm14.605 0.94922c0.12707 0.0027465 0.24385 0.029546 0.35156 0.082031v0.070312c0 0.14088-0.0268 0.24312-0.082031 0.30664-0.055232 0.060775-0.14524 0.091797-0.26953 0.091797-0.11601 0-0.20601-0.023346-0.26953-0.070313-0.060775-0.049738-0.091797-0.1198-0.091797-0.21094 0-0.082847 0.031022-0.14835 0.091797-0.19531 0.06075-0.049713 0.15075-0.074219 0.26953-0.074219zm-35.594 0.052734v0.80859h0.80273v-0.80859h-0.80273zm39.148 0.2168v0.5918h0.625v-0.5918h-0.625zm-45.451 1.666v1.1211h68.967v-1.1211h-68.967zm0 1.8418v0.40039h68.967v-0.40039h-68.967zm30.609 1.3809v0.31055h-0.98047v0.62891c0 0.35151-0.01916 0.62815-0.054687 0.83008-0.033638 0.20007-0.089519 0.37387-0.16992 0.52344l0.25977 0.3125c0.21689-0.33842 0.32617-0.8059 0.32617-1.4023v-0.57617h1.9824v-0.31641h-0.97852v-0.31055h-0.38477zm2.0391 0.078125-0.21094 0.25c0.16454 0.12341 0.32105 0.25008 0.46875 0.38281l0.21094-0.25781c-0.15144-0.13647-0.30794-0.26093-0.46875-0.375zm-27.953 0.005859v0.41406h-0.79297v0.32813h1.5078c-0.29729 0.34217-0.88694 0.60796-1.7676 0.79492l0.095703 0.33594c0.35338-0.078539 0.67283-0.17289 0.95703-0.2832v0.86133h0.38477v-1.0137c0.30476 0.19444 0.59225 0.39156 0.86523 0.58789l0.22266-0.2832c-0.18136-0.12713-0.43435-0.29864-0.75781-0.51367 0.22064-0.14958 0.39215-0.31244 0.51367-0.48633v-0.32813h-0.84375v-0.41406h-0.38477zm17.166 0.037109-0.39453 0.052735c0.056088 0.33094 0.11825 0.64616 0.18555 0.94531-0.33281 0.19631-0.5 0.41513-0.5 0.6582 0 0.21315 0.083688 0.3783 0.25195 0.49609 0.16828 0.1178 0.40634 0.17774 0.71484 0.17774 0.31785 0 0.64155-0.029938 0.96875-0.087891l-0.050781-0.35547c-0.33281 0.057953-0.62658 0.085938-0.88086 0.085938-0.39638 0-0.59375-0.10732-0.59375-0.32422 0-0.27111 0.50606-0.54334 1.5176-0.81445l-0.09375-0.34375c-0.39451 0.10658-0.71829 0.21382-0.9707 0.32226-0.050469-0.22998-0.10194-0.50026-0.1543-0.8125zm-3.1133 0.019532c-0.065441 0.44312-0.26713 0.8399-0.60742 1.1914l0.25195 0.22461c0.25614-0.25054 0.44062-0.50565 0.55469-0.76367h0.89844c-0.04862 0.41509-0.19232 0.73022-0.43164 0.94336-0.23932 0.21128-0.60592 0.34421-1.0977 0.39844l0.070313 0.33203c0.59457-0.072919 1.0363-0.24028 1.3242-0.50391 0.28793-0.26363 0.46164-0.65388 0.52148-1.1699v-0.32617h-1.1719c0.022425-0.076648 0.039632-0.17754 0.052734-0.30469l-0.36523-0.021484zm14.512 0.001953v0.54883c0 0.49922-0.023573 0.85937-0.070313 1.0781-0.044875 0.21876-0.13076 0.41401-0.25976 0.58789l0.27148 0.26367c0.1346-0.17201 0.23322-0.36285 0.29492-0.57226 0.063546-0.20941 0.10213-0.50106 0.11523-0.875 0.13836 0.21501 0.2606 0.43587 0.36719 0.66211l0.2207-0.11523v0.48633c0 0.15894 0.019248 0.25762 0.056641 0.29688 0.037392 0.039257 0.12955 0.058594 0.27539 0.058594 0.13274-0.002016 0.22075-0.010525 0.26562-0.025391 0.07481-0.02429 0.12406-0.08873 0.14648-0.19531 0.0225-0.10658 0.035472-0.38957 0.041015-0.84766l-0.29492-0.039062c-0.005543 0.45061-0.014241 0.69935-0.027343 0.74609-0.009475 0.022425-0.026593 0.033203-0.050782 0.033203-0.024264 0-0.037236-0.004349-0.041015-0.013672-0.00378-0.009348-0.00586-0.041568-0.00586-0.097657v-1.9805h-1.3047zm-7.8926 0.005859c-0.011087 0.14583-0.017705 0.31319-0.021485 0.50391-0.25242 0.016882-0.49905 0.025391-0.74023 0.025391v0.33594c0.24494-0.001764 0.49157-0.010462 0.74023-0.027344 0.003674 0.11966 0.005943 0.20978 0.007813 0.27148 0.001764 0.050495 0.004033 0.12764 0.007812 0.23047-0.06919-0.018646-0.13997-0.027344-0.21289-0.027344-0.19259 0-0.34486 0.047145-0.45703 0.14062-0.11031 0.09348-0.16406 0.21582-0.16406 0.36914 0 0.15893 0.055792 0.28543 0.16797 0.37891 0.11218 0.091616 0.26241 0.13672 0.45312 0.13672 0.15332 0 0.2777-0.03222 0.37305-0.097656 0.097235-0.065437 0.1615-0.16192 0.19141-0.28906 0.089751 0.080403 0.182 0.16833 0.27734 0.26367l0.24609-0.22656c-0.20755-0.2094-0.37499-0.3637-0.50586-0.46094-0.00378-0.17949-0.007939-0.31259-0.011719-0.40234 0-0.026179-0.002037-0.060504-0.003906-0.10352-0.00191-0.042986-0.00399-0.081572-0.00586-0.11524v-0.095703c0.18137-0.016831 0.35704-0.036169 0.52344-0.058594l-0.023438-0.33789c-0.16266 0.022374-0.32789 0.043665-0.49805 0.060546 0.001763-0.13461 0.008382-0.29315 0.021484-0.47266l-0.36523-0.001953zm14.359 0c-0.011087 0.14583-0.017705 0.31319-0.021485 0.50391-0.25242 0.016882-0.49905 0.025391-0.74023 0.025391v0.33594c0.24494-0.001764 0.49157-0.010462 0.74023-0.027344 0.003674 0.11966 0.005943 0.20978 0.007813 0.27148 0.001764 0.050495 0.005986 0.12764 0.009765 0.23047-0.069165-0.018646-0.14192-0.027344-0.21484-0.027344-0.19259 0-0.34486 0.047145-0.45703 0.14062-0.11031 0.09348-0.16406 0.21582-0.16406 0.36914 0 0.15893 0.055792 0.28543 0.16797 0.37891 0.11218 0.091616 0.26241 0.13672 0.45312 0.13672 0.15332 0 0.2777-0.03222 0.37305-0.097656 0.097234-0.065437 0.1615-0.16192 0.19141-0.28906 0.089726 0.080403 0.18197 0.16833 0.27734 0.26367l0.24805-0.22656c-0.20755-0.2094-0.37694-0.3637-0.50781-0.46094-0.00378-0.17949-0.007939-0.31259-0.011719-0.40234 0-0.026179-0.002037-0.060504-0.003906-0.10352-0.00191-0.042986-0.00399-0.081572-0.005859-0.11524v-0.095703c0.18137-0.016831 0.35704-0.036169 0.52344-0.058594l-0.023437-0.33789c-0.16266 0.022374-0.32789 0.043665-0.49805 0.060546 0.001763-0.13461 0.008382-0.29315 0.021484-0.47266l-0.36523-0.001953zm-29.711 0.033203v2.3145h0.39062v-1.1641c0.38703 0.10844 0.7688 0.24367 1.1465 0.4082l0.13086-0.32422c-0.40573-0.18136-0.83048-0.33142-1.2773-0.44922v-0.78516h-0.39062zm13.965 0.00586c-0.095345 0.36646-0.14453 0.75035-0.14453 1.1523 0 0.40012 0.049186 0.78392 0.14453 1.1504l0.36719-0.042969c-0.097234-0.35338-0.14648-0.72234-0.14648-1.1094 0.00189-0.38703 0.051139-0.75591 0.14648-1.1074l-0.36719-0.042968zm14.359 0c-0.095345 0.36646-0.14453 0.75035-0.14453 1.1523 0 0.40012 0.049186 0.78392 0.14453 1.1504l0.36719-0.042969c-0.097234-0.35338-0.14648-0.72234-0.14648-1.1094 0.00189-0.38703 0.051139-0.75591 0.14648-1.1074l-0.36719-0.042968zm-0.80078 0.097656c-0.81146 0.10283-1.5728 0.1543-2.2852 0.1543v0.35938c0.35712 0 0.76025-0.027896 1.209-0.083985v0.00586c-0.16453 0.095345-0.29111 0.21336-0.38086 0.35547-0.089751 0.14022-0.13476 0.29241-0.13476 0.45508 0 0.27484 0.10945 0.4979 0.33008 0.66992 0.22063 0.17207 0.5272 0.26651 0.91797 0.28516l0.039062-0.35156c-0.28606-0.018696-0.50683-0.087194-0.66016-0.20312-0.15332-0.11778-0.22852-0.27013-0.22852-0.45898 0-0.20566 0.103-0.38565 0.31055-0.53711 0.20941-0.15332 0.51394-0.25623 0.91406-0.30859l-0.03125-0.3418zm-25.074 0.011719v0.98438h0.37305v-0.66211h1.3516v0.17383c0 0.4132-0.10291 0.72833-0.30859 0.94336-0.2038 0.21503-0.51893 0.33737-0.94336 0.36914l0.050781 0.33398c0.51978-0.033656 0.91427-0.18812 1.1816-0.46484 0.26737-0.27859 0.40039-0.67308 0.40039-1.1816v-0.49609h-2.1055zm21.15 0.17383h0.58398v0.98633c-0.12154-0.23557-0.25245-0.45447-0.39453-0.66016l-0.18945 0.11328v-0.125-0.31445zm-25.879 0.2168-0.30664 0.078125c0.065436 0.23185 0.12979 0.47423 0.19336 0.72852l0.30664-0.078125c-0.056088-0.2356-0.12044-0.47798-0.19336-0.72852zm24.789 0.009765-0.20703 0.25c0.18698 0.14023 0.35866 0.28394 0.51758 0.43164l0.21094-0.25781c-0.15332-0.14211-0.32704-0.28361-0.52148-0.42383zm-1.832 0.017578c-0.16641 0.53848-0.35081 1.0338-0.55274 1.4844-0.11031 0.007454-0.19187 0.011803-0.24609 0.013672l0.019532 0.31641c0.55344-0.02245 1.1131-0.080259 1.6777-0.17187 0.059817 0.1178 0.10273 0.20563 0.12891 0.26172l0.32812-0.1543c-0.1664-0.3459-0.35928-0.70834-0.57617-1.0879l-0.32422 0.1543c0.11407 0.2038 0.21274 0.38388 0.29688 0.53906-0.27672 0.037392-0.57472 0.069612-0.89258 0.097656 0.20006-0.45434 0.3736-0.91106 0.51758-1.3691l-0.37695-0.083985zm-22.313 0.03711c-0.039282 0.44873-0.14856 0.77692-0.32617 0.98633-0.17763 0.20941-0.46715 0.351-0.86914 0.42578l0.072266 0.28906c0.48426-0.08602 0.83593-0.25337 1.0547-0.50391 0.21876-0.25054 0.35374-0.64299 0.40234-1.1777l-0.33398-0.019531zm-1.2324 0.058593-0.29883 0.078126c0.048605 0.16266 0.11091 0.3964 0.18945 0.70117l0.30078-0.072265c-0.059842-0.24493-0.12411-0.48079-0.19141-0.70703zm30.467 0.097657-0.30078 0.15234c0.080403 0.14398 0.164 0.29844 0.25 0.46484l0.30274-0.14258c-0.09721-0.1907-0.1809-0.34933-0.25195-0.47461zm-0.45703 0.10156-0.29688 0.14844c0.087887 0.1533 0.16936 0.30557 0.24414 0.45703l0.29688-0.14258c-0.074784-0.1477-0.15625-0.30208-0.24414-0.46289zm-21.914 0.13672v0.38477h2.2812v-0.38477h-2.2812zm17.547 0.38477c-0.10656 0.33094-0.23958 0.62259-0.40039 0.875l0.28906 0.18945c0.17389-0.26737 0.31123-0.57199 0.41406-0.91602l-0.30273-0.14844zm-5.9082 0.19531-0.2832 0.24219c0.18885 0.2038 0.36689 0.40973 0.53516 0.61914l0.29688-0.21875c-0.19072-0.23558-0.37308-0.45-0.54883-0.64258zm-1.7539 0.0625c0.085997 0.001865 0.16536 0.021113 0.23828 0.056641v0.046875c0 0.095345-0.017296 0.16402-0.054688 0.20703-0.037392 0.041121-0.099461 0.0625-0.18359 0.0625-0.078513 0-0.13863-0.017055-0.18164-0.048828-0.041147-0.033638-0.0625-0.080871-0.0625-0.14258 0-0.056114 0.021353-0.099086 0.0625-0.13086 0.041121-0.033663 0.10124-0.050781 0.18164-0.050781zm14.359 0c0.085997 0.001865 0.16536 0.021113 0.23828 0.056641v0.046875c0 0.095345-0.017296 0.16402-0.054688 0.20703-0.037392 0.041121-0.099461 0.0625-0.18359 0.0625-0.078513 0-0.13863-0.017055-0.18164-0.048828-0.041122-0.033638-0.0625-0.080871-0.0625-0.14258 0-0.056114 0.021378-0.099086 0.0625-0.13086 0.041121-0.033663 0.10124-0.050781 0.18164-0.050781zm23.643 0.78125v1.0742h-3.0312v1.875h-2.5996v0.44336h-2.3281v-1.9023h-4.2383v4.2383h4.2383v-1.3398h2.3281v6.1406h-2.5938v5.8906h5.8906v-5.8906h-2.3008v-6.5762h2.6074v-1.8809h2.0273v1.2012h1.4512v3.9277h-0.58008v2.1582h2.1582v-2.1582h-0.58203v-3.9277h0.82812v-3.2734h-3.2754zm-40.699 1.0781c-0.011339 0.048605-0.028546 0.12365-0.052735 0.22461h-0.50391v0.97656c-0.04669-0.17575-0.076868-0.29367-0.09375-0.35352l-0.17188 0.046875c0.050495-0.082255 0.13196-0.23028 0.24414-0.44531l-0.27734-0.12109c-0.09348 0.1851-0.18573 0.35449-0.27734 0.50781-0.005543-0.009474-0.018274-0.026593-0.035156-0.050782-0.014866-0.026154-0.025833-0.045491-0.035156-0.058593 0.097209-0.17949 0.18954-0.3789 0.2793-0.59766l-0.29102-0.10156c-0.067326 0.18323-0.12522 0.32473-0.17383 0.42383-0.011339-0.016831-0.028546-0.040492-0.052735-0.072266-0.0224-0.031848-0.035282-0.051097-0.039062-0.05664l-0.1543 0.33984c0.21689 0.30473 0.32626 0.45911 0.32812 0.46289-0.007559 0.011112-0.018337 0.028167-0.033203 0.048828-0.013102 0.020586-0.023691 0.035599-0.03125 0.044922l-0.24805 0.013672 0.011719 0.32422 0.35156-0.025391v1.0801h0.35352v-1.1016l0.15625-0.011719c0.012997 0.052334 0.019615 0.084554 0.021484 0.097656l0.074219-0.015625v0.052735l-0.20508 0.027343c0.024214 0.20754 0.039316 0.3855 0.046875 0.5332l0.17383-0.017578c-0.052359 0.052359-0.11239 0.10374-0.17969 0.15234l0.22461 0.22656c0.13463-0.10844 0.25679-0.23926 0.36523-0.39258 0.10845-0.1552 0.18355-0.30746 0.22656-0.45703l-0.11914-0.20703h-0.37305c-0.001763-0.009348-0.008066-0.028685-0.015625-0.058594-0.005543-0.031874-0.009892-0.055446-0.013671-0.070312h0.30078 0.25v0.78711c0 0.06531-0.004349 0.1039-0.013672 0.11524-0.007484 0.011338-0.037333 0.017578-0.085938 0.017578-0.037392 0-0.10385-0.004349-0.19922-0.013672l0.017578 0.30469c0.12525 0.009323 0.20885 0.013672 0.25 0.013672 0.063571 0 0.11291-8.3e-5 0.14844-0.001953 0.035503-0.002016 0.069764-0.010524 0.10156-0.025391 0.033638-0.013026 0.05721-0.02804 0.070312-0.044921 0.012851-0.014967 0.023818-0.042775 0.035157-0.082032 0.011232-0.039256 0.017661-0.080036 0.019531-0.12305 0.001869-0.042985 0.003906-0.1031 0.003906-0.18164v-0.18555c0.13835 0.25616 0.30138 0.46413 0.49023 0.62305l0.19727-0.29102c-0.10469-0.082268-0.20974-0.18731-0.31445-0.31445 0.10658-0.11404 0.20307-0.23833 0.28906-0.37109l-0.23047-0.18945c-0.080404 0.11593-0.16178 0.21893-0.24219 0.31055-0.071055-0.11404-0.12904-0.22986-0.17578-0.34766h0.53906v-1.1445h-0.5957c0.009247-0.031773 0.024261-0.098254 0.044922-0.19922l-0.38086-0.025391zm8.4883 0.017578c-0.085997 0.20942-0.20182 0.40679-0.34766 0.59375v-0.49609h-1.0625v1.0156h0.34766 0.09375v1.0371c-0.011339 0.003779-0.030499 0.010019-0.054688 0.017578-0.024188 0.005543-0.041395 0.009892-0.052734 0.013672v-0.9375h-0.30078v1.0137c-0.013077 0.001764-0.032503 0.006113-0.060547 0.013672-0.026154 0.007453-0.045491 0.011802-0.058594 0.013672l0.046875 0.30469c0.35151-0.078539 0.72463-0.18154 1.1191-0.31055l-0.033203-0.31055c-0.033663 0.011137-0.083002 0.026214-0.14844 0.046875-0.063622 0.020636-0.1044 0.033519-0.12305 0.039063v-0.36524h0.25781v-0.054687c0.016932-0.005543 0.036358-0.014115 0.060547-0.023438 0.026204-0.011086 0.045364-0.017704 0.054687-0.021484v0.98633h0.35547v-0.13086h0.53516v0.13086h0.36719v-0.97266c0.065335 0.024214 0.10824 0.039316 0.12891 0.046875l0.056641-0.32812c-0.22249-0.078514-0.40485-0.16644-0.54883-0.26367 0.15892-0.1421 0.3005-0.31793 0.42578-0.52734v-0.29297h-0.78906c0.033739-0.072919 0.059353-0.13505 0.074219-0.18555l-0.34375-0.052735zm2.2734 0.025391c-0.05236 0.17202-0.09305 0.29436-0.12109 0.36914-0.13462 0.00378-0.34267 0.00586-0.625 0.00586v0.31445c0.22062 0 0.38365-0.002037 0.49023-0.003906-0.11405 0.23932-0.2792 0.50952-0.49609 0.81055l0.29492 0.17773c0.12901-0.17762 0.25567-0.31268 0.38281-0.4043 0.12714-0.09348 0.23642-0.14062 0.32617-0.14062 0.10096 0 0.17378 0.04291 0.2168 0.12891-0.23933 0.10096-0.42373 0.21661-0.55274 0.34375-0.12714 0.12714-0.19141 0.25372-0.19141 0.38086 0 0.32533 0.30241 0.48828 0.9082 0.48828 0.24681 0 0.49115-0.019248 0.73047-0.056641l-0.03125-0.32812c-0.28606 0.044876-0.51972 0.066407-0.69922 0.066407-0.18698 0-0.31779-0.015102-0.39258-0.046875-0.074784-0.033663-0.11133-0.085043-0.11133-0.15234 0-0.052359 0.034413-0.11026 0.10547-0.17383 0.071056-0.065436 0.17186-0.12775 0.30274-0.18945 0.005543 0.082267 0.009765 0.18094 0.009765 0.29688h0.37305c0-0.15893-0.008571-0.30263-0.023437-0.43164 0.1907-0.059843 0.39434-0.1069 0.60938-0.13867l-0.039063-0.31836c-0.22436 0.031773-0.44089 0.076876-0.64844 0.13672-0.042986-0.10469-0.1031-0.17973-0.18164-0.22461-0.076649-0.044875-0.17517-0.066406-0.29297-0.066406-0.10845-0.00189-0.21577 0.026095-0.32422 0.085937l-0.003907-0.001953c0.056089-0.10283 0.09891-0.18652 0.12695-0.25195 0.38703-0.011212 0.77312-0.032591 1.1602-0.0625l-0.009766-0.31641c-0.42256 0.031823-0.76338 0.051224-1.0195 0.060547 0.022425-0.059843 0.056687-0.15437 0.10156-0.28711l-0.375-0.070312zm-14.484 0.009766c-0.024314 0.20566-0.054404 0.40718-0.091796 0.60352-0.12152 0.009348-0.29524 0.02445-0.52148 0.046875l0.021485 0.32617c0.059842-0.005543 0.13903-0.012162 0.23438-0.021484 0.097234-0.009323 0.15954-0.017705 0.18945-0.021485-0.11407 0.45621-0.28346 0.91709-0.50781 1.3789l0.31836 0.13281c0.25241-0.52539 0.43689-1.0359 0.55469-1.5352 0.09537-0.005544 0.16624-0.009766 0.21484-0.009766 0.10656 0 0.17304 0.015013 0.19922 0.044922 0.028044 0.028044 0.042968 0.10519 0.042968 0.23047 0 0.15332-0.008571 0.2905-0.023437 0.41016-0.014967 0.11966-0.036409 0.21401-0.064453 0.2832-0.02618 0.069165-0.054076 0.12072-0.083985 0.15625-0.029908 0.035528-0.059998 0.052734-0.091796 0.052734-0.056089 0-0.16113-0.049426-0.31445-0.15039l-0.14844 0.30469c0.20192 0.13274 0.37123 0.19922 0.50586 0.19922 0.16453 0 0.30399-0.10081 0.41992-0.30273 0.11593-0.2038 0.17383-0.49545 0.17383-0.875 0-0.11031-0.00208-0.19832-0.005859-0.26562-0.00378-0.067301-0.014558-0.12937-0.033203-0.18359-0.016832-0.056088-0.036169-0.096867-0.058594-0.12305-0.022425-0.02623-0.058881-0.04776-0.10938-0.066406-0.04863-0.018646-0.1022-0.029424-0.16016-0.033203-0.057953-0.005544-0.13723-0.009766-0.23633-0.009766-0.022426 0-0.073894 0.00208-0.1543 0.005859 0.030034-0.15332 0.057842-0.3356 0.082031-0.54687l-0.35156-0.03125zm6.5293 0.017578-0.35352 0.10156c0.069165 0.23373 0.1119 0.37531 0.125 0.42578-0.11219 0.033663-0.25361 0.078766-0.42188 0.13672l-0.17383-0.54102-0.35352 0.10352c0.050494 0.14958 0.11043 0.33398 0.17773 0.55273-0.050494 0.014967-0.11908 0.03641-0.20508 0.064454-0.084157 0.02623-0.15698 0.049713-0.2168 0.068359-0.057978 0.01862-0.098668 0.031503-0.12109 0.039063l0.11328 0.34375c0.029916-0.011213 0.20584-0.069199 0.5293-0.17578 0.13276 0.44499 0.26138 0.90612 0.38476 1.3848l0.36524-0.091797c-0.1178-0.44686-0.25073-0.91647-0.39844-1.4082l0.064453-0.023438c0.12339-0.042985 0.23921-0.079618 0.34766-0.11328 0.043061 0.16081 0.073151 0.27873 0.091797 0.35352l0.3418-0.089844c-0.005593-0.037392-0.033578-0.15532-0.085937-0.35352 0.04674-0.005543 0.089561-0.009765 0.12695-0.009765 0.22438 0 0.33594 0.10285 0.33594 0.30664 0 0.10656-0.03009 0.19016-0.091797 0.25-0.061682 0.057953-0.14732 0.085938-0.25391 0.085938-0.099099 0-0.21711-0.023661-0.35547-0.072266l-0.082032 0.33008c0.14584 0.056089 0.29803 0.083985 0.45508 0.083985 0.21688 0 0.38848-0.058075 0.51563-0.17774 0.12901-0.12153 0.19336-0.28872 0.19336-0.5 0-0.20941-0.062221-0.37244-0.1875-0.49023-0.12339-0.11966-0.29287-0.17969-0.50977-0.17969-0.078513 0-0.15788 0.008509-0.23828 0.025391-0.033663-0.12526-0.074265-0.26888-0.11914-0.42969zm-4.8535 0.001953-0.30078 0.15234c0.080404 0.14398 0.164 0.29844 0.25 0.46484l0.30274-0.14258c-0.09721-0.1907-0.1809-0.34933-0.25195-0.47461zm15.037 0.035156v1.043c0 0.32533-0.019337 0.57408-0.058594 0.74609-0.039256 0.17201-0.11217 0.33505-0.21875 0.49023l0.30274 0.24414c0.17388-0.23558 0.27901-0.51867 0.31641-0.84961h0.56445v0.76367h0.35938v-0.76367h0.61328v0.39062c0 0.063446-0.006429 0.09999-0.019531 0.11133-0.011212 0.011339-0.047756 0.017578-0.11133 0.017578-0.065436 0-0.17261-0.004159-0.32031-0.011718l0.017578 0.30859c0.19633 0.009323 0.31858 0.013672 0.36719 0.013672 0.10845 0 0.18577-0.004159 0.23438-0.011719 0.050469-0.005593 0.09329-0.025019 0.12695-0.060546 0.033714-0.035528 0.053051-0.080542 0.058594-0.13477 0.007559-0.054224 0.011719-0.13986 0.011719-0.25391v-2.043h-2.2441zm-25.047 0.009766-0.39648 0.054687c0.056088 0.33094 0.11825 0.64616 0.18555 0.94531-0.33281 0.19631-0.5 0.41513-0.5 0.6582 0 0.21314 0.085642 0.3783 0.25391 0.49609 0.16828 0.1178 0.40634 0.17773 0.71484 0.17773 0.31785 0 0.6396-0.029938 0.9668-0.087891l-0.050782-0.35547c-0.33281 0.057953-0.62462 0.085938-0.87891 0.085938-0.39638 0-0.5957-0.10732-0.5957-0.32422 0-0.27111 0.50606-0.54334 1.5176-0.81445l-0.091797-0.34375c-0.39451 0.10658-0.71829 0.21382-0.9707 0.32227-0.050469-0.22998-0.10194-0.50221-0.1543-0.81445zm16.289 0.003906v2.4766h0.36328v-0.14062h1.6895v0.14062h0.36328v-2.4766h-2.416zm-6.7363 0.052734-0.29883 0.14844c0.087887 0.1533 0.16936 0.30557 0.24414 0.45703l0.29883-0.14062c-0.074784-0.1477-0.15625-0.30217-0.24414-0.46484zm-11.67 0.058594c-0.065446 0.52539-0.22399 0.93701-0.47266 1.2324-0.24867 0.29354-0.61119 0.50591-1.0898 0.63867l0.12891 0.35352c0.56465-0.15519 0.99144-0.40402 1.2812-0.74805 0.29169-0.34403 0.47609-0.82423 0.55273-1.4375l-0.40039-0.039063zm8.6152 0c-0.065446 0.52539-0.22204 0.93701-0.4707 1.2324-0.24867 0.29354-0.61315 0.50591-1.0918 0.63867l0.12891 0.35352c0.56466-0.15519 0.99144-0.40402 1.2812-0.74805 0.29169-0.34403 0.47609-0.82423 0.55274-1.4375l-0.40039-0.039063zm-12.904 0.070313v0.32226h0.57422v0.47266h-0.83203v0.32422h0.83203v0.42383c0 0.21314 0.038586 0.35896 0.11523 0.4375 0.078526 0.076649 0.22223 0.11524 0.43164 0.11524 0.28046 0 0.56558-0.008698 0.85352-0.027344l-0.011719-0.33789c-0.25989 0.018646-0.51287 0.029297-0.75781 0.029297-0.10096 0-0.1654-0.014836-0.19531-0.041015-0.029909-0.028045-0.044922-0.090266-0.044922-0.1875v-0.41211h1.1504v-0.32422h-1.1504v-0.47266h0.89258v-0.32226h-1.8574zm8.6152 0v0.32226h0.57617v0.47266h-0.83398v0.32422h0.83398v0.42383c0 0.21314 0.038586 0.35896 0.11524 0.4375 0.078526 0.076649 0.22223 0.11524 0.43164 0.11524 0.28046 0 0.56363-0.008698 0.85156-0.027344l-0.011719-0.33789c-0.25989 0.018646-0.51092 0.029297-0.75586 0.029297-0.10096 0-0.16736-0.014836-0.19727-0.041015-0.029909-0.028045-0.044922-0.090266-0.044922-0.1875v-0.41211h1.1504v-0.32422h-1.1504v-0.47266h0.89258v-0.32226h-1.8574zm30.787 0.007812c-0.81333 0.10283-1.5767 0.1543-2.2891 0.1543v0.35938c0.35899 0 0.7622-0.027896 1.2109-0.083984v0.005859c-0.1664 0.09537-0.29306 0.21321-0.38281 0.35156-0.087886 0.1365-0.13281 0.28021-0.13281 0.43164 0 0.26364 0.11141 0.47822 0.33203 0.64648 0.2225 0.16834 0.52711 0.2626 0.91602 0.28125l0.039062-0.35352c-0.28793-0.018696-0.50879-0.083136-0.66211-0.19531-0.15146-0.11218-0.22656-0.258-0.22656-0.4375 0-0.19445 0.10504-0.36597 0.31445-0.51367 0.20941-0.14959 0.51386-0.25031 0.91211-0.30078l-0.03125-0.3457zm-5.0469 0.066406c-0.050495 0.28046-0.074219 0.55498-0.074219 0.82422 0 0.36834 0.066545 0.65795 0.20117 0.87109 0.1365 0.21128 0.29741 0.31836 0.48438 0.31836 0.14024 0 0.26673-0.079276 0.37891-0.23633 0.11218-0.15706 0.20425-0.4058 0.27344-0.74609l-0.36328-0.064453c-0.033663 0.15518-0.068077 0.28395-0.10547 0.38867-0.035503 0.10285-0.069853 0.17568-0.10352 0.2168-0.031798 0.041146-0.0618 0.0625-0.089844 0.0625-0.0673 0-0.13369-0.075041-0.19726-0.22461-0.063572-0.14959-0.095703-0.34475-0.095703-0.58594 0-0.27111 0.025677-0.53486 0.076171-0.79102l-0.38476-0.033203zm-2.5352 0.035156h0.53906v0.38477h-0.53906v-0.38477zm0.89844 0h0.61328v0.38477h-0.61328v-0.38477zm3.4512 0-0.35547 0.12695c0.12714 0.2356 0.22372 0.47366 0.29102 0.71484 0.067427 0.23932 0.11448 0.51376 0.13867 0.82227l0.37305-0.023437c-0.046753-0.62075-0.19673-1.1676-0.44727-1.6406zm-10.281 0.00586h0.38672v0.41992h-0.38672v-0.41992zm-2.8301 0.013672h1.6895v1.7188h-1.6895v-1.7188zm-4.8145 0.074218h0.78125v0.16797h-0.78125v-0.16797zm8.8262 0.044922h0.51758c-0.074785 0.11218-0.1628 0.21527-0.26562 0.3125-0.078539-0.074784-0.16424-0.17568-0.25586-0.30469v-0.005859c0-0.00187 0.002037-0.001954 0.003907-0.001954zm-3.752 0.14258v1.1855h0.33203 0.83984v-1.1855h-1.1719zm3.5586 0.14453c0.069166 0.085997 0.13361 0.16095 0.19531 0.22266-0.16641 0.10845-0.35954 0.19856-0.58203 0.27148l0.013672 0.074219h-0.1875v-0.27539h0.28711v-0.22852l0.11914 0.11328c0.054224-0.056088 0.10569-0.11603 0.1543-0.17773zm-10.59 0.003906-0.33789 0.12305c0.15332 0.38329 0.27761 0.72649 0.37109 1.0312l0.34766-0.099609c-0.093475-0.30289-0.22005-0.65457-0.38086-1.0547zm1.957 0.085938h0.78125v0.17383h-0.78125v-0.17383zm-0.65625 0.048828c0.028069 0.10283 0.047318 0.1715 0.05664 0.20703l-0.19141 0.011719c0.061707-0.095345 0.10672-0.16826 0.13477-0.21875zm6.0625 0.007812h0.50586v0.60352h-0.50586v-0.60352zm8.1699 0.097656h0.53906v0.41602h-0.54102c0.001869-0.041146 0.001953-0.10541 0.001953-0.19141v-0.22461zm0.89844 0h0.61328v0.41602h-0.61328v-0.41602zm-5.3945 0.19727c0.11966 0.091616 0.25251 0.17309 0.39648 0.24414h-0.83594c0.15892-0.07292 0.30483-0.15439 0.43945-0.24414zm-10.416 0.36719c-0.016831 0.25054-0.046921 0.51006-0.091797 0.7793l0.24024 0.044922c0.050469-0.28794 0.082601-0.55602 0.095703-0.80469l-0.24414-0.019531zm0.9375 0.12695h0.28906c-0.056088 0.11966-0.13978 0.23554-0.25195 0.34961-0.009323-0.11407-0.022244-0.22995-0.03711-0.34961zm9.1992 0.029297h0.53516v0.37695h-0.53516v-0.37695zm-5.1797 1.8418-0.21875 0.23242c0.14396 0.12154 0.29631 0.26524 0.45898 0.43164h-0.49609v-0.57227h-0.375v0.57227h-0.65625v0.32422h0.63867c-0.067311 0.54596-0.3097 0.97266-0.72852 1.2793v-2.2031h-0.35156v0.7207c-0.043011-0.097235-0.10091-0.22153-0.17383-0.37109l-0.29492 0.14648c0.11031 0.21875 0.21112 0.43977 0.30273 0.66602l0.16602-0.078125v0.3418c-0.14396 0.078513-0.30487 0.15983-0.48438 0.24023l0.11523 0.32812c0.11218-0.048605 0.23451-0.11076 0.36914-0.18555v0.74024h0.35156v-0.20312l0.16406 0.20312c0.16079-0.10845 0.30873-0.25003 0.44336-0.42578 0.13463-0.17761 0.24604-0.37481 0.33203-0.58984 0.082268 0.21877 0.1874 0.41614 0.31641 0.59375 0.13088 0.17763 0.2745 0.31905 0.42969 0.42188l0.21875-0.29102c-0.445-0.31038-0.70019-0.75624-0.76562-1.334h0.7168v-0.32422h-0.1875l0.19727-0.21094c-0.14772-0.15332-0.31067-0.30356-0.48828-0.45312zm1.1484 0.033204c-0.07292 0.12901-0.14802 0.24915-0.22656 0.36133-0.044876 0.003779-0.10932 0.005859-0.19531 0.005859l0.015625 0.26562c0.35712-0.011213 0.71091-0.028508 1.0605-0.054688 0.003527 0.005519 0.010146 0.018402 0.021484 0.039063 0.011339 0.018721 0.019848 0.031693 0.025391 0.041016l0.2832-0.10547v0.15039c0 0.056114 0.010589 0.094763 0.03125 0.11719 0.02245 0.020586 0.071789 0.035599 0.14844 0.044922 0.076652 0.007559 0.20959 0.011719 0.39844 0.011719h0.23633c0.050469 0 0.10203-0.006429 0.15625-0.019532 0.056189-0.013102 0.092556-0.02388 0.10742-0.033203 0.016731-0.009348 0.035979-0.033009 0.056641-0.072265 0.020409-0.039257 0.031376-0.075712 0.035156-0.10938 0.005543-0.033638 0.011972-0.091384 0.019531-0.16992l-0.33594-0.048828c-0.011238 0.095294-0.028356 0.15109-0.050782 0.16797-0.02245 0.016882-0.093319 0.025391-0.21484 0.025391h-0.001954c-0.10273 0-0.16293-0.004222-0.18359-0.009766-0.018646-0.007483-0.029297-0.02469-0.029297-0.052734v-0.044922c0.25241-0.042986 0.52685-0.10938 0.82227-0.19726l-0.10156-0.25977c-0.23934 0.076649-0.47952 0.13881-0.7207 0.18555v-0.18555h-0.37305v0.45117c-0.097235-0.15894-0.20015-0.309-0.30859-0.44922l-0.29883 0.10742c0.024315 0.033663 0.062964 0.089367 0.11719 0.16602-0.07292 0.005544-0.18016 0.011973-0.32227 0.019532 0.07292-0.10096 0.1394-0.20168 0.19922-0.30078l-0.37109-0.046874zm15.336 0.001953c0 0.001864 0.002269 0.11768 0.007812 0.34766-0.54222 0.024189-0.98189 0.037109-1.3203 0.037109v0.31445c0.3459 0 0.78981-0.010778 1.332-0.033203 0.003779 0.080378 0.005859 0.14482 0.005859 0.19531h-0.005859c-0.089751-0.037392-0.17978-0.056641-0.26953-0.056641-0.1664 0-0.30366 0.051469-0.41211 0.1543-0.10845 0.10285-0.16211 0.23366-0.16211 0.39258 0 0.16454 0.053573 0.29952 0.16016 0.40234 0.10846 0.10096 0.2458 0.15039 0.41406 0.15039 0.14395 0 0.25977-0.038649 0.34766-0.11719l0.005859 0.001953c-0.013102 0.041071-0.02388 0.071009-0.033203 0.087891-0.087877 0.17575-0.34086 0.27656-0.75781 0.30273l0.05664 0.33984c0.38702-0.026154 0.67011-0.11612 0.84961-0.26758 0.1795-0.15145 0.26953-0.36815 0.26953-0.65234 0-0.1739-0.032132-0.32192-0.095703-0.44531 0-0.048613-0.004349-0.21792-0.013672-0.50586 0.25241-0.014967 0.51193-0.034215 0.7793-0.05664l-0.021485-0.31445c-0.2655 0.022426-0.52069 0.041586-0.76562 0.054688-0.003779-0.15332-0.005859-0.26473-0.005859-0.33203h-0.36523zm-11.998 0.009765c-0.051994 0.17074-0.091231 0.29471-0.11914 0.36914-0.13462 0.003779-0.34462 0.005859-0.62695 0.005859v0.31445c0.22062 0 0.3856-0.002036 0.49219-0.003906-0.11405 0.23932-0.28115 0.50952-0.49805 0.81055l0.29492 0.17773c0.12901-0.17762 0.25762-0.31268 0.38477-0.4043 0.12714-0.093481 0.23642-0.14063 0.32617-0.14063 0.10096 0 0.17183 0.04291 0.21484 0.12891-0.23933 0.10096-0.42373 0.21465-0.55274 0.3418-0.12714 0.12714-0.18945 0.25567-0.18945 0.38281 0 0.32533 0.30241 0.48828 0.9082 0.48828 0.24681 0 0.4892-0.019248 0.72852-0.05664l-0.03125-0.32812c-0.28606 0.044875-0.51776 0.066406-0.69727 0.066406-0.18698 0-0.31779-0.015102-0.39258-0.046875-0.074784-0.033663-0.11328-0.085043-0.11328-0.15234 0-0.052359 0.036367-0.11026 0.10742-0.17383 0.071055-0.065436 0.17186-0.12775 0.30273-0.18945 0.005543 0.082268 0.007813 0.18094 0.007813 0.29688h0.37305c0-0.15893-0.006618-0.30263-0.021484-0.43164 0.1907-0.059842 0.39239-0.1069 0.60742-0.13867l-0.039062-0.31836c-0.22436 0.031773-0.43894 0.076876-0.64648 0.13672-0.042986-0.10469-0.10506-0.17973-0.18359-0.22461-0.076648-0.044875-0.17322-0.066406-0.29102-0.066406-0.10845-0.00189-0.21772 0.026095-0.32617 0.085938l-0.001953-0.001953c0.056088-0.10283 0.096956-0.18652 0.125-0.25195 0.38703-0.011213 0.77508-0.032592 1.1621-0.0625l-0.011719-0.31641c-0.42256 0.031824-0.76143 0.051224-1.0176 0.060547 0.022425-0.059842 0.056687-0.15632 0.10156-0.28906l-0.37695-0.06836zm-20.227 0.009766c-0.024315 0.20566-0.054405 0.40718-0.091797 0.60352-0.12152 0.009348-0.29524 0.024449-0.52148 0.046874l0.021484 0.32617c0.059843-0.005543 0.13708-0.014114 0.23242-0.023437 0.097235-0.009323 0.1615-0.015752 0.19141-0.019531-0.11407 0.45621-0.28346 0.91513-0.50781 1.377l0.31641 0.13476c0.25241-0.52539 0.43884-1.0379 0.55664-1.5371 0.09537-0.005543 0.16624-0.007813 0.21484-0.007813 0.10656 0 0.17304 0.015014 0.19922 0.044922 0.028044 0.028044 0.042969 0.10519 0.042969 0.23047 0 0.15332-0.008571 0.2905-0.023437 0.41016-0.014967 0.11966-0.03641 0.21401-0.064454 0.2832-0.026179 0.069191-0.054075 0.12072-0.083984 0.15625-0.029934 0.035528-0.060024 0.052735-0.091797 0.052735-0.056088 0-0.16113-0.049427-0.31445-0.15039l-0.14844 0.30469c0.20192 0.13276 0.36928 0.19922 0.50391 0.19922 0.16453 0 0.30594-0.10081 0.42188-0.30273 0.11593-0.2038 0.17383-0.49544 0.17383-0.875 0-0.11031-0.00208-0.19832-0.00586-0.26562-0.003779-0.067301-0.014557-0.12937-0.033203-0.18359-0.016831-0.056088-0.038121-0.096867-0.060547-0.12305-0.022425-0.026229-0.05888-0.04776-0.10937-0.066406-0.04863-0.018645-0.10025-0.029423-0.1582-0.033203-0.057952-0.005543-0.13723-0.009765-0.23633-0.009765-0.022425 0-0.073893 0.002079-0.1543 0.005859 0.030035-0.15332 0.057843-0.3356 0.082032-0.54688l-0.35156-0.03125zm-2.9863 0.009766c-0.029934 0.15706-0.060024 0.30077-0.091797 0.43164-0.14023 0.005543-0.28589 0.007813-0.43359 0.007813v0.32617c0.080403 0 0.19613-0.002079 0.3457-0.005859-0.10657 0.37769-0.25027 0.79167-0.43164 1.2441l0.3418 0.10352c0.19633-0.48052 0.35071-0.93528 0.46289-1.3672 0.16827-0.014942 0.34835-0.036321 0.53906-0.0625l-0.025391-0.32227c-0.15706 0.020561-0.30068 0.037679-0.42969 0.050782 0.0037543-0.028045 0.029432-0.1502 0.076172-0.36524l-0.35352-0.041015zm4.6602 0.009765-0.29883 0.15234c0.080403 0.14397 0.164 0.29844 0.25 0.46484l0.30273-0.14258c-0.097209-0.1907-0.18285-0.34933-0.25391-0.47461zm27.584 0.009766c-0.012997 0.12712-0.021568 0.24294-0.023438 0.34766-0.36273 0.016882-0.71457 0.025391-1.0586 0.025391v0.30859c0.30476-0.002015 0.65644-0.012604 1.0547-0.03125 0 0.11031 8.3e-5 0.19391 0.001953 0.25-0.34403 0.020662-0.65721 0.029297-0.94141 0.029297v0.30274c0.31972 0 0.63714-0.006556 0.95312-0.023438v0.023438l0.007812 0.25c-0.099099-0.024189-0.19991-0.035157-0.30273-0.035157-0.20007 0-0.35666 0.04291-0.4707 0.12891-0.11218 0.085996-0.16797 0.20182-0.16797 0.34766 0 0.15705 0.055792 0.27939 0.16797 0.36914 0.11218 0.091615 0.26878 0.13867 0.4707 0.13867 0.20755 0 0.36406-0.034173 0.46875-0.099609s0.16913-0.17276 0.19531-0.32422c0.12715 0.080378 0.29434 0.1962 0.5 0.34766l0.21289-0.26563c-0.27671-0.20567-0.50842-0.35988-0.69727-0.45898-0.003779-0.17761-0.007939-0.3086-0.011718-0.39648 0-0.005544-0.002037-0.014052-0.003907-0.025391v-0.025391c0.2356-0.020585 0.45213-0.042027 0.64844-0.064453l-0.019531-0.30273c-0.18884 0.022476-0.40113 0.041901-0.63672 0.060547-0.00187-0.054224-0.001953-0.13578-0.001953-0.24609 0.25802-0.016831 0.51541-0.038273 0.77344-0.064453l-0.019531-0.30859c-0.24868 0.027994-0.49947 0.049525-0.75 0.066407 0.007307-0.14211 0.015878-0.24935 0.023438-0.32227l-0.37305-0.001953zm-28.041 0.091797-0.29688 0.14844c0.087887 0.15331 0.16936 0.30557 0.24414 0.45703l0.29688-0.14062c-0.074785-0.1477-0.15625-0.30217-0.24414-0.46484zm11.598 0.027343c-0.54596 0.041147-1.0798 0.0625-1.5996 0.0625l0.001953 0.3457c0.37207 0.001865 0.76029-0.021707 1.166-0.070312l0.001953 0.001953c-0.43377 0.28046-0.93559 0.56787-1.5059 0.86328l0.13477 0.30078c0.2655-0.13276 0.47771-0.22288 0.63477-0.27148 0.15893-0.050494 0.31128-0.076172 0.45898-0.076172 0.39264 0 0.58984 0.13073 0.58984 0.39062-0.001865 0.17575-0.10039 0.30445-0.29297 0.38672 0.005543-0.035527 0.009766-0.069789 0.009766-0.10156 0-0.13087-0.049339-0.23177-0.14844-0.30469-0.097235-0.074784-0.24077-0.11328-0.42773-0.11328-0.17202 0-0.31352 0.040779-0.42383 0.12305-0.11031 0.080403-0.16406 0.17899-0.16406 0.29492 0 0.14584 0.06231 0.26166 0.18945 0.34766 0.12902 0.087886 0.30909 0.13281 0.53906 0.13281 0.34216 0 0.61024-0.072758 0.80469-0.21484 0.19633-0.1421 0.29492-0.3309 0.29492-0.56836 0-0.19632-0.068587-0.35291-0.20508-0.4707-0.13462-0.1178-0.32114-0.17773-0.55859-0.17773-0.095345 0.001764-0.18768 0.014684-0.2793 0.037109v-0.007812c0.057953-0.031774 0.15011-0.083154 0.27539-0.15234 0.12525-0.07103 0.23047-0.13319 0.31836-0.18555 0.089752-0.052359 0.17113-0.10383 0.24219-0.1543l-0.056641-0.41797zm-5.3848 0.10938c-0.81333 0.10283-1.5767 0.1543-2.2891 0.1543v0.35938c0.35899 0 0.76416-0.027896 1.2129-0.083984v0.005859c-0.1664 0.09537-0.29502 0.21125-0.38477 0.34961-0.087886 0.13648-0.13281 0.28214-0.13281 0.43359 0 0.26364 0.11141 0.47822 0.33203 0.64648 0.2225 0.16832 0.52711 0.2626 0.91602 0.28125l0.041016-0.35352c-0.28793-0.018696-0.50879-0.085089-0.66211-0.19726-0.15146-0.11217-0.22852-0.258-0.22852-0.4375 0-0.19446 0.10504-0.36402 0.31445-0.51172 0.20941-0.14959 0.51386-0.25031 0.91211-0.30078l-0.03125-0.3457zm0.69726 0.064454c-0.050494 0.28046-0.074219 0.55693-0.074219 0.82617 0 0.36834 0.066546 0.65795 0.20117 0.87109 0.1365 0.21128 0.29937 0.31641 0.48633 0.31641 0.14024 0 0.26478-0.077323 0.37695-0.23438 0.11218-0.15706 0.20425-0.4058 0.27344-0.74609l-0.36328-0.064453c-0.033663 0.1552-0.068077 0.28398-0.10547 0.38867-0.035527 0.10283-0.069853 0.17565-0.10352 0.2168-0.031774 0.041122-0.0618 0.0625-0.089844 0.0625-0.067301 0-0.13369-0.075041-0.19727-0.22461-0.063572-0.14959-0.095703-0.34475-0.095703-0.58594 0-0.27111 0.025677-0.53486 0.076172-0.79102l-0.38477-0.035156zm14.361 0c-0.050494 0.28046-0.076171 0.55693-0.076171 0.82617 0 0.36834 0.066545 0.65795 0.20117 0.87109 0.13648 0.21128 0.29934 0.31641 0.48633 0.31641 0.14024 0 0.26478-0.077323 0.37695-0.23438 0.11218-0.15706 0.20425-0.4058 0.27344-0.74609l-0.36328-0.064453c-0.033663 0.1552-0.068077 0.28398-0.10547 0.38867-0.035527 0.10283-0.069853 0.17565-0.10352 0.2168-0.031773 0.041122-0.061799 0.0625-0.089843 0.0625-0.067301 0-0.13369-0.075041-0.19727-0.22461-0.063572-0.14959-0.09375-0.34475-0.09375-0.58594 0-0.27111 0.023724-0.53486 0.074219-0.79102l-0.38281-0.035156zm2.8711 0c-0.050494 0.28046-0.076172 0.55693-0.076172 0.82617 0 0.36834 0.068498 0.65795 0.20312 0.87109 0.1365 0.21128 0.29742 0.31641 0.48438 0.31641 0.14024 0 0.26673-0.077323 0.37891-0.23438 0.11218-0.15706 0.20229-0.4058 0.27148-0.74609l-0.36133-0.064453c-0.033663 0.1552-0.07003 0.28398-0.10742 0.38867-0.035528 0.10283-0.069853 0.17565-0.10352 0.2168-0.031773 0.041122-0.061799 0.0625-0.089844 0.0625-0.0673 0-0.13174-0.075041-0.19531-0.22461-0.063572-0.14959-0.095703-0.34475-0.095703-0.58594 0-0.27111 0.025677-0.53486 0.076172-0.79102l-0.38477-0.035156zm-27.26 0.003906-0.10938 0.32422c0.29915 0.076649 0.57808 0.16881 0.83984 0.27539l0.125-0.32031c-0.27485-0.1122-0.56005-0.20451-0.85547-0.2793zm11.844 0.033203-0.35742 0.12695c0.12714 0.2356 0.22567 0.47366 0.29297 0.71484 0.067427 0.23932 0.11253 0.51376 0.13672 0.82226l0.37305-0.023437c-0.046753-0.62075-0.19478-1.1676-0.44531-1.6406zm14.359 0-0.35742 0.12695c0.12714 0.2356 0.22567 0.47366 0.29297 0.71484 0.067427 0.23932 0.11253 0.51376 0.13672 0.82226l0.37305-0.023437c-0.046753-0.62075-0.19478-1.1676-0.44531-1.6406zm2.8711 0-0.35547 0.12695c0.12714 0.2356 0.22371 0.47366 0.29102 0.71484 0.067427 0.23932 0.11253 0.51376 0.13672 0.82226l0.37305-0.023437c-0.046753-0.62075-0.19478-1.1676-0.44531-1.6406zm-32.16 0.033203c-0.11407 0-0.23199 0.008509-0.35352 0.025391-0.11966 0.015017-0.21827 0.032135-0.29492 0.050781-0.074784 0.018696-0.17787 0.044462-0.3125 0.078125-0.23372 0.057852-0.3815 0.092177-0.43945 0.10352l0.074219 0.37305c0.063557-0.014967 0.19862-0.049292 0.4043-0.10352 0.12525-0.033714 0.22183-0.05948 0.29102-0.078125 0.071055-0.018797 0.16117-0.035915 0.27148-0.050781 0.11218-0.016882 0.21935-0.025391 0.32031-0.025391 0.19445 0 0.3424 0.038497 0.44336 0.11328 0.10096 0.07292 0.15039 0.17592 0.15039 0.31055 0 0.14208-0.038738 0.26214-0.11914 0.35938-0.080386 0.09537-0.21968 0.1748-0.41602 0.24023-0.19632 0.065462-0.4622 0.11471-0.79688 0.14648l0.0625 0.37305c0.41134-0.041122 0.73952-0.10971 0.98633-0.20508 0.2468-0.095371 0.42476-0.21762 0.5332-0.36719 0.10845-0.15145 0.16211-0.34025 0.16211-0.56836 0-0.24119-0.083752-0.42992-0.25391-0.56641-0.16827-0.13836-0.40626-0.20898-0.71289-0.20898zm21.572 0.26172v1.1113h0.35742v-0.34961h0.44336v0.041015c0 0.024214-0.00416 0.039316-0.011719 0.046875-0.005619 0.005543-0.020543 0.007813-0.042969 0.007813l-0.19531-0.00586 0.007812 0.24414 0.3457 0.005859c0.095345 0 0.15766-0.017207 0.18945-0.052734 0.031773-0.035528 0.048828-0.1148 0.048828-0.23633v-0.8125h-1.1426zm-15.041 0.13476-0.33594 0.12305c0.15332 0.38329 0.27761 0.72648 0.37109 1.0312l0.34766-0.099609c-0.093477-0.30289-0.22201-0.65457-0.38281-1.0547zm2.043 0c-0.18323 0-0.44258 0.040868-0.77539 0.125-0.14211 0.037443-0.25799 0.065339-0.34961 0.083985l0.0625 0.33789c0.084157-0.02056 0.19139-0.048456 0.32226-0.083984 0.29915-0.082268 0.53501-0.12305 0.70703-0.12305 0.14397 0 0.25343 0.027896 0.33008 0.083984 0.076649 0.054199 0.11523 0.12933 0.11523 0.22656 0 0.16453-0.075104 0.29102-0.22656 0.37891-0.15145 0.085997-0.42368 0.14816-0.81445 0.18555l0.052735 0.33594c0.49359-0.048605 0.84315-0.14509 1.0488-0.28906 0.20566-0.14584 0.30859-0.35593 0.30859-0.62891 0-0.19633-0.068676-0.35071-0.20703-0.46289-0.13649-0.11407-0.32742-0.16992-0.57422-0.16992zm13.355 0.083985h0.44336v0.085937h-0.44336v-0.085937zm2.0234 0.015625c-0.23934 0.078538-0.47952 0.14271-0.7207 0.18945v-0.16602h-0.37305v0.67578c0 0.055988 0.010589 0.094573 0.03125 0.11524 0.02245 0.020586 0.071789 0.035599 0.14844 0.044922 0.078542 0.009323 0.21148 0.013672 0.39844 0.013672 0.1178 0 0.20131-8.4e-5 0.24805-0.001953l-0.25586 0.12891c0.009398 0.014941 0.022369 0.034367 0.041015 0.060547 0.018721 0.024289 0.033646 0.043538 0.042969 0.05664l-0.26172-0.042969c-0.007483 0.12903-0.022497 0.21042-0.044922 0.24219-0.022425 0.029833-0.073893 0.049082-0.1543 0.056641-0.063571 0.005543-0.14294 0.007812-0.23828 0.007812-0.10283 0-0.18219-0.002269-0.23828-0.007812-0.043036-0.005796-0.068802-0.016384-0.078125-0.03125-0.009323-0.014942-0.013672-0.057763-0.013672-0.12695v-0.26367h-0.375l-0.001953 0.31445c0 0.17013 0.019248 0.2773 0.05664 0.32031 0.039282 0.044901 0.13796 0.072709 0.29688 0.082031 0.09537 0.005544 0.21753 0.007813 0.36523 0.007813 0.15705 0 0.2772-0.00416 0.36133-0.011719 0.16081-0.014967 0.26576-0.047098 0.3125-0.095703 0.048605-0.04863 0.078695-0.16019 0.091797-0.33594 0.095345 0.14769 0.1703 0.27419 0.22266 0.37891l0.30469-0.14258c-0.10282-0.20379-0.2294-0.40532-0.38086-0.60352 0.069166-0.005543 0.12072-0.014052 0.15625-0.02539 0.037292-0.011213 0.067229-0.036916 0.087891-0.076172 0.022349-0.039282 0.037363-0.079973 0.044922-0.12109 0.009323-0.041121 0.018021-0.1098 0.027344-0.20703l-0.33984-0.052735c-0.009474 0.1085-0.026593 0.17081-0.050782 0.18945-0.02245 0.018646-0.095361 0.029297-0.21875 0.029297-0.10474 0-0.16495-0.004222-0.18359-0.009765-0.018646-0.005619-0.029297-0.020784-0.029297-0.048829v-0.083984c0.25241-0.042986 0.52685-0.10938 0.82227-0.19727l-0.10156-0.26172zm-21.02 0.029297c-0.015118 0.12528-0.019278 0.29908-0.011719 0.52344-0.067301-0.016882-0.14234-0.02539-0.22461-0.02539-0.20005 0-0.35664 0.049186-0.4707 0.14453-0.11218 0.09348-0.16797 0.21795-0.16797 0.375 0 0.16267 0.057809 0.29128 0.17188 0.38476 0.11405 0.093481 0.2686 0.14062 0.4668 0.14062 0.18698 0 0.32839-0.036455 0.42188-0.10938 0.095269-0.07103 0.15317-0.18685 0.17383-0.34766 0.11591 0.089726 0.23173 0.18639 0.34766 0.29297l0.22461-0.26367c-0.22064-0.19446-0.4114-0.33825-0.57031-0.43359v-0.052734c-0.011087-0.29542-0.0090068-0.50543 0.0058593-0.62695l-0.36719-0.001953zm34.084 0.16602c0.07103 0 0.13115 0.02375 0.18164 0.074219 0.050494 0.048605 0.076172 0.11067 0.076172 0.18359 0 0.072919-0.025678 0.13312-0.076172 0.18359-0.05047 0.048605-0.11059 0.074219-0.18164 0.074219-0.07103 0-0.13115-0.025614-0.18164-0.074219-0.050495-0.050469-0.076172-0.11067-0.076172-0.18359 0-0.07292 0.025677-0.13499 0.076172-0.18359 0.050469-0.050469 0.11058-0.074219 0.18164-0.074219zm-15.088 0.060547h0.44336v0.087891h-0.44336v-0.087891zm0.82617 0.5293-0.21289 0.2168c0.15706 0.089751 0.30509 0.19047 0.44531 0.30078l0.21094-0.22461c-0.14023-0.11031-0.28817-0.20884-0.44336-0.29297zm-20.074 0.060547c0.082268 0.001864 0.16587 0.019071 0.25 0.052734v0.027344c0.0018696 0.011087 0.0019532 0.019658 0.0019532 0.023437 0 0.12528-0.017207 0.20888-0.052734 0.25-0.033663 0.039257-0.10012 0.058594-0.19922 0.058594-0.078539 0-0.14067-0.01916-0.18555-0.054687-0.043011-0.037392-0.064453-0.088949-0.064453-0.15625 0-0.059843 0.021442-0.10909 0.064453-0.14648 0.044876-0.037392 0.10701-0.054687 0.18555-0.054687zm31.275 0.052734c0.086022-0.00189 0.18242 0.017448 0.28711 0.058594 0 0.11407-0.021354 0.19121-0.0625 0.23047-0.039257 0.039256-0.1143 0.058594-0.22461 0.058594-0.18696 0.001864-0.2793-0.058252-0.2793-0.18164 0.001865-0.11031 0.094201-0.16602 0.2793-0.16602zm-12.213 0.017578c-0.074785 0.19072-0.18619 0.36239-0.33203 0.51758l0.26758 0.21094c0.16829-0.17388 0.29054-0.37541 0.36719-0.60352l-0.30273-0.125zm-4.9199 0.033203c0.15892 0 0.23828 0.055856 0.23828 0.16992 0 0.039282-0.006618 0.088532-0.021484 0.14648h-0.06836c-0.26176-0.001865-0.39258-0.059851-0.39258-0.17578 0-0.039257 0.021379-0.07343 0.0625-0.09961 0.042986-0.028044 0.1031-0.041016 0.18164-0.041016zm-8.416 1.1855a3.4549 3.4549 0 0 0-3.4551 3.4551 3.4549 3.4549 0 0 0 3.4551 3.4551 3.4549 3.4549 0 0 0 3.4551-3.4551 3.4549 3.4549 0 0 0-3.4551-3.4551zm24.561 0.36524a3.4549 3.4549 0 0 0-3.4551 3.4551 3.4549 3.4549 0 0 0 3.4551 3.4551 3.4549 3.4549 0 0 0 3.4551-3.4551 3.4549 3.4549 0 0 0-3.4551-3.4551zm-20.592 4.5488h16.211-16.211zm-0.36719 1.7383v3.7656h2.2305v-3.7656h-2.2305zm13.805 0.16211v3.8164h1.5742 1.9727v-1.2832h-1.9727v-2.5332h-1.5742zm-20.215 1.4727v4.1426h5.5176v-4.1426h-5.5176zm24.562 0.36328v4.1426h5.5156v-4.1426h-5.5156z" fill="#181c57"/>
 </g>
</svg>
