<?xml version="1.0" encoding="UTF-8"?>
<svg width="18.514mm" height="9.2568mm" version="1.1" viewBox="0 0 18.514 9.2568" xmlns="http://www.w3.org/2000/svg">
 <g transform="translate(-51.972 -68.243)">
  <rect x="52.229" y="68.542" width="17.966" height="8.7087" rx=".61949" ry=".48381" fill="#fff" stroke="#181c57" stroke-linecap="round" stroke-linejoin="round" stroke-width=".54809"/>
  <path transform="matrix(.26458 0 0 .26458 51.972 68.243)" d="m11.727 3.332v0.61328h-1.1719v0.48438h2.2285c-0.43917 0.50547-1.3084 0.89762-2.6094 1.1738l0.14062 0.49609c0.52204-0.116 0.99227-0.255 1.4121-0.41797v1.2715h0.56836v-1.4961c0.45022 0.28726 0.87603 0.57717 1.2793 0.86719l0.32812-0.41992c-0.26792-0.18782-0.6413-0.44017-1.1191-0.75781 0.32594-0.22097 0.57828-0.45992 0.75781-0.7168v-0.48438h-1.2461v-0.61328zm25.361 0.054688-0.58398 0.078125c0.08287 0.48889 0.17401 0.95455 0.27344 1.3965-0.49165 0.29002-0.73828 0.61358-0.73828 0.97266 0 0.31488 0.12446 0.56037 0.37305 0.73438 0.24859 0.17401 0.60089 0.25977 1.0566 0.25977 0.46956 0 0.94632-0.041334 1.4297-0.12695l-0.07617-0.52734c-0.49166 0.085619-0.92513 0.12891-1.3008 0.12891-0.58556 0-0.87695-0.16006-0.87695-0.48047 0-0.4005 0.74594-0.80067 2.2402-1.2012l-0.13672-0.50977c-0.58281 0.15744-1.0607 0.31636-1.4336 0.47656-0.074583-0.33974-0.14923-0.7399-0.22656-1.2012zm-4.5996 0.027344c-0.09667 0.65462-0.39574 1.2424-0.89844 1.7617l0.37305 0.33203c0.37841-0.37012 0.65182-0.74578 0.82031-1.127h1.3242c-0.07181 0.61319-0.28317 1.0757-0.63672 1.3906-0.35355 0.31212-0.89466 0.50974-1.6211 0.58984l0.10352 0.49219c0.87835-0.10772 1.5317-0.35664 1.957-0.74609 0.42536-0.38946 0.68114-0.96422 0.76953-1.7266v-0.48047h-1.7324c0.03308-0.11325 0.06068-0.26531 0.08008-0.45312zm9.7773 0.013672c-0.01663 0.21545-0.02766 0.46436-0.0332 0.74609-0.37289 0.024945-0.73744 0.037109-1.0938 0.037109v0.49609c0.36184-0.00267 0.72639-0.016071 1.0938-0.041016 0.0055 0.17676 0.0109 0.31118 0.01367 0.40234 0.0028 0.074583 0.0062 0.18793 0.01172 0.33984-0.1022-0.027616-0.20674-0.041016-0.31445-0.041016-0.2845 0-0.51006 0.068927-0.67578 0.20703-0.16297 0.1381-0.24414 0.32038-0.24414 0.54688 0 0.23478 0.08233 0.42049 0.24805 0.55859 0.16572 0.13533 0.39014 0.20312 0.67188 0.20312 0.22648 0 0.40991-0.047851 0.55078-0.14453 0.14362-0.09668 0.23705-0.23992 0.28125-0.42773 0.13257 0.11876 0.26928 0.24975 0.41016 0.39062l0.36523-0.33594c-0.3066-0.30936-0.55666-0.53607-0.75-0.67969-0.0055-0.26516-0.01008-0.46507-0.01563-0.59766 0-0.038677-0.0031-0.088823-0.0059-0.15234-0.0028-0.063521-5e-3 -0.12021-0.0078-0.16992v-0.14062c0.26793-0.024869 0.52566-0.054757 0.77148-0.087891l-0.0332-0.49609c-0.24032 0.033058-0.48694 0.060993-0.73828 0.085937 0.0028-0.19887 0.0138-0.43015 0.0332-0.69531zm-22.68 0.048828v3.418h0.57617v-1.7188c0.57176 0.16019 1.1374 0.36239 1.6953 0.60547l0.19336-0.48047c-0.59938-0.26793-1.2285-0.49005-1.8887-0.66406v-1.1602zm20.629 0.00977c-0.14088 0.54137-0.21094 1.1073-0.21094 1.7012 0 0.59109 0.07006 1.1578 0.21094 1.6992l0.54297-0.0625c-0.14362-0.52204-0.21484-1.0689-0.21484-1.6406 0.0027-0.57176 0.07397-1.1174 0.21484-1.6367zm5.7637 0.085937c-0.38946 0-0.77966 0.053233-1.1719 0.1582l0.10742 0.48047c0.36184-0.10497 0.68964-0.1582 0.98242-0.1582 0.41432 0 0.62109 0.10992 0.62109 0.32812 0 0.066293-0.02221 0.12984-0.06641 0.19336-0.0442 0.060775-0.08862 0.11058-0.13281 0.14648-0.04142 0.033159-0.10922 0.08101-0.20312 0.14453-0.07735 0.049713-0.13631 0.088753-0.17773 0.11914-0.04142 0.027641-0.09582 0.073198-0.16211 0.13672-0.06355 0.060775-0.1114 0.12055-0.14453 0.17578-0.03316 0.052485-0.06418 0.12141-0.0918 0.20703-0.02762 0.082872-0.04102 0.16976-0.04102 0.26367h0.56836c0.0027-0.085619 0.01607-0.16027 0.04102-0.22656 0.02762-0.066293 0.06895-0.1295 0.12695-0.1875 0.06075-0.058003 0.11171-0.10243 0.15039-0.13281 0.04142-0.030387 0.10692-0.071722 0.19531-0.12695 0.09391-0.060775 0.16397-0.11058 0.21094-0.14648 0.04971-0.035906 0.1064-0.084916 0.16992-0.14844 0.06355-0.066293 0.1091-0.13865 0.13672-0.21875 0.03039-0.080101 0.04492-0.17124 0.04492-0.27344 0-0.21822-0.10224-0.39592-0.30664-0.53125-0.2044-0.13533-0.49006-0.20312-0.85742-0.20312zm-41.42 0.041011-0.74023 0.42773v0.54297l0.73242-0.38672 0.00781 0.00586v2.5098h0.59375v-3.0996zm18.645 0.033203v1.4551h0.55078v-0.97852h1.998v0.25781c0 0.61043-0.1532 1.073-0.45703 1.3906-0.30107 0.31763-0.76363 0.49991-1.3906 0.54688l0.074219 0.49414c0.76787-0.049718 1.3492-0.27871 1.7441-0.6875 0.39498-0.41156 0.5918-0.99285 0.5918-1.7441v-0.73438zm-6.9844 0.57617-0.45312 0.11719c0.09668 0.3425 0.1932 0.70052 0.28711 1.0762l0.45117-0.11523c-0.082872-0.34803-0.17744-0.708-0.28516-1.0781zm0.95312 0.095703c-0.05801 0.6629-0.21807 1.1496-0.48047 1.459-0.2624 0.30935-0.6913 0.51842-1.2852 0.62891l0.10742 0.42773c0.71539-0.12706 1.2354-0.37597 1.5586-0.74609 0.32317-0.37012 0.51998-0.95027 0.5918-1.7402zm-1.8203 0.085937-0.44336 0.11719c0.07181 0.2403 0.1672 0.58493 0.2832 1.0352l0.44336-0.10742c-0.088391-0.36183-0.18378-0.71071-0.2832-1.0449zm11.957 0.49805v0.56836h3.373v-0.56836zm14.605 0.94922c0.12707 0.00275 0.24385 0.029546 0.35156 0.082031v0.070312c0 0.14088-0.0268 0.24312-0.08203 0.30664-0.05523 0.060775-0.14524 0.091797-0.26953 0.091797-0.11601 0-0.20601-0.023346-0.26953-0.070313-0.06077-0.049739-0.0918-0.1198-0.0918-0.21094 0-0.082847 0.03102-0.14835 0.0918-0.19531 0.06075-0.049713 0.15075-0.074219 0.26953-0.074219zm-35.594 0.052735v0.80859h0.80273v-0.80859zm39.148 0.2168v0.5918h0.625v-0.5918zm-45.451 1.666v1.1211h68.967v-1.1211zm0 1.8418v0.40039h68.967v-0.40039z" fill="#181c57"/>
  <g fill="#181c57">
   <g>
    <path d="m52.97 71.501h0.21952v-0.1148h0.10627v0.1148h0.23348v0.09076q-0.05042 0.07214-0.14195 0.13419 0.13419 0.0892 0.20944 0.14195l-0.06128 0.07834q-0.11325-0.08145-0.23969-0.16212v0.28002h-0.10627v-0.23814q-0.1179 0.04577-0.26451 0.07834l-0.02637-0.09308q0.36535-0.07757 0.48868-0.21952h-0.41732z"/>
    <path d="m54.215 71.576q-0.02017 0.22185-0.11092 0.32579-0.09076 0.10394-0.29166 0.13962l-0.02017-0.0799q0.16677-0.03103 0.24046-0.1179 0.07369-0.08688 0.08998-0.27304zm-0.51583 0.03258 0.083-0.02172q0.02792 0.09386 0.05275 0.19547l-0.083 0.02017q-0.03258-0.12644-0.05275-0.19392zm0.16057-0.03413 0.08455-0.02172q0.03025 0.10394 0.05352 0.20168l-0.08455 0.02172q-0.02637-0.10549-0.05352-0.20168z"/>
    <path d="m54.313 71.413h0.10782v0.21719q0.18539 0.04887 0.35371 0.12411l-0.03646 0.08998q-0.15669-0.06826-0.31726-0.11325v0.32191h-0.10782z"/>
    <path d="m54.873 71.445h0.58254v0.1373q0 0.21099-0.11092 0.32656-0.11092 0.1148-0.32656 0.12876l-0.01396-0.09231q0.17608-0.01319 0.26063-0.10239 0.08533-0.0892 0.08533-0.26063v-0.04809h-0.37388v0.18306h-0.10317z"/>
    <path d="m55.555 71.786v-0.10627h0.63141v0.10627z"/>
    <path d="m56.356 72.046-0.01939-0.09231q0.20401-0.02249 0.30329-0.11015 0.09929-0.08843 0.11946-0.26063h-0.24822q-0.04732 0.10704-0.15359 0.21099l-0.06981-0.06206q0.14118-0.14583 0.16832-0.32967l0.10084 0.0062q-0.0054 0.05275-0.01474 0.08455h0.32424v0.08998q-0.02482 0.21409-0.14428 0.32346-0.11946 0.10937-0.36612 0.13962z"/>
    <path d="m57.356 71.948q0.0861-0.02017 0.13264-0.07524 0.04654-0.05585 0.04654-0.13962 0-0.07447-0.04499-0.12411t-0.12023-0.0605q-0.0318 0.23038-0.09541 0.33898-0.06361 0.10782-0.14971 0.10782-0.0605 0-0.11015-0.06361-0.04887-0.06438-0.04887-0.15591 0-0.1435 0.09929-0.23271 0.09929-0.08998 0.26451-0.08998 0.1373 0 0.22417 0.07834 0.08688 0.07834 0.08688 0.20168 0 0.12023-0.06748 0.2009-0.06748 0.0799-0.18772 0.10394zm-0.09231-0.39715q-0.09153 0.01551-0.14428 0.07524-0.05197 0.05895-0.05197 0.14428 0 0.05275 0.01939 0.08765 0.01939 0.03413 0.03956 0.03413 0.02094 0 0.04344-0.03103 0.02327-0.03103 0.04809-0.11092 0.0256-0.0799 0.04577-0.19935z"/>
    <path d="m57.99 71.76 0.09308-0.03336q0.04577 0.07524 0.11868 0.13497 0.07679-0.06361 0.11946-0.14893h-0.35992v-0.08378h0.18772v-0.08765h-0.1691v0.05042h-0.06593v0.15591q7e-3 -0.0023 0.0605-0.02017l0.01319 0.08765q-0.02715 0.0093-0.07369 0.02405v0.1148q0 0.04654-0.0023 0.06904-0.0023 0.02327-0.01396 0.03801-0.01164 0.01474-0.0287 0.01707-0.01706 0.0031-0.05275 0.0031-0.01396 0-0.07369-0.0039l-0.0054-0.08377q0.05197 0.0039 0.06438 0.0039 0.0085 0 0.01008-0.0047 0.0023-0.0054 0.0023-0.0318v-0.09541q-0.03491 0.0085-0.07524 0.01706l-0.0062-0.09076q0.02249-0.0039 0.08145-0.01706v-0.18306h-0.08067v-0.0861h0.08067v-0.12489h0.10006v0.12489h0.03956v-0.05042h0.19547v-0.083h0.10627v0.083h0.19082v0.0861h-0.19082v0.08765h0.17298v0.08378q-0.05352 0.12023-0.14816 0.20401 0.07757 0.04654 0.17453 0.07834l-0.03258 0.0861q-0.11868-0.03491-0.2234-0.10472-0.09774 0.06128-0.23581 0.10472l-0.03878-0.0861q0.11325-0.03025 0.1978-0.07834-0.08067-0.07059-0.13187-0.15669z"/>
    <path d="m58.991 71.53q-0.02405-0.04421-0.05818-0.09774v0.09774zm-0.15669-0.14428h0.09851v0.03258l0.05895-0.03413q0.03413 0.04887 0.05973 0.09386v-0.07524h0.19315v0.08843h-0.18616q0.01319 0.02405 0.01629 0.02792l-0.03103 0.01474v0.04577h0.21099v0.08765h-0.0512v0.28313q0 0.0318-0.0016 0.05042-7.76e-4 0.01784-0.0062 0.03336-0.0047 0.01629-0.01086 0.02327-0.0062 7e-3 -0.02094 0.01241-0.01396 0.0054-0.03025 0.0062-0.01629 0.0016-0.04499 0.0016-0.03258 0-0.08533-0.0039l-0.0047-0.08843q0.04732 0.0039 0.07369 0.0039 0.02405 0 0.02793-0.0047 0.0047-0.0047 0.0047-0.0318v-0.28545h-0.07524q0.02792 0.11713 0.04887 0.27382l-0.08688 0.01629q-0.02172-0.16522-0.05352-0.29088l0.0861-0.02172v-0.03025h-0.09153v0.46696h-0.09851v-0.46696h-0.09463q-0.02948 0.05352-0.06904 0.10317v0.36845h-0.09619v-0.28545q-0.0287 0.03258-0.05197 0.05042l-0.02249-0.10394q0.05585-0.04266 0.09541-0.08765 0.04034-0.04577 0.08067-0.1117l0.04809 0.03258v-0.05042h0.11015zm-0.15591 0.60193q0.03801-0.16367 0.05042-0.3351l0.08688 0.0093q-0.01319 0.18772-0.05119 0.34984zm-0.13652-0.38319-0.03103-0.08843q0.09386-0.05818 0.16289-0.14738l0.06904 0.05352q-0.04887 0.06361-0.09463 0.10549-0.04577 0.04189-0.10627 0.07679z"/>
    <path d="m59.367 71.415 0.10162 0.01164q-0.03956 0.14583-0.04034 0.3064 0 0.16057 0.04034 0.30717l-0.10162 0.01163q-0.03956-0.15203-0.03956-0.31803 0-0.16677 0.03956-0.31881zm0.37776 0.12876q0.0016-0.07912 0.0062-0.13962l0.10084 7.75e-4q-0.0054 0.07447-0.0062 0.13032 0.07059-7e-3 0.13807-0.01629l0.0062 0.09308q-0.06904 0.0093-0.14428 0.01629 0 0.01163 0 0.02637 7.76e-4 0.01396 0.0016 0.0318 7.76e-4 0.01784 7.76e-4 0.0287 0.0016 0.03723 0.0031 0.1117 0.0543 0.04034 0.1404 0.12721l-0.06826 0.06283q-0.03956-0.03956-0.07679-0.07291-0.01241 0.05275-0.05275 0.0799-0.03956 0.02715-0.10317 0.02715-0.07912 0-0.12566-0.03801-0.04654-0.03878-0.04654-0.10472 0-0.06361 0.04577-0.10239 0.04654-0.03878 0.12644-0.03878 0.03025 0 0.05895 0.0078-0.0016-0.04266-0.0023-0.06361-7.75e-4 -0.0256-0.0023-0.07524-0.10317 7e-3 -0.20478 0.0078v-0.09308q0.10006 0 0.20478-7e-3zm0.0062 0.32967q-0.03025-0.01474-0.06593-0.01551-0.03335 0-0.05042 0.01396-0.01707 0.01319-0.01707 0.03646 0 0.0256 0.01707 0.03956 0.01784 0.01319 0.05042 0.01319 0.03491 0 0.05042-0.01706 0.01551-0.01784 0.01551-0.0574z"/>
    <path d="m60.087 71.907 0.07834-0.06671q0.07291 0.0799 0.15203 0.17763l-0.08222 0.0605q-0.06981-0.08688-0.14816-0.17143z"/>
    <path d="m60.742 71.678v0.06128h0.28158v-0.06128zm-0.15281 0.07214v0.18306h0.06283v-0.18306zm0-0.0861h0.06283v-0.16677h-0.06283zm0.60659 0.01396h-0.06981v0.06128h0.06981v0.08377h-0.06981v0.12954q0 0.03258-0.0016 0.0512-7.75e-4 0.01862-0.0062 0.03491-0.0054 0.01707-0.01241 0.02405-0.0062 7e-3 -0.02249 0.01241-0.01551 0.0054-0.03336 0.0062-0.01784 7.75e-4 -0.04964 7.75e-4 -0.02249 0-0.09618-0.0039l-0.0047-0.08455q0.06516 0.0039 0.08222 0.0039 0.03103 0 0.03646-0.0047 0.0054-0.0047 0.0054-0.03413v-0.13575h-0.1916q0.05507 0.05197 0.10782 0.11403l-0.06904 0.05973q-0.05585-0.06516-0.11325-0.11868l0.0605-0.05507h-0.07602v0.19547h-0.15281v0.04421h-0.09386v-0.65313h0.24667v0.18384h0.18074v-0.07136h-0.15126v-0.08145h0.15126v-0.07602h0.10239v0.07602h0.14505v0.08145h-0.14505v0.07136h0.17065z"/>
    <path d="m61.451 71.593v0.49334h-0.10084v-0.33665q-0.02793 0.04266-0.05197 0.06904l-0.04266-0.09929q0.11868-0.1404 0.15979-0.3413l0.09618 0.01862q-0.01784 0.10549-0.0605 0.19625zm0.20711-0.21176h0.10162q0 0.09774 7e-3 0.17841l0.21719-0.01939 0.0054 0.08765-0.21331 0.01939q0.0085 0.06283 0.02017 0.1179 0.01241 0.05507 0.02482 0.09308 0.01319 0.03723 0.0256 0.06516 0.01319 0.02792 0.02327 0.04111 0.01086 0.01241 0.01784 0.01241 0.0054 0 0.0093-0.0078 0.0047-0.0078 0.01086-0.03568 7e-3 -0.0287 0.01396-0.08145l0.0799 0.03413q-0.01008 0.10704-0.03878 0.15436-0.0287 0.04732-0.06749 0.04732-0.02637 0-0.05119-0.01163-0.02482-0.01086-0.05197-0.04111-0.02715-0.02948-0.04965-0.07602-0.02249-0.04732-0.04189-0.12489-0.01862-0.07757-0.02948-0.17686l-0.18616 0.01707-0.0062-0.08843 0.18461-0.01707q-0.0054-0.07834-0.0054-0.18772zm0.13109 0.04034 0.06438-0.05818q0.05507 0.04577 0.11868 0.1148l-0.06438 0.05662q-0.05585-0.05895-0.11868-0.11325z"/>
    <path d="m62.585 71.532 0.0256 0.09541q-0.41965 0.11248-0.41965 0.22495 0 0.08998 0.16445 0.08998 0.10549 0 0.24357-0.02405l0.01396 0.09851q-0.13574 0.02405-0.26761 0.02405-0.12799 0-0.1978-0.04887-0.06981-0.04887-0.06981-0.1373 0-0.10084 0.13807-0.18229-0.02793-0.12411-0.05119-0.26141l0.10937-0.01474q0.02172 0.12954 0.04266 0.22495 0.10472-0.04499 0.26839-0.0892z"/>
    <path d="m63.221 71.532 0.0256 0.09541q-0.41965 0.11248-0.41965 0.22495 0 0.08998 0.16445 0.08998 0.10549 0 0.24357-0.02405l0.01396 0.09851q-0.13574 0.02405-0.26761 0.02405-0.12799 0-0.1978-0.04887-0.06981-0.04887-0.06981-0.1373 0-0.10084 0.13807-0.18229-0.02792-0.12411-0.0512-0.26141l0.10937-0.01474q0.02172 0.12954 0.04266 0.22495 0.10472-0.04499 0.26839-0.0892z"/>
    <path d="m63.549 71.386h0.1086q-7.76e-4 0.05662-0.0047 0.1117 0.12954-0.0016 0.23736-0.01086v0.08998q-0.12411 0.01086-0.24279 0.01086l-0.0023 0.03335-0.0047 0.07136q0.10549-0.0031 0.18694-0.0093v0.08998q-0.09851 0.0078-0.1916 0.01008-0.0016 0.04887-0.0016 0.07136 0 0.0605 0.02405 0.0861 0.02405 0.02482 0.08145 0.02482 0.0799 0 0.11713-0.02637 0.03801-0.02715 0.03801-0.08455 0-0.03103-0.01396-0.0892l0.10317-0.01474q0.01474 0.05818 0.01551 0.1117 0 0.09308-0.06283 0.14505-0.06283 0.0512-0.19702 0.0512-0.11403 0-0.16445-0.04732-0.05042-0.04809-0.05042-0.15669 0-0.02249 0.0016-0.07136-0.09076-0.0023-0.17608-0.01008l0.0054-0.08998q0.08533 0.0078 0.17608 0.01008 0.0031-0.04732 0.0047-0.07214 0-0.0054 7.75e-4 -0.01707 7.76e-4 -0.01163 0.0016-0.01707-0.06826-0.0023-0.15979-0.01008l0.0062-0.08998q0.07757 7e-3 0.15979 0.0093 0.0023-0.03646 0.0039-0.11015z"/>
    <path d="m64.71 71.993q-0.09463 0.02405-0.18539 0.02405-0.10472 0-0.16367-0.03956-0.05895-0.03956-0.05895-0.1117 0-0.03801 0.0287-0.08455t0.07757-0.08455l0.07214 0.05973q-0.07292 0.06516-0.07292 0.10627 0 0.05585 0.11713 0.05585 0.07834 0 0.17143-0.02094zm-0.3638-0.49024q0.15979 0 0.34208-0.02327l0.0054 0.09541q-0.18616 0.02405-0.34751 0.02327zm-0.10317-0.076017q-0.03956 0.14583-0.03956 0.3064 0 0.16057 0.03956 0.30717l-0.10549 0.01163q-0.03956-0.15203-0.03956-0.31881 0-0.16677 0.03956-0.31803z"/>
    <path d="m65.253 71.671h-0.10472v0.05585h0.10472zm-0.10472-0.12644v0.05352h0.10472v-0.05352zm0.2009 0.05352h0.12489v0.07291h-0.12489v0.05585h0.12489v0.07292h-0.12489v0.05662h0.15126v0.08145h-0.453v-0.25055l-0.07757-0.04654q0.08222-0.12566 0.12411-0.26916l0.09386 0.01241q-0.0062 0.03025-0.02017 0.07834h0.10162q0.01551-0.04654 0.0256-0.09076l0.09308 0.01008q-0.0078 0.03413-0.0225 0.08067h0.12334v0.08222h-0.13962zm-0.2009 0.2583h0.10472v-0.05662h-0.10472zm-0.13574-0.31648-0.06593 0.05973q-0.05663-0.06361-0.13497-0.14195l0.06826-0.06128q0.07136 0.07369 0.13264 0.1435zm-0.20711 0.13419h0.18306v0.24046q0.01862 0.03258 0.04576 0.04732 0.02715 0.01474 0.08765 0.02172 0.0605 0.0062 0.17996 0.0062h0.20944l-0.0047 0.0861h-0.20556q-0.15514 0-0.23348-0.01629-0.07834-0.01551-0.11713-0.05585-0.04266 0.03956-0.11015 0.08455l-0.04654-0.08145q0.05585-0.03568 0.09618-0.07136v-0.17608h-0.08455z"/>
    <path d="m65.808 71.59v0.49566h-0.10472v-0.35294q-0.04189 0.0605-0.07679 0.09386l-0.04654-0.09774q0.07447-0.07136 0.12178-0.15436 0.04732-0.08377 0.07524-0.19702l0.09463 0.01474q-0.02017 0.10937-0.06361 0.1978zm0.12411-0.19935h0.10472v0.2265q0.10394-0.05662 0.21331-0.15204l0.06283 0.07214q-0.13962 0.12023-0.27614 0.18616v0.21874q0 0.02948 0.0031 0.03568 0.0039 0.0054 0.02249 7e-3 0.0225 0.0023 0.04887 0.0023 0.02327 0 0.04887-0.0023 0.02948-0.0031 0.03568-0.02948 7e-3 -0.02637 0.01163-0.17065l0.09851 0.01086q-0.0023 0.06749-0.0054 0.10782-0.0023 0.03956-0.0078 0.07292-0.0054 0.03335-0.01164 0.04809-0.0054 0.01551-0.01939 0.02637-0.01319 0.01163-0.02715 0.01474-0.01396 0.0039-0.04034 0.0062-0.03335 0.0039-0.0799 0.0039-0.04344 0-0.08145-0.0023-0.06748-0.0039-0.08455-0.02405-0.01629-0.01939-0.01629-0.09541z"/>
    <path d="m66.407 71.408h0.1086q0 0.04499-0.0054 0.2009-0.0054 0.15514-0.0054 0.19625 0 0.08377 0.02792 0.12101 0.0287 0.03723 0.0861 0.03723 0.06904 0 0.12876-0.0543 0.0605-0.0543 0.11403-0.17686l0.09386 0.04189q-0.11713 0.28778-0.33665 0.287-0.11092 0-0.16677-0.05818-0.05507-0.05818-0.05507-0.1978 0-0.05895 0.0047-0.19237 0.0054-0.15746 0.0054-0.20478z"/>
    <path d="m67.051 71.907 0.07835-0.06671q0.07291 0.0799 0.15204 0.17763l-0.08222 0.0605q-0.06981-0.08688-0.14816-0.17143z"/>
    <path d="m53.449 72.619v0.05042h-0.40956v-0.05042q-0.06361 0.04111-0.12799 0.07369l-0.04033-0.08533q0.1753-0.09386 0.30717-0.21797h0.13187q0.13187 0.12489 0.30717 0.21797l-0.04034 0.08533q-0.06438-0.03258-0.12799-0.07369zm-0.04964-0.03413q-0.08377-0.05973-0.15514-0.12954-0.07136 0.06981-0.15514 0.12954zm-0.45843 0.23503v-0.08688h0.60659v0.08688q-0.1373 0.1691-0.35914 0.27925l-0.05275-0.07912q0.17841-0.0892 0.287-0.20013z"/>
    <path d="m53.692 72.493q0.29554 0 0.63219-0.04266l0.0085 0.09463q-0.166 0.02172-0.25287 0.08533-0.0861 0.06283-0.0861 0.14816 0 0.07834 0.06361 0.12721 0.06361 0.04809 0.18229 0.05585l-0.01086 0.09774q-0.16212-0.0078-0.25365-0.07912-0.09153-0.07136-0.09153-0.18539 0-0.06749 0.03723-0.12566 0.03723-0.05895 0.10549-0.09851v-0.0016q-0.18617 0.02327-0.33432 0.02327zm0.59418 0.28545-0.08222 0.03956q-0.03103-0.06283-0.06749-0.12644l0.08222-0.04111q0.03646 0.06671 0.06748 0.12799zm0.12876-0.02482-0.08377 0.03956q-0.03568-0.06904-0.06904-0.12876l0.083-0.04189q0.02948 0.05197 0.06981 0.13109z"/>
    <path d="m54.531 72.423 0.10162 0.01164q-0.03956 0.14583-0.04034 0.3064 0 0.16057 0.04034 0.30717l-0.10162 0.01164q-0.03956-0.15204-0.03956-0.31803 0-0.16677 0.03956-0.31881zm0.37776 0.12876q0.0016-0.07912 0.0062-0.13962l0.10084 7.75e-4q-0.0054 0.07447-0.0062 0.13032 0.07059-7e-3 0.13807-0.01629l0.0062 0.09308q-0.06904 0.0093-0.14428 0.01629 0 0.01163 0 0.02637 7.76e-4 0.01396 0.0016 0.0318 7.76e-4 0.01784 7.76e-4 0.0287 0.0016 0.03723 0.0031 0.1117 0.0543 0.04034 0.1404 0.12721l-0.06826 0.06283q-0.03956-0.03956-0.07679-0.07291-0.01241 0.05275-0.05275 0.0799-0.03956 0.02715-0.10317 0.02715-0.07912 0-0.12566-0.03801-0.04654-0.03878-0.04654-0.10472 0-0.06361 0.04577-0.10239 0.04654-0.03878 0.12644-0.03878 0.03025 0 0.05895 0.0078-0.0016-0.04266-0.0023-0.06361-7.76e-4 -0.0256-0.0023-0.07524-0.10317 7e-3 -0.20478 0.0078v-0.09308q0.10006 0 0.20478-7e-3zm0.0062 0.32967q-0.03025-0.01474-0.06593-0.01551-0.03336 0-0.05042 0.01396-0.01706 0.01319-0.01706 0.03646 0 0.0256 0.01706 0.03956 0.01784 0.01319 0.05042 0.01319 0.03491 0 0.05042-0.01706 0.01551-0.01784 0.01551-0.0574z"/>
    <path d="m55.285 73.028v-0.58022h0.12256v0.58022z"/>
    <path d="m55.957 72.447v0.09231h-0.15824v0.48791h-0.11248v-0.48791h-0.15824v-0.09231z"/>
    <path d="m56.301 72.769 0.09308-0.03336q0.04577 0.07524 0.11868 0.13497 0.07679-0.06361 0.11946-0.14893h-0.35992v-0.08378h0.18772v-0.08765h-0.1691v0.05042h-0.06593v0.15591q7e-3 -0.0023 0.0605-0.02017l0.01319 0.08765q-0.02715 0.0093-0.07369 0.02405v0.1148q0 0.04654-0.0023 0.06904-0.0023 0.02327-0.01396 0.03801-0.01163 0.01474-0.0287 0.01707-0.01707 0.0031-0.05275 0.0031-0.01396 0-0.07369-0.0039l-0.0054-0.08377q0.05197 0.0039 0.06438 0.0039 0.0085 0 0.01008-0.0047 0.0023-0.0054 0.0023-0.0318v-0.09541q-0.03491 0.0085-0.07524 0.01707l-0.0062-0.09076q0.02249-0.0039 0.08145-0.01707v-0.18306h-0.08067v-0.0861h0.08067v-0.12489h0.10006v0.12489h0.03956v-0.05042h0.19547v-0.083h0.10627v0.083h0.19082v0.0861h-0.19082v0.08765h0.17298v0.08378q-0.05352 0.12023-0.14816 0.20401 0.07757 0.04654 0.17453 0.07834l-0.03258 0.0861q-0.11868-0.03491-0.2234-0.10472-0.09774 0.06128-0.23581 0.10472l-0.03878-0.0861q0.11325-0.03025 0.1978-0.07834-0.08067-0.07059-0.13187-0.15669z"/>
    <path d="m57.301 72.538q-0.02405-0.04421-0.05818-0.09774v0.09774zm-0.15669-0.14428h0.09851v0.03258l0.05895-0.03413q0.03413 0.04887 0.05973 0.09386v-0.07524h0.19315v0.08843h-0.18616q0.01319 0.02405 0.01629 0.02792l-0.03103 0.01474v0.04577h0.21099v0.08765h-0.05119v0.28313q0 0.0318-0.0016 0.05042-7.76e-4 0.01784-0.0062 0.03336-0.0047 0.01629-0.01086 0.02327-0.0062 7e-3 -0.02094 0.01241-0.01396 0.0054-0.03025 0.0062-0.01629 0.0016-0.04499 0.0016-0.03258 0-0.08533-0.0039l-0.0047-0.08843q0.04732 0.0039 0.07369 0.0039 0.02405 0 0.02792-0.0047 0.0047-0.0047 0.0047-0.0318v-0.28545h-0.07524q0.02792 0.11713 0.04887 0.27382l-0.08688 0.01629q-0.02172-0.16522-0.05352-0.29088l0.0861-0.02172v-0.03025h-0.09153v0.46696h-0.09851v-0.46696h-0.09463q-0.02948 0.05352-0.06904 0.10317v0.36845h-0.09618v-0.28546q-0.0287 0.03258-0.05197 0.05042l-0.02249-0.10394q0.05585-0.04266 0.09541-0.08765 0.04034-0.04577 0.08067-0.1117l0.04809 0.03258v-0.05042h0.11015zm-0.15591 0.60193q0.03801-0.16367 0.05042-0.3351l0.08688 0.0093q-0.01319 0.18772-0.0512 0.34984zm-0.13652-0.38319-0.03103-0.08843q0.09386-0.05818 0.1629-0.14738l0.06904 0.05352q-0.04887 0.06361-0.09463 0.10549-0.04577 0.04189-0.10627 0.07679z"/>
    <path d="m58.029 72.956q0.0861-0.02017 0.13264-0.07524 0.04654-0.05585 0.04654-0.13962 0-0.07447-0.04499-0.12411-0.04499-0.04964-0.12023-0.0605-0.0318 0.23038-0.09541 0.33898-0.06361 0.10782-0.14971 0.10782-0.0605 0-0.11015-0.06361-0.04887-0.06438-0.04887-0.15591 0-0.1435 0.09929-0.23271 0.09929-0.08998 0.26451-0.08998 0.1373 0 0.22417 0.07834 0.08688 0.07834 0.08688 0.20168 0 0.12023-0.06748 0.2009-0.06749 0.0799-0.18772 0.10394zm-0.09231-0.39715q-0.09153 0.01551-0.14428 0.07524-0.05197 0.05895-0.05197 0.14428 0 0.05275 0.01939 0.08765 0.01939 0.03413 0.03956 0.03413 0.02094 0 0.04344-0.03103 0.02327-0.03103 0.04809-0.11092 0.0256-0.0799 0.04577-0.19935z"/>
    <path d="m59.045 72.938 0.01163 0.08998q-0.08532 0.02172-0.15902 0.02172-0.11403 0-0.16367-0.03025-0.04887-0.03025-0.04887-0.0892 0-0.03413 0.02249-0.07291 0.02249-0.03956 0.06361-0.07447l0.07679 0.04577q-0.05973 0.05585-0.05973 0.0861 0 0.02327 0.0256 0.03413 0.0256 0.01008 0.08377 0.01008 0.05895 0 0.14738-0.02094zm-0.01241-0.21952q-0.1466 0-0.28856 0.0256l-0.0085-0.0892q0.1435-0.02637 0.29709-0.02637zm-0.35371-0.21642q0.10239-0.0078 0.21564-0.0225l0.0085 0.08998q-0.12411 0.01706-0.24589 0.02482-0.05507 0.23271-0.14428 0.47705l-0.09774-0.0287q0.08688-0.23271 0.1373-0.44214-0.04034 0.0023-0.12334 0.0039v-0.09076q0.07214-0.0016 0.14505-0.0047 0.0047-0.02094 0.02637-0.12799l0.10084 0.0093q-0.01396 0.07059-0.02249 0.1117z"/>
    <path d="m59.237 72.445 0.09541-0.02172q0.01319 0.0605 0.03025 0.12334 0.07912-0.03336 0.17143-0.03336 0.0093 0 0.03025 0.0023 0.01784-0.05895 0.03025-0.12411l0.10084 0.01706q-0.01164 0.05818-0.0318 0.12799 0.0799 0.03103 0.12566 0.09774 0.04654 0.06593 0.04654 0.15514 0 0.1117-0.07214 0.18306-0.07136 0.07059-0.20556 0.09231l-0.02482-0.09076q0.09774-0.01474 0.14971-0.06283 0.05197-0.04809 0.05197-0.12178 0-0.12333-0.09851-0.166-0.06671 0.19392-0.15746 0.29399-0.08998 0.10006-0.18306 0.10006-0.05973 0-0.09929-0.05042-0.03878-0.05042-0.03878-0.13574 0-0.1404 0.11946-0.23503-0.02172-0.07524-0.04034-0.15126zm0.20401 0.35604q0.05275-0.0799 0.09463-0.19702h-0.0016q-0.0799 0-0.14583 0.0318 0.02249 0.07912 0.05275 0.16522zm-0.06904 0.08455q-0.04344-0.12023-0.06516-0.18927-0.0543 0.06128-0.05352 0.13497 0 0.04033 0.01474 0.06438 0.01551 0.02327 0.03568 0.02327 0.03025 0 0.06826-0.03335z"/>
    <path d="m60.546 73.001q-0.09463 0.02405-0.18539 0.02405-0.10472 0-0.16367-0.03956-0.05895-0.03956-0.05895-0.1117 0-0.03801 0.0287-0.08455t0.07757-0.08455l0.07214 0.05973q-0.07292 0.06516-0.07292 0.10627 0 0.05585 0.11713 0.05585 0.07834 0 0.17143-0.02094zm-0.3638-0.49024q0.15979 0 0.34208-0.02327l0.0054 0.09541q-0.18616 0.02405-0.34751 0.02327zm-0.10317-0.07602q-0.03956 0.14583-0.03956 0.3064 0 0.16057 0.03956 0.30717l-0.10549 0.01164q-0.03956-0.15204-0.03956-0.31881t0.03956-0.31803z"/>
    <path d="m60.721 72.51h0.21952v-0.1148h0.10627v0.1148h0.23348v0.09076q-0.05042 0.07214-0.14195 0.13419 0.13419 0.08921 0.20944 0.14195l-0.06128 0.07834q-0.11325-0.08145-0.23969-0.16212v0.28002h-0.10627v-0.23814q-0.1179 0.04577-0.26451 0.07834l-0.02637-0.09308q0.36535-0.07757 0.48868-0.21952h-0.41732z"/>
    <path d="m61.966 72.585q-0.02017 0.22185-0.11092 0.32579-0.09076 0.10394-0.29166 0.13962l-0.02017-0.0799q0.16677-0.03103 0.24046-0.1179 0.07369-0.08688 0.08998-0.27304zm-0.51583 0.03258 0.083-0.02172q0.02792 0.09386 0.05275 0.19547l-0.083 0.02017q-0.03258-0.12644-0.05275-0.19392zm0.16057-0.03413 0.08455-0.02172q0.03025 0.10394 0.05352 0.20168l-0.08455 0.02172q-0.02637-0.10549-0.05352-0.20168z"/>
    <path d="m62.063 72.422h0.10782v0.21719q0.18539 0.04887 0.35371 0.12411l-0.03646 0.08998q-0.15669-0.06826-0.31726-0.11325v0.32191h-0.10782z"/>
    <path d="m62.624 72.454h0.58254v0.1373q0 0.21099-0.11092 0.32656-0.11092 0.1148-0.32656 0.12876l-0.01396-0.09231q0.17608-0.01319 0.26063-0.10239 0.08533-0.0892 0.08533-0.26063v-0.04809h-0.37388v0.18306h-0.10317z"/>
    <path d="m63.305 72.795v-0.10627h0.63141v0.10627z"/>
    <path d="m64.106 73.054-0.01939-0.09231q0.20401-0.02249 0.30329-0.11015 0.09929-0.08843 0.11946-0.26063h-0.24822q-0.04732 0.10704-0.15359 0.21099l-0.06981-0.06206q0.14118-0.14583 0.16832-0.32967l0.10084 0.0062q-0.0054 0.05275-0.01474 0.08455h0.32424v0.08998q-0.02482 0.21409-0.14428 0.32346-0.11946 0.10937-0.36612 0.13962z"/>
    <path d="m64.925 72.384 0.10394 0.01939q-0.01862 0.05507-0.02792 0.0799 0.10627-0.0039 0.28158-0.01706l0.0031 0.08765q-0.16057 0.01241-0.32114 0.01707-0.01163 0.02715-0.03491 0.06981l7.76e-4 7.76e-4q0.04499-0.02482 0.08998-0.02405 0.04887 0 0.08067 0.01862 0.03258 0.01862 0.05042 0.06206 0.0861-0.02482 0.17918-0.03801l0.01086 0.08843q-0.0892 0.01319-0.16832 0.03801 0.0062 0.05352 0.0062 0.11946h-0.10317q0-0.04809-0.0023-0.08222-0.0543 0.0256-0.08377 0.05275-0.02948 0.02637-0.02948 0.04809 0 0.02793 0.03103 0.04189 0.03103 0.01319 0.1086 0.01319 0.07447 0 0.19315-0.01862l0.0085 0.09076q-0.09929 0.01551-0.20168 0.01551-0.25132 0-0.25132-0.13497 0-0.05275 0.05275-0.10549 0.05352-0.05275 0.15281-0.09463-0.01784-0.03568-0.05973-0.03568-0.03723 0-0.08998 0.03878-0.05275 0.03801-0.10627 0.1117l-0.08145-0.04887q0.08998-0.12489 0.1373-0.22417-0.04421 7.76e-4 -0.13574 7.76e-4v-0.08688q0.11713 0 0.17298-0.0016 0.01163-0.03103 0.03335-0.10239z"/>
    <path d="m65.804 72.605v0.0861h-0.11092q0.04344 0.06671 0.12023 0.19004l-0.07059 0.0543q-0.03258-0.06749-0.07834-0.15204v0.31105h-0.09619v-0.26451q-0.03646 0.09929-0.09696 0.17375l-0.05275-0.08532q0.08843-0.10472 0.12644-0.22728h-0.11092v-0.0861h0.13419v-0.10317q-0.06283 0.0062-0.1179 0.0085l-0.0085-0.0799q0.1691-0.0085 0.33277-0.04344l0.02637 0.07679q-0.07834 0.01939-0.13652 0.02715v0.11403zm0.03801 0.31881v-0.49334h0.09463v0.49334zm0.18539-0.52436h0.10006v0.56315q0 0.04654-0.0031 0.06904-0.0023 0.02327-0.01551 0.03723-0.01241 0.01474-0.0318 0.01784-0.01862 0.0031-0.05895 0.0031-0.01008 0-0.11558-0.0039l-0.0047-0.09153q0.06981 0.0039 0.09851 0.0039 0.02172 0 0.02637-0.0047 0.0047-0.0047 0.0047-0.03103z"/>
    <path d="m66.54 72.672h-0.14893v0.06206q0 0.03568-7.75e-4 0.05275h0.14971zm0.09929 0v0.1148h0.16988v-0.1148zm-0.09929-0.07912v-0.10627h-0.14893v0.10627zm0.09929 0h0.16988v-0.10627h-0.16988zm-0.34984-0.19082h0.62055v0.56548q0 0.04732-0.0031 0.06981-0.0023 0.0225-0.01629 0.03723-0.01396 0.01474-0.03491 0.01707-0.02017 0.0031-0.06516 0.0031-0.02017 0-0.10162-0.0039l-0.0047-0.08532q0.06128 0.0031 0.08843 0.0031 0.02637 0 0.03103-0.0047 0.0054-0.0047 0.0054-0.03103v-0.10782h-0.16988v0.21099h-0.09929v-0.21092h-0.15584q-0.01551 0.1373-0.08765 0.23503l-0.08377-0.06749q0.04421-0.06438 0.0605-0.13575 0.01629-0.07136 0.01629-0.20633z"/>
    <path d="m52.904 73.425h0.1086q0 0.04499-0.0054 0.2009-0.0054 0.15514-0.0054 0.19625 0 0.08377 0.02792 0.12101 0.0287 0.03723 0.0861 0.03723 0.06904 0 0.12876-0.0543 0.0605-0.0543 0.11403-0.17686l0.09386 0.04189q-0.11713 0.28778-0.33665 0.287-0.11092 0-0.16677-0.05818-0.05507-0.05818-0.05507-0.1978 0-0.05895 0.0047-0.19237 0.0054-0.15746 0.0054-0.20478z"/>
    <path d="m53.554 73.509q0.29554 0 0.63296-0.04266l0.0085 0.09541q-0.16522 0.02094-0.2521 0.083-0.08688 0.06128-0.08688 0.14195 0 0.07447 0.06283 0.12101 0.06361 0.04654 0.18306 0.0543l-0.01086 0.09774q-0.16134-0.0078-0.25365-0.07757-0.09153-0.06981-0.09153-0.17918 0-0.06283 0.03646-0.11946 0.03723-0.0574 0.10627-0.09696v-0.0016q-0.18617 0.02327-0.3351 0.02327z"/>
    <path d="m54.721 73.53 0.09851-0.03491q0.10394 0.19625 0.12334 0.45378l-0.10317 0.0062q-0.01008-0.12799-0.03801-0.22728-0.02792-0.10006-0.08067-0.1978zm-0.29709-0.03568q-0.02094 0.10627-0.02094 0.21874 0 0.10006 0.02637 0.16212 0.02637 0.06206 0.0543 0.06206 0.01164 0 0.02482-0.01707 0.01396-0.01707 0.0287-0.05973 0.01551-0.04344 0.02948-0.10782l0.10006 0.01784q-0.0287 0.14118-0.07524 0.20633-0.04654 0.06516-0.10472 0.06516-0.07757 0-0.13419-0.08765-0.05585-0.08843-0.05585-0.24124 0-0.1117 0.02094-0.22805z"/>
    <path d="m55.136 73.454q0.21564 0 0.44214-0.01707l0.01551 0.11558q-0.02948 0.02094-0.06671 0.04266-0.03646 0.02172-0.08843 0.0512-0.05197 0.0287-0.07602 0.04189v0.0023q0.03801-0.0093 0.07757-0.01008 0.09851 0 0.15436 0.04887 0.05662 0.04887 0.05662 0.13032 0 0.09851-0.08145 0.15746-0.08067 0.05895-0.22262 0.05895-0.09541 0-0.14893-0.03646-0.05275-0.03568-0.05275-0.09619 0-0.04809 0.04577-0.08145 0.04577-0.03413 0.11713-0.03413 0.07757 0 0.1179 0.03103 0.04111 0.03025 0.04111 0.08455 0 0.01319-0.0023 0.02792 0.0799-0.03413 0.08067-0.10704 0-0.10782-0.16289-0.10782-0.06128 0-0.12721 0.02094-0.06516 0.02017-0.17531 0.07524l-0.03723-0.083q0.23658-0.12256 0.41654-0.23891l-7.76e-4 -7.76e-4q-0.16832 0.02017-0.32269 0.01939zm0.23193 0.53755q0.0062-0.02405 0.0062-0.04034 0-0.04732-0.06593-0.04732-0.03258 0-0.05042 0.01163-0.01707 0.01086-0.01707 0.02715 0 0.04809 0.1086 0.04887z"/>
    <path d="m56.259 73.549 0.0256 0.09541q-0.41965 0.11248-0.41965 0.22495 0 0.08998 0.16445 0.08998 0.10549 0 0.24357-0.02405l0.01396 0.09851q-0.13575 0.02405-0.26761 0.02405-0.12799 0-0.1978-0.04887-0.06981-0.04887-0.06981-0.1373 0-0.10084 0.13807-0.18229-0.02792-0.12411-0.05119-0.26141l0.10937-0.01474q0.02172 0.12954 0.04266 0.22495 0.10472-0.04499 0.26839-0.08921z"/>
    <path d="m56.456 73.56 7e-3 -0.09541q0.1435 0.01784 0.26218 0.01707 0.09231 0 0.16832-0.0054l0.0031 0.09541q-0.09774 0.0054-0.17143 0.0054-0.13342 7.76e-4 -0.26916-0.01707zm0.49256 0.36768 0.01707 0.09851q-0.1404 0.03646-0.25753 0.03646-0.16057 0-0.24046-0.04499-0.0799-0.04577-0.0799-0.12644 0-0.08843 0.14195-0.20711l0.07292 0.06516q-0.10317 0.09153-0.10317 0.13575 0 0.03646 0.0512 0.05818 0.05197 0.02172 0.15746 0.02172 0.10162 0 0.24046-0.03723z"/>
    <path d="m57.155 73.462q0.21564 0 0.44214-0.01784l0.01551 0.11635q-0.09619 0.07214-0.21797 0.14428l7.76e-4 0.0016q0.04034-0.01319 0.07757-0.01319 0.09774 0 0.14893 0.04421 0.05119 0.04421 0.05119 0.12566 0 0.10006-0.07679 0.15281-0.07602 0.05197-0.22262 0.05197-0.09231 0-0.18074-0.02405l0.01939-0.09541q0.09153 0.02405 0.16134 0.02405 0.09618 0 0.14428-0.0287 0.04887-0.02948 0.04887-0.08377 0-0.08765-0.13109-0.08765-0.05197 0-0.12178 0.02405-0.06904 0.02327-0.20633 0.09153l-0.03956-0.08145q0.19858-0.1117 0.41344-0.26839l-7.75e-4 -7.76e-4q-0.1691 0.02017-0.32579 0.02017z"/>
    <path d="m57.972 73.403h0.1086q-7.76e-4 0.05662-0.0047 0.1117 0.12954-0.0016 0.23736-0.01086v0.08998q-0.12411 0.01086-0.24279 0.01086l-0.0023 0.03336-0.0047 0.07136q0.10549-0.0031 0.18694-0.0093v0.08998q-0.09851 0.0078-0.1916 0.01008-0.0016 0.04887-0.0016 0.07136 0 0.0605 0.02405 0.0861 0.02405 0.02482 0.08145 0.02482 0.0799 0 0.11713-0.02637 0.03801-0.02715 0.03801-0.08455 0-0.03103-0.01396-0.0892l0.10317-0.01474q0.01474 0.05818 0.01551 0.1117 0 0.09308-0.06283 0.14505-0.06283 0.0512-0.19702 0.0512-0.11403 0-0.16445-0.04732-0.05042-0.04809-0.05042-0.15669 0-0.02249 0.0016-0.07136-0.09076-0.0023-0.17608-0.01008l0.0054-0.08998q0.08533 0.0078 0.17608 0.01008 0.0031-0.04732 0.0047-0.07214 0-0.0054 7.76e-4 -0.01707 7.76e-4 -0.01163 0.0016-0.01707-0.06826-0.0023-0.15979-0.01008l0.0062-0.08998q0.07757 7e-3 0.15979 0.0093 0.0023-0.03646 0.0039-0.11015z"/>
    <path d="m58.618 73.846q0.11015-0.03413 0.20788-0.08688 0.09774-0.05352 0.14583-0.10239l0.09153 0.02793q-0.01163 0.01319-0.02792 0.02792h0.19392v0.07679q-0.07447 0.12644-0.22417 0.20866-0.14971 0.08222-0.36225 0.11248l-0.02792-0.08533q0.15746-0.02094 0.27847-0.07291-0.03335-0.0318-0.06516-0.05973l0.06904-0.05973q0.0543 0.04887 0.08067 0.07602 0.0861-0.0512 0.1435-0.11946h-0.18539q-0.13032 0.08688-0.27149 0.13342zm-0.09463-0.29786q0.10549-0.03491 0.19392-0.08145 0.08843-0.04654 0.13264-0.08998l0.08843 0.03025q-0.01396 0.01551-0.02948 0.0287h0.18616v0.07136q-0.07059 0.11635-0.21021 0.19237-0.13962 0.07602-0.33742 0.10317l-0.02715-0.0799q0.14738-0.02094 0.25753-0.06593-0.01086-0.01008-0.0318-0.0287-0.02017-0.01939-0.03025-0.02792l0.06671-0.05507q0.02482 0.02172 0.07757 0.07059 0.08067-0.04654 0.13187-0.1086h-0.17996q-0.1179 0.07524-0.24589 0.11713z"/>
    <path d="m59.762 73.477q-0.21331 0.17608-0.28158 0.21874-0.02948 0.01862-0.03568 0.02482-0.0062 0.0054-0.0062 0.01396 0 0.0085 0.0054 0.01396 0.0054 0.0054 0.03336 0.02405 0.07834 0.05275 0.31183 0.25132l-0.07447 0.07524q-0.22883-0.20323-0.31648-0.25986-0.05585-0.03568-0.06904-0.05197-0.01241-0.01629-0.01241-0.05275t0.01319-0.05197q0.01319-0.01629 0.07447-0.05662 0.08377-0.05507 0.28468-0.22417z"/>
    <path d="m60.063 73.398 0.09774 0.01164q-0.01939 0.0892-0.02094 0.10084 0.05352-0.0054 0.11868-0.01396l7e-3 0.0892q-0.07912 0.01086-0.14893 0.01707-0.04654 0.17918-0.12799 0.37854l-0.09463-0.0287q0.07524-0.18772 0.11946-0.3444-0.06206 0.0016-0.09541 0.0016v-0.08998q0.06128 0 0.11946-0.0023 0.01319-0.0543 0.0256-0.11946zm0.26994 0.17763 0.03025-0.08998q0.12256 0.03103 0.23658 0.07757l-0.03413 0.08843q-0.1086-0.04421-0.23271-0.07602zm0.08843 0.26218q0.06593 0.03956 0.15746 0.12023l-0.06206 0.07292q-0.04809-0.04421-0.09619-0.08145-0.0085 0.06671-0.04809 0.09618-0.03878 0.03025-0.11635 0.03025-0.08222 0-0.12954-0.03878t-0.04732-0.10627q0-0.06516 0.04654-0.10394 0.04732-0.03956 0.13032-0.03956 0.03413 0 0.06206 7e-3 -0.0031-0.09308 0.0031-0.14505l0.10162 7.76e-4q-0.0062 0.05042-0.0016 0.17298zm-0.10084 0.05197q-0.03491-0.01396-0.06904-0.01474-0.03258 0-0.05119 0.01551-0.01784 0.01551-0.01784 0.04034 0 0.02792 0.01784 0.04344 0.01862 0.01474 0.05119 0.01474 0.04111 0 0.05507-0.01629 0.01474-0.01707 0.01474-0.06904 0-0.0016-7.76e-4 -0.0062 0-0.0047 0-0.0078z"/>
    <path d="m60.7 73.672q0.03801-0.0078 0.09696-0.02327 0.13807-0.03491 0.21409-0.03491 0.10239 0 0.15902 0.04732 0.0574 0.04654 0.0574 0.12799 0 0.11325-0.08533 0.17375-0.08533 0.05973-0.29011 0.0799l-0.01474-0.09308q0.16212-0.01551 0.22495-0.0512 0.06283-0.03646 0.06283-0.10472 0-0.04033-0.0318-0.06283-0.0318-0.02327-0.09153-0.02327-0.07136 0-0.19547 0.03413-0.0543 0.01474-0.0892 0.02327z"/>
    <path d="m61.328 73.509q0.29554 0 0.63296-0.04266l0.0085 0.09541q-0.16522 0.02094-0.2521 0.083-0.08688 0.06128-0.08688 0.14195 0 0.07447 0.06283 0.12101 0.06361 0.04654 0.18306 0.0543l-0.01086 0.09774q-0.16134-0.0078-0.25365-0.07757-0.09153-0.06981-0.09153-0.17918 0-0.06283 0.03646-0.11946 0.03723-0.0574 0.10627-0.09696v-0.0016q-0.18617 0.02327-0.3351 0.02327z"/>
    <path d="m62.495 73.53 0.09851-0.03491q0.10394 0.19625 0.12333 0.45378l-0.10317 0.0062q-0.01008-0.12799-0.03801-0.22728-0.02793-0.10006-0.08067-0.1978zm-0.29709-0.03568q-0.02094 0.10627-0.02094 0.21874 0 0.10006 0.02637 0.16212 0.02637 0.06206 0.0543 0.06206 0.01164 0 0.02482-0.01707 0.01396-0.01707 0.0287-0.05973 0.01551-0.04344 0.02948-0.10782l0.10006 0.01784q-0.0287 0.14118-0.07524 0.20633-0.04654 0.06516-0.10472 0.06516-0.07757 0-0.13419-0.08765-0.05585-0.08843-0.05585-0.24124 0-0.1117 0.02094-0.22805z"/>
    <path d="m63.117 73.906q-0.04344-0.01707-0.07912-0.01629-0.07679 0-0.07757 0.04577 0 0.0512 0.07757 0.05042 0.04577 0 0.06206-0.01629 0.01707-0.01629 0.01707-0.06361zm-0.0016-0.09231-0.0023-0.06904v-7e-3q-0.13109 7e-3 -0.26373 7e-3v-0.08377q0.1179 0 0.26063-0.0085-7.75e-4 -0.02327-7.75e-4 -0.06904-0.16522 0.0078-0.29166 0.0085v-0.08532q0.14273 0 0.29321-7e-3 7.76e-4 -0.04344 0.0062-0.09619l0.10317 7.76e-4q-0.0031 0.03025-0.0062 0.0892 0.10394-7e-3 0.20711-0.01862l0.0054 0.08533q-0.10704 0.01086-0.21409 0.01784 0 0.04577 7.76e-4 0.06826 0.09774-0.0078 0.17608-0.01707l0.0054 0.08378q-0.08145 0.0093-0.17918 0.01784 0 0.0023 0 7e-3 7.76e-4 0.0047 7.76e-4 7e-3 0.0016 0.03646 0.0031 0.11015 0.07834 0.04111 0.19315 0.12644l-0.05895 0.07369q-0.08533-0.06283-0.13807-0.09619-0.01086 0.06283-0.0543 0.08998t-0.12954 0.02715q-0.08377 0-0.13032-0.03801-0.04654-0.03723-0.04654-0.10239 0-0.0605 0.04654-0.09619 0.04732-0.03568 0.13032-0.03568 0.04266 0 0.08377 0.01008z"/>
    <path d="m63.702 73.993q0.17298-0.01086 0.20944-0.08377 0.0039-7e-3 0.0093-0.02405l-0.0016-7.76e-4q-0.03646 0.03258-0.09619 0.03258-0.06981 0-0.1148-0.04189-0.04421-0.04266-0.04421-0.11092 0-0.06593 0.04499-0.1086 0.04499-0.04266 0.11403-0.04266 0.03723 0 0.07447 0.01551h0.0016q0-0.02094-0.0016-0.0543-0.22495 0.0093-0.36845 0.0093v-0.08688q0.1404 0 0.36535-0.01008-0.0023-0.09541-0.0023-0.09619h0.10084q0 0.02792 0.0016 0.09153 0.10162-0.0054 0.21176-0.01474l0.0062 0.08688q-0.11092 0.0093-0.21564 0.01551 0.0039 0.11946 0.0039 0.13962 0.02637 0.0512 0.02637 0.12334 0 0.1179-0.07447 0.18074-0.07447 0.06283-0.23503 0.07369zm0.0861-0.27692q-0.02094 0.02017-0.02094 0.05042t0.02094 0.0512q0.02094 0.02017 0.05042 0.02017t0.05042-0.02017q0.02094-0.02094 0.02094-0.0512 0-0.03025-0.02094-0.05042-0.02094-0.02094-0.05042-0.02094t-0.05042 0.02094z"/>
    <path d="m64.344 74.068q-0.03878-0.03801-0.03878-0.09076 0-0.05352 0.03801-0.09153 0.03878-0.03878 0.09231-0.03878 0.05352 0 0.09153 0.03878 0.03801 0.03801 0.03801 0.09076 0 0.0543-0.03801 0.09231t-0.09153 0.03801q-0.05275 0-0.09153-0.03878zm0.05042-0.13187q-0.01629 0.01629-0.01629 0.04034t0.01629 0.04111q0.01706 0.01629 0.04111 0.01629t0.04034-0.01629q0.01629-0.01707 0.01629-0.04111 0-0.02405-0.01629-0.04034t-0.04034-0.01629-0.04111 0.01629z"/>
   </g>
   <path d="m53.28 74.716h0.43324v1.76h-0.43324z"/>
   <path d="m68.393 74.716h0.43324v1.76h-0.43324z"/>
   <path transform="rotate(90)" d="m75.461-68.517h0.2705v15.139h-0.2705z"/>
   <path d="m54.929 74.64h0.38252v0.38182h-0.38252z"/>
   <path d="m55.734 74.786h0.32059v0.30579h-0.32059z"/>
   <path d="m56.804 74.572h0.42795v0.42795h-0.42795z"/>
   <path d="m57.622 74.749h0.22404v0.22404h-0.22404z"/>
   <path d="m56.406 74.991h0.1427v0.1427h-0.1427z"/>
   <path d="m57.319 75.138h0.17468v0.17468h-0.17468z"/>
   <path d="m58.11 74.536h0.66904v0.66904h-0.66904z"/>
   <path d="m59.151 74.546h0.39508v0.39508h-0.39508z"/>
   <path d="m59.933 74.886h0.35118v0.35118h-0.35118z"/>
   <path d="m60.566 74.609h0.28236v0.28236h-0.28236z"/>
   <path d="m61.077 75.043h0.14063v0.14063h-0.14063z"/>
   <path d="m61.256 74.818h0.09569v0.09569h-0.09569z"/>
   <path d="m61.476 75.037h0.12897v0.12896h-0.12897z"/>
   <path d="m61.715 74.711h0.1105v0.1105h-0.1105z"/>
   <path d="m61.869 75.012h0.1216v0.12159h-0.1216z"/>
   <path d="m62.046 74.651h0.17837v0.17837h-0.17837z"/>
   <path d="m62.214 75.014h0.29023v0.29023h-0.29023z"/>
   <path d="m61.709 75.199h0.10346v0.10346h-0.10346z"/>
   <path d="m61.445 74.421h0.1234v0.1234h-0.1234z"/>
   <path d="m61.43 74.757h0.09139v0.09139h-0.09139z"/>
   <path d="m61.112 74.497h0.17473v0.17473h-0.17473z"/>
   <path d="m60.801 75.061h0.11717v0.11717h-0.11717z"/>
   <path d="m61.236 75.254h0.10768v0.10768h-0.10768z"/>
  </g>
  <path d="m62.379 74.363h0.54676v0.54676h-0.54676z" fill="#00117c"/>
  <path d="m62.698 75.025h0.17434v0.17434h-0.17434z" fill="#181c57"/>
  <path d="m63.071 74.742h0.14939v0.14939h-0.14939z" fill="#000837"/>
  <path d="m62.949 74.985h0.12558v0.12558h-0.12558z" fill="#181c57"/>
  <path d="m63.451 74.532h0.33618v0.33618h-0.33618z" fill="#000a4b"/>
  <g fill="#181c57">
   <path d="m63.24 74.97h0.30543v0.30543h-0.30543z"/>
   <path d="m63.18 74.428h0.13584v0.13584h-0.13584z"/>
   <path d="m63.01 74.559h0.09132v0.09132h-0.09132z"/>
   <path d="m63.774 75.004h0.22025v0.22025h-0.22025z"/>
   <path d="m63.586 75.041h0.1128v0.1128h-0.1128z"/>
   <path d="m63.656 75.298h0.13153v0.13153h-0.13153z"/>
   <path d="m62.971 75.239h0.1436v0.1436h-0.1436z"/>
   <path d="m63.2 75.363h0.06501v0.06501h-0.06501z"/>
   <path d="m63.921 74.824h0.12292v0.12292h-0.12292z"/>
  </g>
  <path d="m64.583 74.39h0.85125v0.85125h-0.85125z" fill="#000d5d"/>
  <path d="m65.839 74.366h0.54035v0.54035h-0.54035z" fill="#181c57"/>
  <path d="m65.714 75.111h0.29094v0.29094h-0.29094z" fill="#000a4b"/>
  <g fill="#181c57">
   <path d="m65.562 74.684h0.13995v0.13995h-0.13995z"/>
   <path d="m64.151 74.607h0.17704v0.17704h-0.17704z"/>
   <path d="m64.308 74.913h0.16982v0.16982h-0.16982z"/>
   <path d="m64.083 75.089h0.14688v0.14688h-0.14688z"/>
   <path d="m64.362 75.256h0.14261v0.14261h-0.14261z"/>
   <path d="m64.416 74.52h0.08953v0.08953h-0.08953z"/>
   <path d="m63.977 74.41h0.12445v0.12445h-0.12445z"/>
   <path d="m64.189 74.375h0.08084v0.08084h-0.08084z"/>
   <path d="m54.092 74.946h0.33592v0.33592h-0.33592z"/>
   <path d="m66.757 74.498h0.54149v0.54149h-0.54149z"/>
   <path d="m66.445 75.066h0.15604v0.15604h-0.15604z"/>
   <path d="m66.748 75.188h0.12351v0.12351h-0.12351z"/>
  </g>
  <path d="m66.096 74.974h0.12594v0.12594h-0.12594z" fill="#000a4b"/>
  <g fill="#181c57">
   <path d="m66.538 74.743h0.08892v0.08892h-0.08892z"/>
   <path d="m65.707 74.958h0.06055v0.06055h-0.06055z"/>
   <path d="m66.6 74.19h0.16462v0.16462h-0.16462z"/>
   <path d="m66.921 74.242h0.08232v0.08232h-0.08232z"/>
   <path d="m67.176 74.336h0.09139v0.09139h-0.09139z"/>
   <path d="m66.063 74.14h0.13337v0.13337h-0.13337z"/>
   <path d="m66.355 74.238h0.08237v0.08237h-0.08237z"/>
   <g>
    <path d="m57.293 76.008h0.27856v0.05891h-0.10021v0.24334h-0.07794v-0.24334h-0.10041z"/>
    <path d="m57.852 76.293q-0.02146 0.01114-0.04474 0.0168-0.02328 0.0057-0.04859 0.0057-0.07551 0-0.11964-0.04211-0.04413-0.04231-0.04413-0.11458 0-0.07247 0.04413-0.11458 0.04413-0.04231 0.11964-0.04231 0.02531 0 0.04859 0.0057t0.04474 0.0168v0.06256q-0.02166-0.01478-0.04272-0.02166-0.02105-0.0069-0.04433-0.0069-0.0417 0-0.06559 0.02672t-0.02389 0.07369q0 0.04677 0.02389 0.07349t0.06559 0.02672q0.02328 0 0.04433-0.0069t0.04272-0.02166z"/>
    <path d="m57.916 76.008h0.12936q0.0577 0 0.08847 0.02571 0.03097 0.02551 0.03097 0.07288 0 0.04757-0.03097 0.07328-0.03077 0.02551-0.08847 0.02551h-0.05142v0.10487h-0.07794zm0.07794 0.05648v0.08442h0.04312q0.02267 0 0.03502-0.01093 0.01235-0.01113 0.01235-0.03138 0-0.02024-0.01235-0.03118-0.01235-0.01093-0.03502-0.01093z"/>
   </g>
  </g>
  <path d="m58.432 76.025h0.19819v0.76856h-0.19819z" fill="#000a4b"/>
  <path d="m58.825 76.025h0.32894q0.14671 0 0.22496 0.06538 0.07876 0.06486 0.07876 0.18532 0 0.12097-0.07876 0.18635-0.07825 0.06486-0.22496 0.06486h-0.13075v0.26665h-0.19819zm0.19819 0.14362v0.21466h0.10965q0.05766 0 0.08906-0.0278 0.0314-0.02831 0.0314-0.07979t-0.0314-0.07927q-0.0314-0.0278-0.08906-0.0278z" fill="#000a4b"/>
  <g fill="#404d77">
   <path d="m57.488 76.491h0.05134v0.1991h-0.05134z"/>
   <path d="m57.748 76.68q-0.01414 0.0073-0.02947 0.01107-0.01534 0.0037-0.032 0.0037-0.04974 0-0.07881-0.02774-0.02907-0.02787-0.02907-0.07548 0-0.04774 0.02907-0.07548 0.02907-0.02787 0.07881-0.02787 0.01667 0 0.032 0.0037 0.01534 0.0037 0.02947 0.01107v0.04121q-0.01427-0.0097-0.02814-0.01427-0.01387-0.0045-0.0292-0.0045-0.02747 0-0.04321 0.0176t-0.01574 0.04854q0 0.03081 0.01574 0.04841t0.04321 0.0176q0.01534 0 0.0292-0.0045 0.01387-0.0045 0.02814-0.01427z"/>
   <path d="m57.791 76.491h0.06535l0.04534 0.10655 0.04561-0.10655h0.06521v0.1991h-0.04854v-0.14563l-0.04587 0.10735h-0.03254l-0.04588-0.10735v0.14563h-0.04867z"/>
   <path d="m58.063 76.491h0.08521q0.03801 0 0.05828 0.01694 0.0204 0.0168 0.0204 0.04801 0 0.03134-0.0204 0.04827-0.02027 0.0168-0.05828 0.0168h-0.03387v0.06908h-0.05134zm0.05134 0.03721v0.05561h0.0284q0.01494 0 0.02307-0.0072 0.0081-0.0073 0.0081-0.02067 0-0.01334-0.0081-0.02054t-0.02307-0.0072z"/>
  </g>
  <g fill="#1b248f">
   <path d="m59.662 76.509h0.05162v0.20019h-0.05162z"/>
   <path d="m59.765 76.509h0.08568q0.03822 0 0.0586 0.01703 0.02052 0.01689 0.02052 0.04827 0 0.03151-0.02052 0.04854-0.02038 0.01689-0.0586 0.01689h-0.03406v0.06946h-0.05162zm0.05162 0.03741v0.05591h0.02856q0.01502 0 0.0232-0.0072 0.0082-0.0074 0.0082-0.02078 0-0.01341-0.0082-0.02065-0.0082-0.0072-0.0232-0.0072z"/>
   <path d="m59.945 76.559h0.048l0.03741 0.10378 0.03728-0.10378h0.04814l-0.05913 0.15018h-0.0527z"/>
   <path d="m60.221 76.552-0.05658 0.0838h0.05658zm-0.0086-0.04251h0.05739v0.12631h0.02856v0.03741h-0.02856v0.03647h-0.04881v-0.03647h-0.08877v-0.04425z"/>
  </g>
  <g fill="#181c57">
   <path d="m60.465 76.009h0.08082v0.31341h-0.08082z"/>
   <path d="m60.626 76.009h0.13414q0.05983 0 0.09173 0.02666 0.03212 0.02645 0.03212 0.07557 0 0.04933-0.03212 0.07599-0.03191 0.02645-0.09173 0.02645h-0.05332v0.10874h-0.08082zm0.08082 0.05857v0.08754h0.04471q0.02351 0 0.03632-0.01134 0.01281-0.01154 0.01281-0.03254 0-0.02099-0.01281-0.03233t-0.03632-0.01134z"/>
   <path d="m60.908 76.087h0.07515l0.05857 0.16248 0.05836-0.16248h0.07536l-0.09258 0.23511h-0.0825z"/>
   <path d="m61.337 76.168q-0.0212 0-0.03191 0.01386-0.0105 0.01364-0.0105 0.04114t0.0105 0.04135q0.01071 0.01364 0.03191 0.01364 0.02141 0 0.03191-0.01364 0.01071-0.01386 0.01071-0.04135 0-0.0275-0.01071-0.04114-0.0105-0.01386-0.03191-0.01386zm0.09992-0.15051v0.05794q-0.01994-0.0094-0.03757-0.01386-0.01763-0.0046-0.03443-0.0046-0.03611 0-0.05626 0.02015-0.02015 0.01994-0.02351 0.05941 0.01385-0.01029 0.03002-0.01532 0.01616-0.0052 0.03527-0.0052 0.04807 0 0.07746 0.02813 0.0296 0.02813 0.0296 0.07368 0 0.05038-0.03296 0.08082-0.03296 0.03023-0.08838 0.03023-0.06109 0-0.09467-0.04114-0.03338-0.04135-0.03338-0.11714 0-0.07767 0.03905-0.12196 0.03925-0.0445 0.10748-0.0445 0.02162 0 0.04198 0.0034t0.0403 0.01008z"/>
  </g>
  <g fill="#3139ae">
   <path d="m54.122 75.95h0.08988v0.34856h-0.08988z"/>
   <path d="m54.559 76.139v0.15922h-0.08405v-0.12186q0-0.03385-0.0016-0.04669-0.0014-0.01284-0.0051-0.01891-0.0049-0.0082-0.01331-0.01261-0.0084-0.0047-0.01914-0.0047-0.02615 0-0.04109 0.02031-0.01494 0.02008-0.01494 0.0558v0.12864h-0.08358v-0.26148h0.08358v0.03829q0.01891-0.02288 0.04016-0.03362 0.02125-0.01097 0.04693-0.01097 0.04529 0 0.06864 0.02778 0.02358 0.02778 0.02358 0.08078z"/>
   <path d="m54.729 75.963v0.07424h0.08615v0.05977h-0.08615v0.1109q0 0.01821 0.0072 0.02475 0.0072 0.0063 0.02872 0.0063h0.04296v0.05977h-0.07167q-0.0495 0-0.07027-0.02054-0.02054-0.02078-0.02054-0.07027v-0.1109h-0.04156v-0.05977h0.04156v-0.07424z"/>
   <path d="m55.127 76.167v0.02381h-0.19541q3e-3 0.02942 0.02125 0.04413 0.01821 0.01471 0.0509 0.01471 0.02638 0 0.05393-0.0077 0.02778-0.0079 0.05697-0.02381v0.06444q-0.02965 0.01121-0.0593 0.01681-0.02965 0.0058-0.0593 0.0058-0.07097 0-0.11043-0.03595-0.03922-0.03619-0.03922-0.10132 0-0.06397 0.03852-0.10062 0.03876-0.03665 0.10646-0.03665 0.06163 0 0.09852 0.03712 0.03712 0.03712 0.03712 0.09922zm-0.08591-0.02778q0-0.02381-0.01401-0.03829-0.01377-0.01471-0.03619-0.01471-0.02428 0-0.03946 0.01377-0.01518 0.01354-0.01891 0.03922z"/>
   <path d="m55.385 76.108q-0.01097-0.0051-0.02195-0.0075-0.01074-0.0026-0.02171-0.0026-0.03222 0-0.04973 0.02078-0.01728 0.02054-0.01728 0.05907v0.12047h-0.08358v-0.26148h0.08358v0.04296q0.01611-0.02568 0.03689-0.03735 0.02101-0.01191 0.0502-0.01191 0.0042 0 0.0091 4.67e-4 0.0049 2.34e-4 0.01424 0.0014z"/>
   <path d="m55.689 76.139v0.15922h-0.08405v-0.12186q0-0.03385-0.0016-0.04669-0.0014-0.01284-0.0051-0.01891-0.0049-0.0082-0.01331-0.01261-0.0084-0.0047-0.01914-0.0047-0.02615 0-0.04109 0.02031-0.01494 0.02008-0.01494 0.0558v0.12864h-0.08358v-0.26148h0.08358v0.03829q0.01891-0.02288 0.04016-0.03362 0.02125-0.01097 0.04693-0.01097 0.04529 0 0.06864 0.02778 0.02358 0.02778 0.02358 0.08078z"/>
   <path d="m56.028 76.167v0.02381h-0.19541q3e-3 0.02942 0.02125 0.04413 0.01821 0.01471 0.0509 0.01471 0.02638 0 0.05393-0.0077 0.02778-0.0079 0.05697-0.02381v0.06444q-0.02965 0.01121-0.0593 0.01681-0.02965 0.0058-0.0593 0.0058-0.07097 0-0.11043-0.03595-0.03922-0.03619-0.03922-0.10132 0-0.06397 0.03852-0.10062 0.03876-0.03665 0.10646-0.03665 0.06163 0 0.09852 0.03712 0.03712 0.03712 0.03712 0.09922zm-0.08592-0.02778q0-0.02381-0.01401-0.03829-0.01377-0.01471-0.03619-0.01471-0.02428 0-0.03946 0.01377-0.01518 0.01354-0.01891 0.03922z"/>
   <path d="m56.183 75.963v0.07424h0.08615v0.05977h-0.08615v0.1109q0 0.01821 0.0072 0.02475 0.0072 0.0063 0.02872 0.0063h0.04296v0.05977h-0.07167q-0.0495 0-0.07027-0.02054-0.02054-0.02078-0.02054-0.07027v-0.1109h-0.04156v-0.05977h0.04156v-0.07424z"/>
   <path d="m56.475 76.395v0.07377q-0.02872-0.01284-0.05603-0.01938-0.02732-0.0065-0.0516-0.0065-0.03222 0-0.04763 0.0089t-0.01541 0.02755q0 0.01401 0.01027 0.02195 0.01051 0.0077 0.03782 0.01331l0.03829 0.0077q0.05813 0.01167 0.08265 0.03549 0.02451 0.02381 0.02451 0.0677 0 0.05767-0.03432 0.08592-0.03409 0.02802-0.10436 0.02802-0.03315 0-0.06654-0.0063t-0.06677-0.01868v-0.07588q0.03339 0.01774 0.06444 0.02685 0.03129 0.0089 0.06023 0.0089 0.02942 0 0.04506-0.0098t0.01564-0.02802q0-0.01634-0.01074-0.02521-0.01051-0.0089-0.04226-0.01588l-0.03479-0.0077q-0.0523-0.01121-0.07658-0.03572-0.02405-0.02451-0.02405-0.06607 0-0.05206 0.03362-0.08008t0.09665-0.02802q0.02872 0 0.05907 0.0044 0.03035 0.0042 0.0628 0.01284z"/>
   <path d="m56.745 76.738h-7e-3q-0.08615 0-0.13401-0.04763-0.04786-0.04763-0.04786-0.13261 0-0.08475 0.04763-0.13284 0.04786-0.04809 0.13167-0.04809 0.08475 0 0.13191 0.04763 0.04739 0.04763 0.04739 0.13331 0 0.05883-0.02521 0.10132-0.02498 0.04249-0.07214 0.06397l0.07027 0.07844h-0.08568zm-0.0096-0.29603q-0.04109 0-0.06374 0.03035t-0.02265 0.08545q0 0.05603 0.02218 0.08591 0.02218 0.02965 0.0642 0.02965 0.04132 0 0.06397-0.03035t0.02265-0.08521q0-0.0551-0.02265-0.08545t-0.06397-0.03035z"/>
   <path d="m56.983 76.384h0.08988v0.28062h0.15782v0.06794h-0.24771z"/>
  </g>
  <g fill="#1b248f">
   <path d="m60.941 76.575v0.19342h0.0293q0.05011 0 0.07643-0.02484 0.02654-0.02484 0.02654-0.07219 0-0.04713-0.02633-0.07176t-0.07665-0.02463zm-0.08174-0.06179h0.0862q0.07219 0 0.10743 0.0104 0.03546 0.01019 0.06072 0.03482 0.02229 0.02144 0.03312 0.04947t0.01083 0.06348q0 0.03588-0.01083 0.06412-0.01083 0.02803-0.03312 0.04947-0.02548 0.02463-0.06115 0.03503-0.03567 0.01019-0.10701 0.01019h-0.0862z"/>
   <path d="m61.324 76.723q-0.02378 0-0.03588 0.0081-0.01189 0.0081-0.01189 0.02378 0 0.01444 0.0096 0.02272 0.0098 0.0081 0.02696 0.0081 0.02144 0 0.03609-0.01529 0.01465-0.0155 0.01465-0.03864v-0.0087zm0.11614-0.02866v0.13567h-0.07665v-0.03524q-0.01529 0.02166-0.0344 0.03163-0.01911 0.0098-0.0465 0.0098-0.03694 0-0.06009-0.02144-0.02293-0.02166-0.02293-0.05605 0-0.04183 0.02866-0.06136 0.02887-0.01953 0.09045-0.01953h0.0448v-0.0059q0-0.01805-0.01423-0.02633-0.01423-0.0085-0.04437-0.0085-0.02442 0-0.04544 0.0049t-0.03907 0.01465v-0.05796q0.02442-0.0059 0.04905-0.0089 0.02463-0.0032 0.04926-0.0032 0.06433 0 0.09278 0.02548 0.02866 0.02527 0.02866 0.08238z"/>
   <path d="m61.594 76.525v0.06752h0.07834v0.05435h-0.07834v0.10085q0 0.01656 0.0066 0.02251 0.0066 0.0057 0.02612 0.0057h0.03907v0.05435h-0.06518q-0.04501 0-0.06391-0.01868-0.01868-0.0189-0.01868-0.06391v-0.10085h-0.03779v-0.05435h0.03779v-0.06752z"/>
   <path d="m61.826 76.723q-0.02378 0-0.03588 0.0081-0.01189 0.0081-0.01189 0.02378 0 0.01444 0.0096 0.02272 0.0098 0.0081 0.02696 0.0081 0.02144 0 0.03609-0.01529 0.01465-0.0155 0.01465-0.03864v-0.0087zm0.11614-0.02866v0.13567h-0.07665v-0.03524q-0.01529 0.02166-0.0344 0.03163-0.01911 0.0098-0.0465 0.0098-0.03694 0-0.06009-0.02144-0.02293-0.02166-0.02293-0.05605 0-0.04183 0.02866-0.06136 0.02888-0.01953 0.09045-0.01953h0.0448v-0.0059q0-0.01805-0.01423-0.02633-0.01423-0.0085-0.04437-0.0085-0.02442 0-0.04544 0.0049t-0.03907 0.01465v-0.05796q0.02442-0.0059 0.04904-0.0089 0.02463-0.0032 0.04926-0.0032 0.06433 0 0.09278 0.02548 0.02866 0.02527 0.02866 0.08238z"/>
   <path d="m62.14 76.781q0.02442 0 0.03715-0.01783 0.01295-0.01783 0.01295-0.05181 0-0.03397-0.01295-0.05181-0.01274-0.01783-0.03715-0.01783-0.02442 0-0.03758 0.01805-0.01295 0.01783-0.01295 0.05159t0.01295 0.05181q0.01316 0.01783 0.03758 0.01783zm-0.05053-0.15393q0.01571-0.02081 0.03482-0.03057 0.01911-0.01 0.04395-0.01 0.04395 0 0.07219 0.03503 0.02824 0.03482 0.02824 0.08981t-0.02824 0.09002q-0.02824 0.03482-0.07219 0.03482-0.02484 0-0.04395-0.0098-0.01911-0.01-0.03482-0.03079v0.0344h-0.07601v-0.33037h0.07601z"/>
   <path d="m62.431 76.723q-0.02378 0-0.03588 0.0081-0.01189 0.0081-0.01189 0.02378 0 0.01444 0.0096 0.02272 0.0098 0.0081 0.02696 0.0081 0.02144 0 0.03609-0.01529 0.01465-0.0155 0.01465-0.03864v-0.0087zm0.11614-0.02866v0.13567h-0.07665v-0.03524q-0.01529 0.02166-0.0344 0.03163-0.01911 0.0098-0.0465 0.0098-0.03694 0-0.06009-0.02144-0.02293-0.02166-0.02293-0.05605 0-0.04183 0.02866-0.06136 0.02887-0.01953 0.09045-0.01953h0.0448v-0.0059q0-0.01805-0.01423-0.02633-0.01423-0.0085-0.04437-0.0085-0.02442 0-0.04544 0.0049t-0.03907 0.01465v-0.05796q0.02442-0.0059 0.04905-0.0089 0.02463-0.0032 0.04926-0.0032 0.06433 0 0.09278 0.02548 0.02866 0.02527 0.02866 0.08238z"/>
   <path d="m62.804 76.6v0.05775q-0.02442-0.01019-0.04713-0.01529-0.02272-0.0051-0.04289-0.0051-0.02166 0-0.03227 0.0055-0.0104 0.0053-0.0104 0.01656 0 0.0091 0.0079 0.01401 0.0081 0.0049 0.02866 0.0072l0.01338 0.0019q0.05839 0.0074 0.07856 0.02442 0.02017 0.01699 0.02017 0.05329 0 0.038-0.02803 0.05711t-0.08365 0.01911q-0.02357 0-0.04883-0.0038-0.02505-0.0036-0.05159-0.01104v-0.05775q0.02272 0.01104 0.0465 0.01656 0.02399 0.0055 0.04862 0.0055 0.02229 0 0.03355-0.0062 0.01125-0.0062 0.01125-0.01826 0-0.01019-0.0079-0.01508-0.0076-0.0051-0.03079-0.0079l-0.01338-0.0017q-0.05074-0.0064-0.07113-0.02357-0.02038-0.0172-0.02038-0.05223 0-0.03779 0.0259-0.05605t0.07941-0.01826q0.02102 0 0.04416 0.0032t0.05032 0.01z"/>
   <path d="m63.115 76.711v0.02166h-0.17771q0.0028 0.02675 0.01932 0.04013 0.01656 0.01338 0.04629 0.01338 0.02399 0 0.04905-7e-3 0.02526-0.0072 0.05181-0.02166v0.0586q-0.02696 0.01019-0.05393 0.01529-0.02696 0.0053-0.05393 0.0053-0.06454 0-0.10043-0.0327-0.03567-0.03291-0.03567-0.09215 0-0.05818 0.03503-0.09151 0.03525-0.03333 0.09682-0.03333 0.05605 0 0.0896 0.03376 0.03376 0.03376 0.03376 0.09023zm-0.07813-0.02527q0-0.02166-0.01274-0.03482-0.01253-0.01338-0.03291-0.01338-0.02208 0-0.03588 0.01253-0.0138 0.01232-0.0172 0.03567z"/>
  </g>
  <g fill="#00117c">
   <path d="m61.717 76.008h0.26973v0.05704h-0.09703v0.23562h-0.07547v-0.23562h-0.09723z"/>
   <path d="m62.026 76.008h0.07547v0.23562h0.13251v0.05704h-0.20798z"/>
   <path d="m62.485 76.017v0.06194q-0.02411-0.01078-0.04705-0.01627-0.02293-0.0055-0.04332-0.0055-0.02705 0-0.03999 0.0074t-0.01294 0.02313q0 0.01176 0.0086 0.01843 0.0088 0.0065 0.03176 0.01117l0.03215 0.0065q0.04881 0.0098 0.06939 0.0298 0.02058 0.01999 0.02058 0.05685 0 0.04842-0.02882 0.07214-0.02862 0.02352-0.08762 0.02352-0.02784 0-0.05587-0.0053t-0.05606-0.01568v-0.06371q0.02803 0.0149 0.0541 0.02254 0.02627 0.0074 0.05058 0.0074 0.0247 0 0.03783-0.0082t0.01313-0.02352q0-0.01372-9e-3 -0.02117-0.0088-0.0074-0.03548-0.01333l-0.02921-0.0065q-0.04391-0.0094-0.0643-0.02999-0.02019-0.02058-0.02019-0.05548 0-0.04371 0.02823-0.06724 0.02823-0.02352 0.08115-0.02352 0.02411 0 0.04959 0.0037 0.02548 0.0035 0.05273 0.01078z"/>
   <path d="m62.637 76.008h0.04352l-0.10331 0.32991h-0.04332z"/>
   <path d="m62.921 76.017v0.06194q-0.02411-0.01078-0.04705-0.01627-0.02293-0.0055-0.04332-0.0055-0.02705 0-0.03999 0.0074t-0.01294 0.02313q0 0.01176 0.0086 0.01843 0.0088 0.0065 0.03176 0.01117l0.03215 0.0065q0.04881 0.0098 0.06939 0.0298 0.02058 0.01999 0.02058 0.05685 0 0.04842-0.02882 0.07214-0.02862 0.02352-0.08762 0.02352-0.02784 0-0.05587-0.0053t-0.05606-0.01568v-0.06371q0.02803 0.0149 0.0541 0.02254 0.02627 0.0074 0.05057 0.0074 0.0247 0 0.03783-0.0082t0.01313-0.02352q0-0.01372-9e-3 -0.02117-0.0088-0.0074-0.03548-0.01333l-0.02921-0.0065q-0.04391-0.0094-0.0643-0.02999-0.02019-0.02058-0.02019-0.05548 0-0.04371 0.02823-0.06724 0.02823-0.02352 0.08116-0.02352 0.02411 0 0.04959 0.0037 0.02548 0.0035 0.05273 0.01078z"/>
   <path d="m63.192 76.017v0.06194q-0.02411-0.01078-0.04705-0.01627-0.02293-0.0055-0.04332-0.0055-0.02705 0-0.03999 0.0074t-0.01294 0.02313q0 0.01176 0.0086 0.01843 0.0088 0.0065 0.03176 0.01117l0.03215 0.0065q0.04881 0.0098 0.06939 0.0298 0.02058 0.01999 0.02058 0.05685 0 0.04842-0.02882 0.07214-0.02862 0.02352-0.08762 0.02352-0.02784 0-0.05587-0.0053t-0.05606-0.01568v-0.06371q0.02803 0.0149 0.0541 0.02254 0.02627 0.0074 0.05057 0.0074 0.0247 0 0.03783-0.0082t0.01313-0.02352q0-0.01372-9e-3 -0.02117-0.0088-0.0074-0.03548-0.01333l-0.02921-0.0065q-0.04391-0.0094-0.0643-0.02999-0.02019-0.02058-0.02019-0.05548 0-0.04371 0.02823-0.06724 0.02823-0.02352 0.08115-0.02352 0.02411 0 0.04959 0.0037 0.02548 0.0035 0.05273 0.01078z"/>
   <path d="m63.278 76.008h0.07547v0.23562h0.13251v0.05704h-0.20798z"/>
  </g>
  <g fill="#000a4b">
   <path d="m59.728 76.098v0.04496q-0.0175-0.0078-0.03414-0.01181-0.01664-4e-3 -0.03144-4e-3 -0.01963 0-0.02902 0.0054-0.0094 0.0054-0.0094 0.01679 0 0.0085 0.0063 0.01337 0.0064 0.0047 0.02305 0.0081l0.02333 0.0047q0.03542 0.0071 0.05036 0.02162 0.01494 0.01451 0.01494 0.04126 0 0.03514-0.02091 0.05235-0.02077 0.01707-0.06359 0.01707-0.0202 0-0.04054-0.0038t-0.04069-0.01138v-0.04623q0.02034 0.01081 0.03926 0.01636 0.01906 0.0054 0.0367 0.0054 0.01792 0 0.02746-6e-3 0.0095-6e-3 0.0095-0.01707 0-0.01-0.0065-0.01536-0.0064-0.0054-0.02575-0.0097l-0.0212-0.0047q-0.03187-0.0068-0.04666-0.02177-0.01465-0.01494-0.01465-0.04026 0-0.03172 0.02049-0.04879t0.0589-0.01707q0.0175 0 0.03599 0.0027 0.01849 0.0026 0.03827 0.0078z"/>
   <path d="m59.791 76.091h0.05477v0.171h0.09617v0.0414h-0.15094z"/>
   <path d="m59.976 76.091h0.0909q0.04054 0 0.06217 0.01807 0.02177 0.01793 0.02177 0.05121 0 0.03343-0.02177 0.0515-0.02162 0.01792-0.06217 0.01792h-0.03613v0.07369h-0.05477zm0.05477 0.03969v0.05932h0.0303q0.01593 0 0.02461-0.0077 0.0087-0.0078 0.0087-0.02205 0-0.01423-0.0087-0.02191-0.0087-0.0077-0.02461-0.0077z"/>
  </g>
  <g fill="#181c57">
   <path d="m54.941 76.503h0.22053v0.04664h-0.07933v0.19264h-0.0617v-0.19264h-0.07949z"/>
   <path d="m55.193 76.503h0.0617v0.08735l0.08895-0.08735h0.07164l-0.11523 0.11331 0.12709 0.12597h-0.07725l-0.0952-0.09424v0.09424h-0.0617z"/>
   <path d="m55.448 76.503h0.0617v0.23928h-0.0617z"/>
   <path d="m55.57 76.503h0.10241q0.04568 0 0.07004 0.02035 0.02452 0.02019 0.02452 0.0577 0 0.03766-0.02452 0.05802-0.02436 0.02019-0.07004 0.02019h-0.04071v0.08302h-0.0617zm0.0617 0.04472v0.06683h0.03414q0.01795 0 0.02773-0.0087 0.0098-0.0088 0.0098-0.02484 0-0.01603-0.0098-0.02468-0.0098-0.0087-0.02773-0.0087z"/>
  </g>
  <g fill="#3d4970">
   <path d="m63.427 76.389h0.1148v0.26688q0 0.05516 0.01789 0.07902 0.01819 0.02356 0.05904 0.02356 0.04115 0 0.05904-0.02356 0.01819-0.02385 0.01819-0.07902v-0.26688h0.1148v0.26688q0 0.09453-0.04741 0.14074-0.04741 0.04622-0.14462 0.04622-0.09691 0-0.14432-0.04622-0.04741-0.04622-0.04741-0.14074z"/>
   <path d="m64.038 76.476v0.27165h0.04115q0.07037 0 0.10735-0.03489 0.03727-0.03489 0.03727-0.10138 0-0.0662-0.03697-0.10079-0.03697-0.03459-0.10764-0.03459zm-0.1148-0.08677h0.12106q0.10138 0 0.15088 0.01461 0.0498 0.01431 0.08528 0.0489 0.03131 0.03012 0.04652 0.06948t0.01521 0.08916q0 0.05039-0.01521 0.09005-0.01521 0.03936-0.04652 0.06948-0.03578 0.03459-0.08588 0.0492-0.05009 0.01431-0.15029 0.01431h-0.12106z"/>
   <path d="m64.43 76.389h0.19054q0.08498 0 0.13031 0.03787 0.04562 0.03757 0.04562 0.10735 0 0.07007-0.04562 0.10794-0.04532 0.03757-0.13031 0.03757h-0.07574v0.15446h-0.1148zm0.1148 0.08319v0.12434h0.06351q0.0334 0 0.05159-0.0161 0.01819-0.0164 0.01819-0.04622t-0.01819-0.04592-0.05159-0.0161z"/>
  </g>
  <g fill="#55679e">
   <path d="m63.822 75.886h0.09498v0.36834h-0.09498z"/>
   <path d="m64.138 76.035q-0.02936 0-0.0449 0.02122-0.0153 0.02097-0.0153 0.06069t0.0153 0.06094q0.01554 0.02097 0.0449 0.02097 0.02886 0 0.04416-0.02097 0.0153-0.02122 0.0153-0.06094t-0.0153-0.06069q-0.0153-0.02122-0.04416-0.02122zm0-0.06316q0.0713 0 0.11127 0.03849 0.04021 0.03849 0.04021 0.10658 0 0.06809-0.04021 0.10658-0.03997 0.03849-0.11127 0.03849-0.07155 0-0.11201-0.03849-0.04021-0.03849-0.04021-0.10658 0-0.06809 0.04021-0.10658 0.04046-0.03849 0.11201-0.03849z"/>
   <path d="m64.314 75.886h0.33947v0.07179h-0.12212v0.29655h-0.09498v-0.29655h-0.12237z"/>
  </g>
  <g fill="#3139ae">
   <path d="m65.084 76.267h-0.14055l-0.02218 0.0635h-0.09035l0.12911-0.34856h0.10716l0.12911 0.34856h-0.09035zm-0.11813-0.06467h0.09549l-0.04763-0.13868z"/>
   <path d="m65.37 76.137q0.02825 0 0.04039-0.01051 0.01237-0.01051 0.01237-0.03455 0-0.02381-0.01237-0.03409-0.01214-0.01027-0.04039-0.01027h-0.03782v0.08942zm-0.03782 0.0621v0.13191h-0.08988v-0.34856h0.13728q0.06887 0 0.10086 0.02311 0.03222 0.02311 0.03222 0.07307 0 0.03455-0.01681 0.05673-0.01658 0.02218-0.0502 0.03269 0.01844 0.0042 0.03292 0.01914 0.01471 0.01471 0.02965 0.04483l0.04879 0.09899h-0.09572l-0.04249-0.08662q-0.01284-0.02615-0.02615-0.03572-0.01307-0.0096-0.03502-0.0096z"/>
   <path d="m65.611 75.982h0.14918q0.06654 0 0.10202 0.02965 0.03572 0.02942 0.03572 0.08405 0 0.05486-0.03572 0.08451-0.03549 0.02942-0.10202 0.02942h-0.0593v0.12094h-0.08988zm0.08988 0.06514v0.09735h0.04973q0.02615 0 0.04039-0.01261 0.01424-0.01284 0.01424-0.03619t-0.01424-0.03595q-0.01424-0.01261-0.04039-0.01261z"/>
  </g>
  <g fill="#404d77">
   <path d="m65.085 76.543v0.03609q-0.01405-0.0063-0.02741-0.0095t-0.02524-0.0032q-0.01576 0-0.0233 0.0043-0.0075 0.0043-0.0075 0.01348 0 0.0069 5e-3 0.01074 0.0051 0.0038 0.0185 0.0065l0.01873 0.0038q0.02844 0.0057 0.04043 0.01736 0.01199 0.01165 0.01199 0.03312 0 0.02821-0.01679 0.04203-0.01667 0.01371-0.05105 0.01371-0.01622 0-0.03255-0.0031t-0.03267-0.0091v-0.03712q0.01633 0.0087 0.03152 0.01313 0.0153 0.0043 0.02947 0.0043 0.01439 0 0.02204-0.0048 0.0077-0.0048 0.0077-0.01371 0-8e-3 -0.0053-0.01233-0.0051-0.0043-0.02067-0.0078l-0.01702-0.0038q-0.02558-0.0055-0.03746-0.01748-0.01176-0.01199-0.01176-0.03232 0-0.02547 0.01645-0.03918t0.04729-0.01371q0.01405 0 0.0289 0.0022 0.01485 0.0021 0.03072 0.0063z"/>
   <path d="m65.135 76.538h0.04911l0.06202 0.11696v-0.11696h0.04169v0.17052h-0.04911l-0.06202-0.11696v0.11696h-0.04169z"/>
   <path d="m65.331 76.538h0.05597l0.03883 0.09126 0.03906-0.09126h0.05585v0.17052h-0.04157v-0.12472l-0.03929 0.09194h-0.02787l-0.03929-0.09194v0.12472h-0.04169z"/>
   <path d="m65.564 76.538h0.07298q0.03255 0 0.04991 0.0145 0.01748 0.01439 0.01748 0.04112 0 0.02684-0.01748 0.04134-0.01736 0.01439-0.04991 0.01439h-0.02901v0.05916h-0.04397zm0.04397 0.03187v0.04763h0.02433q0.01279 0 0.01976-0.0062 7e-3 -0.0063 7e-3 -0.0177 0-0.01142-7e-3 -0.01759-7e-3 -0.0062-0.01976-0.0062z"/>
  </g>
  <g fill="#00117c">
   <path d="m66.053 76.271v0.04485q-0.01746-0.0078-0.03406-0.01178-0.01661-4e-3 -0.03137-4e-3 -0.01959 0-0.02895 0.0054-0.0094 0.0054-0.0094 0.01675 0 0.0085 0.0062 0.01334 0.0064 0.0047 0.02299 0.0081l0.02328 0.0047q0.03534 0.0071 0.05024 0.02157 0.0149 0.01448 0.0149 0.04116 0 0.03506-0.02086 0.05223-0.02072 0.01703-0.06344 0.01703-0.02015 0-0.04045-0.0038t-0.04059-0.01135v-0.04613q0.0203 0.01079 0.03917 0.01632 0.01902 0.0054 0.03662 0.0054 0.01788 0 0.02739-6e-3 0.0095-6e-3 0.0095-0.01703 0-0.0099-0.0065-0.01533-0.0064-0.0054-0.02569-0.0097l-0.02115-0.0047q-0.03179-0.0068-0.04655-0.02172-0.01462-0.0149-0.01462-0.04017 0-0.03165 0.02044-0.04868t0.05876-0.01703q0.01746 0 0.03591 0.0027 0.01845 0.0026 0.03818 0.0078z"/>
   <path d="m66.115 76.264h0.06955l0.04825 0.1134 0.04854-0.1134h0.0694v0.2119h-0.05166v-0.15499l-0.04882 0.11425h-0.03463l-0.048826-0.11425v0.15499h-0.0518z"/>
   <path d="m66.379 76.264h0.19529v0.0413h-0.07025v0.1706h-0.05464v-0.1706h-0.0704z"/>
   <path d="m66.603 76.264h0.09069q0.04045 0 0.06202 0.01802 0.02172 0.01788 0.02172 0.05109 0 0.03335-0.02172 0.05138-0.02157 0.01788-0.06202 0.01788h-0.03605v0.07352h-0.05464zm0.05464 0.0396v0.05918h0.03023q0.0159 0 0.02455-0.0077 0.0087-0.0078 0.0087-0.022 0-0.01419-0.0087-0.02186-0.0087-0.0077-0.02455-0.0077z"/>
  </g>
  <g fill="#3139ae">
   <path d="m66.188 76.616h0.07202v0.27928h-0.07202z"/>
   <path d="m66.331 76.616h0.19436v0.05444h-0.12234v0.052h0.11504v0.05443h-0.11504v0.06397h0.12645v0.05443h-0.19847z"/>
   <path d="m66.56 76.616h0.2574v0.05444h-0.0926v0.22485h-0.07202v-0.22485h-0.09278z"/>
   <path d="m66.854 76.616h0.19436v0.05444h-0.12234v0.052h0.11504v0.05443h-0.11504v0.11841h-0.07202z"/>
   <path d="m56.742 76.04v0.03609q-0.01405-0.0063-0.02741-0.0095t-0.02524-0.0032q-0.01576 0-0.0233 0.0043-0.0075 0.0043-0.0075 0.01348 0 0.0069 5e-3 0.01074 0.0051 0.0038 0.0185 0.0065l0.01873 0.0038q0.02844 0.0057 0.04043 0.01736 0.01199 0.01165 0.01199 0.03312 0 0.02821-0.01679 0.04203-0.01667 0.01371-0.05105 0.01371-0.01622 0-0.03255-0.0031t-0.03267-0.0091v-0.03712q0.01633 0.0087 0.03152 0.01313 0.01531 0.0043 0.02947 0.0043 0.01439 0 0.02204-0.0048 0.0077-0.0048 0.0077-0.01371 0-8e-3 -0.0053-0.01234-0.0051-0.0043-0.02067-0.0078l-0.01702-0.0038q-0.02558-0.0055-0.03746-0.01748-0.01176-0.01199-0.01176-0.03232 0-0.02547 0.01645-0.03918t0.04728-0.01371q0.01405 0 0.0289 0.0022 0.01485 0.0021 0.03072 0.0063z"/>
   <path d="m56.9 76.04v0.03609q-0.01405-0.0063-0.02741-0.0095t-0.02524-0.0032q-0.01576 0-0.0233 0.0043-0.0075 0.0043-0.0075 0.01348 0 0.0069 5e-3 0.01074 0.0051 0.0038 0.0185 0.0065l0.01873 0.0038q0.02844 0.0057 0.04043 0.01736 0.01199 0.01165 0.01199 0.03312 0 0.02821-0.01679 0.04203-0.01667 0.01371-0.05105 0.01371-0.01622 0-0.03255-0.0031t-0.03267-0.0091v-0.03712q0.01633 0.0087 0.03152 0.01313 0.01531 0.0043 0.02947 0.0043 0.01439 0 0.02204-0.0048 0.0077-0.0048 0.0077-0.01371 0-8e-3 -0.0053-0.01234-0.0051-0.0043-0.02067-0.0078l-0.01702-0.0038q-0.02558-0.0055-0.03746-0.01748-0.01176-0.01199-0.01176-0.03232 0-0.02547 0.01645-0.03918t0.04729-0.01371q0.01405 0 0.0289 0.0022 0.01485 0.0021 0.03072 0.0063z"/>
   <path d="m56.95 76.034h0.04397v0.06499h0.06487v-0.06499h0.04397v0.17052h-0.04397v-0.0723h-0.06487v0.0723h-0.04397z"/>
  </g>
 </g>
</svg>
