<?xml version="1.0" encoding="UTF-8"?>
<svg width="455.09mm" height="92.664mm" version="1.1" viewBox="0 0 455.09 92.664" xmlns="http://www.w3.org/2000/svg">
 <g transform="translate(-69.475 -39.417)">
  <path transform="matrix(.26458 0 0 .26458 69.295 39.274)" d="m1488.6 0.54102c-2.5274 0-4.5605 2.0331-4.5605 4.5605v134.66c0 2.5274 2.0331 4.5664 4.5605 4.5664h42.533c2.3089 0 2.8652 1.4017 2.8652 3.2578v127.94c0 4.9882 4.0137 9.0078 9.002 9.0078h168.48c4.9881 0 9.0019-4.0197 9.0019-9.0078v-134.44c0.1274-0.4206 0.2168-0.85934 0.2168-1.3223v-134.66c0-2.5274-2.0332-4.5605-4.5605-4.5605zm-491.41 0.15039c-4.1547 0-7.498 3.3453-7.498 7.5v221.36c0 4.1547 3.3434 7.5 7.498 7.5h221.36c4.1547 0 7.5-3.3453 7.5-7.5v-221.36c0-4.1547-3.3453-7.5-7.5-7.5zm247.25 0c-4.1547 0-7.4981 3.3453-7.4981 7.5v221.36c0 4.1547 3.3434 7.5 7.4981 7.5h221.36c4.1547 0 7.5-3.3453 7.5-7.5v-221.36c0-4.1547-3.3453-7.5-7.5-7.5zm-0.2872 8.7207h59.367v11.205h-23.689v84.098h-11.988v-84.098h-23.69zm-226.62 0.097656h12.117v95.096h-12.117zm-762.09 38.729c-4.1547 0-7.5 3.3453-7.5 7.5v221.36c0 4.1547 3.3453 7.5 7.5 7.5h221.36c4.1547 0 7.5-3.3453 7.5-7.5v-221.36c0-4.1547-3.3453-7.5-7.5-7.5zm247.25 0c-4.1547 0-7.5 3.3453-7.5 7.5v221.36c0 4.1547 3.3453 7.5 7.5 7.5h221.36c4.1547 0 7.5-3.3453 7.5-7.5v-221.36c0-4.1547-3.3453-7.5-7.5-7.5zm247.25 0c-4.1547 0-7.5 3.3453-7.5 7.5v221.36c0 4.1547 3.3453 7.5 7.5 7.5h221.36c4.1547 0 7.5-3.3453 7.5-7.5v-221.36c0-4.1547-3.3453-7.5-7.5-7.5zm-493.18 8.8203h13.518v66.32l32.67-66.32h14.162l-20.117 40.695 26.555 54.4h-14.484l-20.277-41.52-18.508 37.545v3.9746h-13.518zm247.25 0h13.357v36.859h39.75v-36.859h13.68v94.959h-13.68v-46.863h-39.75v47h-13.357zm247.25 0.68359h63.891v16.307h-13.197v-5.6172h-30.738l18.668 37.545h5.9551l22.691 46.178h-64.695v-16.307h13.197v5.6172h31.383l-12.232-24.664h-5.793zm913.42 27.844h9.0078v112.52h-57.057l23.023 26.58-4.0039 3.543-57.059-33.668v-0.88477l57.059-33.668 4.0039 3.543-23.023 26.58h48.049zm-299.29 2.4082h14.439l-14.975 33.902h34.94v80.398l-16.043 23.713h-45.637v-12.598h38.148l10.162-15.006v-62.984h-27.631l-41.358 92.811h-14.619l41.537-92.811h-39.932v-13.523h45.814zm-290.8 5.373h13.191l3.7442 21.674-3.5645 113.19h-13.371l3.5664-113.38zm-1066.4 2.4199c-4.1547 0-7.5 3.3453-7.5 7.5v221.36c0 4.1547 3.3453 7.498 7.5 7.498h221.36c4.1547 0 7.5-3.3433 7.5-7.498v-221.36c0-4.1547-3.3453-7.5-7.5-7.5zm59.254 8.8184h13.037v75.229l-9.4961 19.184h-13.357l-35.084-70.98v71.664h-13.035v-94.41h15.289l39.428 80.023 3.2188-6.5781zm1137.3 0.0625-16.934 46.498h-14.262l10.518-29.084-62.393 10.93v-13.895zm205.06 2.0371h13.904l32.98 74.102h-14.084zm-720.41 29.023h22.461l-88.062 70.395 89.311 69.656h-23.174l-81.289-63.357v-12.041zm156.99 13.709h15.865l28.701 50.389 66.67-48.537v17.229l-91.805 66.877v26.49h99.293v13.895h-113.02v-47.055l27.986-20.377zm-481.73 8.707h108.21v88.549l-19.609 29.086h-42.605v-13.154h35.475l13.727-20.377v-70.951h-18.717l-68.275 99.852h-30.484v-78.178zm6.9531 13.152-16.223 25.564v61.133h10.695l59.363-86.697zm-254.26 9.3867 52.053 9.4473-24.957 65.023 53.479 6.2988 10.875-30.197h13.191l-11.408 31.68 17.469 2.0371v12.967l-21.926-2.5938-17.113 47.98h-13.191l17.648-49.461-53.48-6.1133-16.756 43.348h-19.609l-18.006-47.238v-15.377l45.279 5.1875 20.5-53.352-34.047-6.2988zm999.16 30.318h92.162v13.895h-92.162zm-1018.2 51.748 13.904 36.123h1.9609l12.479-32.789zm298.91 45.025v42.988h7.293v-30.502l17.736 25.639 17.902-25.639v30.502h7.2383v-42.988h-7.2383l-17.848 25.748-17.791-25.748zm55.793 0v42.988h7.293v-42.988zm12.793 0v42.988h7.2383v-32.379l30.5 32.379h7.293v-42.988h-7.293v32.268l-30.279-32.268zm58.354 0c-4.5308 0-8.1777 2.542-8.1777 7.0176v28.953c0 4.5308 3.6469 7.0176 8.1777 7.0176h28.842c4.5308 0 8.1777-2.4868 8.1777-7.0176v-28.953c0-4.4756-3.6469-7.0176-8.1777-7.0176zm42.275 0v42.988h7.293v-18.4l25.195 18.4h12.156l-30.775-21.881 29.506-21.107h-11.66l-24.422 18.234v-18.234zm48.615 0v35.914c0 4.5308 3.6469 7.0742 8.1777 7.0742h25.693c4.5308 0 8.2871-2.5434 8.2871-7.0742v-35.914h-7.4023v36.578h-27.463v-36.578zm45.879 0v6.4102h17.516v36.578h7.293v-36.578h18.014v-6.4102zm54.785 0c-4.5308 0-8.1777 2.542-8.1777 7.0176v28.953c0 4.5308 3.6469 7.0176 8.1777 7.0176h28.842c4.5308 0 8.1777-2.4868 8.1777-7.0176v-28.953c0-4.4756-3.6469-7.0176-8.1777-7.0176zm42.439 0v42.988h7.2383v-32.379l30.502 32.379h7.293v-42.988h-7.293v32.268l-30.279-32.268zm50.232 0v42.988h7.293v-42.988zm12.627 0v42.988h7.293v-18.4l25.195 18.4h12.156l-30.775-21.881 29.506-21.107h-11.66l-24.422 18.234v-18.234zm69.889 0-23.262 42.988h7.1816l5.6914-10.5h25.639l5.5801 10.5h7.2383l-22.875-42.988zm50.871 0v42.988h7.127v-17.186h29.838c4.5308 0 8.1777-2.5414 8.1777-7.0723v-11.713c0-4.4756-3.6469-7.0176-8.1777-7.0176zm50.508 0v42.988h7.1836v-17.186h10.277l17.129 17.186h9.2266l-17.35-17.186h6.2989c4.5308 0 8.123-2.5414 8.123-7.0723v-11.713c0-4.4756-3.5922-7.0176-8.123-7.0176zm54.309 0c-4.5308 0-8.1777 2.542-8.1777 7.0176v28.953c0 4.5308 3.6469 7.0176 8.1777 7.0176h28.844c4.5308 0 8.1777-2.4868 8.1777-7.0176v-28.953c0-4.4756-3.6469-7.0176-8.1777-7.0176zm69.793 0v36.578h-20.225v-13.205l-7.293 2.0996v10.498c0 4.5308 3.6469 7.0176 8.1778 7.0176h18.455c4.5309 0 8.1231-2.4868 8.1231-7.0176v-35.971zm12.742 0v42.988h38.18v-6.4102h-30.941v-11.824h18.066v-6.2988h-18.066v-12.045h30.609v-6.4102zm51.502 0c-4.5309 0-8.1231 2.542-8.1231 7.0176v28.953c0 4.5308 3.5922 7.0176 8.1231 7.0176h25.029c4.4755 0 8.123-2.4868 8.123-7.0176v-6.8516l-7.2383-1.8789v9.3379h-26.799v-30.168h26.799v10.055l7.2383-1.6562v-7.791c0-4.4756-3.6475-7.0176-8.123-7.0176zm36.836 0v6.4102h17.516v36.578h7.293v-36.578h18.012v-6.4102zm63.887 0v6.4102h17.516v36.578h7.293v-36.578h18.014v-6.4102zm46.883 0v42.988h38.18v-6.4102h-30.941v-11.824h18.068v-6.2988h-18.068v-12.045h30.611v-6.4102zm64.488 0-23.262 42.988h7.1816l5.6914-10.5h25.639l5.5801 10.5h7.2383l-22.875-42.988zm31.877 0v42.988h7.2929v-30.502l17.738 25.639 17.902-25.639v30.502h7.2382v-42.988h-7.2382l-17.848 25.748-17.793-25.748zm-901.32 6.4102h30.611v30.168h-30.611zm191.55 0h30.611v30.168h-30.611zm234.18 0h28.566c1.5471 0 2.0449 0.60667 2.0449 1.8223v9.3379c0 1.2708-0.71908 1.8242-2.2109 1.8242h-28.4zm50.453 0h24.422c1.5471 0 2.0449 0.60667 2.0449 1.8223v9.3379c0 1.2708-0.7184 1.8242-2.2656 1.8242h-24.201zm46.242 0h30.609v30.168h-30.609zm-152.32 2.0996 9.5586 17.902h-19.283zm501.82 0 9.5586 17.902h-19.283z" filter="url(#filter1559)"/>
 </g>
</svg>
