<?xml version="1.0" encoding="UTF-8"?>
<svg width="128.79mm" height="160.95mm" version="1.1" viewBox="0 0 128.79 160.95" xmlns="http://www.w3.org/2000/svg">
 <g transform="translate(-14.045 -77.427)">
  <path d="m37.335 129.79c0.96502-4e-3 2.8851-0.24266 2.8851-0.24266s-1.9279 0.0857-2.8927 0.0887c-0.99674 3e-3 -2.9903-0.0722-2.9903-0.0722s1.9956 0.22934 2.9979 0.22579zm14.094-51.661c-2.927-0.08779-5.9564-0.06835-8.8376 0.74352-3.1434 0.88567-6.2027 2.3751-8.7762 4.4115-2.3388 1.8505-4.2864 4.2475-5.7483 6.8403-1.2782 2.2673-2.0887 4.806-2.5109 7.3608-0.14817 0.89853-0.22624 2.1992-0.21604 3.3023 5e-3 0.63193 0.08478 1.2615 0.16946 1.8893 0.26439 2.2815 1.2888 4.7025 1.0052 6.8163-0.34689 2.5698-2.3772 4.8372-3.0526 7.6705-0.66239 2.7755-1.1957 5.7274-0.77454 8.6246 0.40634 2.8019 1.4792 5.5949 3.1388 7.8936 0.84649 1.1738 1.6295 2.024 2.5752 2.9061 0.9015 0.83962 1.8602 1.639 2.9267 2.2489 1.2041 0.68831 2.59 1.3189 3.8575 1.5542-0.32162 0.41256-3.8879 6.1424-5.4576 9.0532-2.4279 4.5023-4.6024 9.2706-5.7481 14.3-0.98405 4.3177-1.0454 8.8012-0.87398 13.185 0.12686 3.3377 1.3628 9.4621 1.4157 9.7276-2.7585 1.9788-5.6647 4.2638-7.1266 7.4474-2.9418 6.4061-3.186 14.061-2.0549 20.967 1.0264 6.2749 2.8406 13.514 7.927 17.559 6.948 5.5257 17.085 4.8763 25.701 5.0434 10.819 0.20982 22.312-0.35312 32.2-4.9939 1.5597-0.73235 3.3762-2.3504 4.8373-3.7918 1.4602-1.4415 2.3389-2.8998 2.3389-2.8998 2.6205-0.53924 8.8945-1.7055 13.06-3.6927 3.4107-1.6274 6.8007-3.712 9.3423-6.5924 2.0358-2.3072 3.3195-5.2114 4.308-8.0671 0.90783-2.6237 1.4962-5.4238 1.4644-8.2281-0.0444-3.8997-0.61794-7.9502-2.3386-11.537-2.0231-4.2179-3.7407-7.3906-5.3175-11.19-1.6739-4.0351-3.4683-8.0463-4.3818-12.256-0.75338-3.4708-0.96925-7.0725-0.89942-10.645 0.0635-3.0189 0.49945-6.0476 1.1195-9.0212 0.57141-2.7342 1.365-5.4293 2.3757-8.0299 0.63064-1.6228 1.3988-3.2025 2.2895-4.6965 0.81687-1.3706 1.7523-2.668 2.7816-3.8911 0.79356-0.94346 1.6104-1.8617 2.5479-2.5899 1.0369-0.80568 2.1971-1.4768 3.4097-1.9951 1.2719-0.54373 2.5968-0.99435 3.9264-1.1276 1.3502-0.1353 2.7473-0.0816 4.0006 0.3225 1.4602 0.47143 2.8624 1.2957 3.9387 2.3792 1.0666 1.0733 1.8115 2.5192 2.3755 3.9902 0.48881 1.2717 0.78723 2.6354 0.78723 3.9778 0 1.3423-0.30033 2.7185-0.78723 3.9902-0.55238 1.4416-1.4433 2.7776-2.4125 4.0274-1.111 1.4325-3.0224 2.3701-4.1233 4.1636-0.4846 0.7873-0.84862 1.7229-0.88669 2.689-0.0444 1.1644-5e-3 2.6573 0.94808 3.6184 0.95443 0.96117 2.4254 0.9864 3.5817 0.94173 0.95868-0.0399 1.8898-0.40545 2.6711-0.89222 2.3822-1.4823 4.2073-3.7091 5.859-5.8861 1.3523-1.7816 2.6273-3.7218 3.3479-5.8984 0.72163-2.1805 0.82108-4.508 0.83803-6.7412 0.0178-2.5066-0.0635-5.1206-0.83803-7.5714-0.8719-2.7511-2.2773-5.4263-4.1974-7.5962-1.7755-2.0067-4.0219-3.698-6.5112-4.7089-2.936-1.1922-6.234-1.6264-9.3793-1.3631-3.8039 0.31851-7.6402 1.5136-10.906 3.5193-3.7093 2.2782-6.6411 5.7088-9.1455 9.2071-1.4729 2.0571-2.3858 4.4295-3.3358 6.6916-1.0179 2.4227-1.8496 4.923-2.5848 7.435-0.72374 2.4689-1.3988 4.9774-1.7967 7.5466-0.45079 2.902-0.78935 5.8577-0.65183 8.823 0.12687 2.8918 0.78092 5.7212 1.4285 8.5255-2.2104-7.7832-4.9211-15.416-8.7885-22.454-1.4962-2.7211-4.3757-6.2247-6.893-9.0832-2.4117-2.7389-4.3108-4.6718-4.4803-4.8452 0.94382-1.7818 1.8051-3.6318 2.3756-5.5887 0.94808-3.2588 1.3735-6.6466 1.6485-10 0.16946-1.954 0.10598-3.9176 0-5.8489-0.12687-2.763-0.2391-5.5728-0.82528-8.3273-0.54599-2.5719-1.2507-5.1839-2.4987-7.5466-1.2041-2.2781-2.7534-4.4653-4.7143-6.1712-2.0337-1.77-4.4826-3.0905-7.016-3.953-3.7455-1.271-7.7503-1.5561-11.631-1.6729zm-17.097 5.799c2.4789-1.9614 5.4353-3.4047 8.4808-4.2628 2.7386-0.77174 5.6848-0.79374 8.5915-0.70635v3.51e-4c3.8573 0.11626 7.7856 0.39792 11.386 1.6234 2.4438 0.83194 4.792 2.1157 6.7328 3.8043 1.8602 1.6186 3.3619 3.7121 4.5298 5.9232 1.1893 2.2536 1.8855 4.7952 2.4248 7.3359 0.56502 2.6617 0.67507 5.4222 0.81259 8.191 0.10598 1.9218 0.14817 3.8467 0 5.7374-0.27282 3.3282-0.70046 6.6637-1.6252 9.8391-0.57562 1.9746-1.4517 3.8706-2.437 5.7003-0.90362 1.6807-2.9172 5.1612-2.9172 5.1612s2.2491-2.452 3.3356-4.2938c0.28347 0.29101 1.9808 2.017 4.2958 4.6469 2.5014 2.8407 5.3595 6.3579 6.7823 8.9469 6.257 11.386 10.165 24.205 12.272 37.064 1.0496 6.4097 0.57771 13.048 0.1056 19.591-0.33848 4.6103-2.0104 13.352-2.1035 13.842-1.6126 0.74287-3.2059 1.4144-4.9338 1.877-2.4982 0.66874-4.501 1.3821-4.501 1.3821s2.1475-0.0177 4.6712-0.69394c2.5238-0.67557 5.4895-1.5926 7.3729-2.6394 2.2398-1.2448 4.4881-2.8656 5.896-5.1054 1.7248-2.7441 2.3988-6.1093 2.5357-9.2939 0.12687-3.1388-0.42321-6.3849-1.6866-9.269-1.5427-3.5238-3.4461-7.0266-4.8621-10.62-1.6083-4.0826-3.0962-8.2228-4.148-12.466-0.83172-3.3559-1.5385-6.7656-1.6994-10.186-0.12687-2.878 0.19031-5.7843 0.62855-8.6619 0.38948-2.5072 1.0644-4.9756 1.784-7.4351 0.73009-2.4931 1.5597-4.9649 2.5605-7.3484 0.95651-2.2782 1.8474-4.5887 3.2372-6.5304 2.4747-3.4569 5.3509-6.7971 8.9114-8.9841 3.145-1.9317 6.8691-3.0996 10.549-3.4078 3.0219-0.25331 6.1942 0.17522 8.9978 1.3136 2.3537 0.95579 4.5054 2.579 6.2035 4.4982 1.8284 2.0671 3.1836 4.6319 4.0251 7.2864 0.73007 2.3036 0.81685 4.8272 0.79991 7.3112-0.0133 2.21-0.12687 4.446-0.79991 6.4809-0.67509 2.0387-1.8856 3.926-3.2126 5.6754-1.638 2.1588-3.4099 4.3019-5.6375 5.6879-0.68989 0.42942-1.4941 0.72593-2.2648 0.75586-1.0983 0.0448-2.3376-0.0635-2.9788-0.70635-0.64123-0.64558-0.74281-1.8925-0.70049-2.9987 0.0222-0.77552 0.33669-1.5726 0.76398-2.2678 0.93325-1.5215 2.8029-2.4626 4.0741-4.1016 0.99466-1.2832 1.9258-2.6822 2.5234-4.238 0.51848-1.3496 0.84862-2.8198 0.84862-4.2876 0-1.4678-0.33005-2.9257-0.84862-4.2752-0.58619-1.5263-1.3692-3.076-2.5602-4.2751-1.1808-1.1888-2.692-2.0804-4.2712-2.5899-1.403-0.45243-2.9081-0.48983-4.3328-0.3469-1.4581 0.14594-2.8529 0.63063-4.1603 1.1896-1.2718 0.54311-2.4952 1.2403-3.5942 2.0943-1.0179 0.79117-1.8686 1.7594-2.6711 2.7138-1.0539 1.254-2.0252 2.5895-2.8679 4.0025-0.91423 1.5341-1.6908 3.1545-2.3386 4.8204-1.0264 2.6448-1.8327 5.3761-2.4125 8.1538-0.62641 3.0059-1.0835 6.0801-1.1449 9.17-0.0635 3.6175 0.14817 7.2886 0.92266 10.843 0.93752 4.3211 2.7496 8.3826 4.4189 12.404 1.5957 3.8461 3.3276 7.0288 5.342 11.227 1.6464 3.4315 2.2093 7.3529 2.2525 11.177 0.0222 2.6804-0.53118 5.3996-1.4157 7.9555-0.97349 2.8095-2.2263 5.6163-4.148 7.7944-2.4313 2.7554-5.7159 4.7807-9.0716 6.3818-4.7649 2.2734-15.534 4.3991-15.454 4.8018 0 0 1.5025-0.0133 1.7163-0.0572-0.36598 0.413-0.81265 0.93947-1.8962 2.0074-1.4348 1.416-3.2514 2.9962-4.6035 3.6308-9.69 4.5477-21.065 5.141-31.843 4.9319-8.666-0.16812-18.593 0.39127-25.208-4.87-4.7835-3.8042-6.6137-10.832-7.6316-17.051-1.111-6.7901-0.8507-14.29 1.9935-20.484 1.3904-3.029 4.2513-5.3281 7.053-7.3236 1.7374-1.2378 3.7546-2.1614 5.8219-2.6766 2.9094-0.72507 6.038-1.2839 8.8255-0.52027 0.82746 0.22624 2.1285 1.0754 3.106 1.8245 0.97772 0.74908 1.9215 1.0814 1.9215 1.0814s-0.54173-0.81277-1.5512-1.5866c-1.0095-0.77387-2.1903-1.8171-3.2681-2.1124-3.0324-0.83053-6.2861-0.2258-9.2316 0.50819-1.966 0.49046-3.827 1.4191-5.5265 2.5403-0.12687-0.63387-1.2338-6.2186-1.3544-9.2815-0.16946-4.3525-0.10598-8.7703 0.84857-12.974 1.1216-4.9193 3.2524-9.6338 5.662-14.102 1.5173-2.8128 5.392-8.921 5.5623-9.1398 1.4454 0.35311 3.3892 0.49045 5.0231 0.56724 1.7501 0.0816 3.5318-0.82276 3.5318-0.82276s-1.7988 0.31408-3.5131 0.23334c-1.7163-0.0799-3.9489-0.2777-5.1278-0.74017-1.2084-0.25595-2.4405-0.77022-3.5447-1.4001-0.3744-0.21294-0.77032-0.57163-1.02-0.79229 2.7835 0.89977 5.776 1.3417 8.5731 1.3184 2.545-0.0178 5.3005-0.41744 7.81-1.368 2.1192-0.80292 4.1287-2.1816 5.539-3.9902 1.7819-2.2842 2.2929-5.2365 3.1263-7.8316 1.329-4.137 1.1047-8.5173 3.0281-12.255 0.33448-0.65131 0.9671-1.0983 1.4285-1.6661 0.601-0.73791 1.384-1.377 1.7416-2.2603 1.0687-2.644 1.183-5.6634 0.95656-8.5084-0.24355-3.0299-0.96924-6.1526-2.4483-8.7799-1.3988-2.4824-3.2217-4.2653-5.6645-5.5515-2.8603-1.5061-6.1527-2.2899-9.3671-2.3669-3.9474-0.09444-8.1613 0.46379-11.693 2.3669-2.171 1.5812-4.3692 3.6475-5.772 5.7681-1.4031 2.1207-2.2549 4.9081-2.2549 4.9081s0.4571-3.2446 1.6908-5.6142c1.2359-2.3696 4.0568-6.2001 6.2992-7.9741zm11.706 1.3759c3.0961 0.07412 6.2768 0.82847 9.0099 2.2677 2.3642 1.2449 4.0547 2.9613 5.3322 5.2293 1.3353 2.3691 2.1442 5.5122 2.415 8.4212 0.25196 2.7101 0.21381 5.5916-0.76181 8.1297-0.33005 0.85495-1.0666 1.4872-1.6422 2.1978-0.4952 0.61226-1.1872 1.0808-1.5575 1.7779-1.9787 3.7329-1.9575 8.3493-3.2183 12.274-0.8571 2.6698-1.3904 5.5155-3.0034 7.5838-1.3015 1.6677-3.1803 2.9638-5.1698 3.7176-2.2904 0.86779-4.9372 1.3715-7.5207 1.3926-3.1034 0.0266-6.3102-0.2613-9.0223-1.3802-1.748-0.72135-3.2814-2.1412-4.4189-3.7175-1.5724-2.178-2.6036-4.8484-2.9911-7.5218-0.39347-2.7179 0.10598-5.585 0.76398-8.3273 0.60735-2.5472 2.6722-4.8317 3.0649-7.7449 0.33448-2.4768-0.83802-4.799-0.76394-6.9766 0.10598-2.87 0.29634-5.3287 1.5618-7.76 1.4644-2.8149 3.8585-5.7933 6.6477-7.296 3.3504-1.8052 7.4182-2.3601 11.275-2.2677zm-11.949 13.356c0.58409 0.18099 1.2528 0.38062 1.7438 0.65942 0.39791 0.22491 0.88672 0.53868 1.2549 0.91698 0.3682 0.37884 0.61586 0.80235 0.61586 1.3136 0 0.52151-0.19031 1.5231-0.39348 2.4784-0.21159 0.95522-0.45283 1.8798-0.56502 2.342-0.84862 3.4865-2.0146 5.3034-2.3877 5.9605-1.1957 2.0984-0.6222 4.1574-0.6222 4.1574s0.27281-1.8697 1.3353-3.7363c0.33005-0.57926 1.5977-2.5882 2.4741-6.1835 0.10598-0.44614 0.35134-1.3799 0.56503-2.3544 0.21381-0.97451 0.40634-1.9735 0.40634-2.6642 0-0.78054-0.38726-1.4213-0.84862-1.896-0.46343-0.47453-0.80838-0.72817-1.2316-0.96803-0.6624-0.3753-1.4814-0.45178-2.2479-0.50062-0.52905-0.0311-1.5871 0.14462-1.5871 0.14462s1.1068 0.21204 1.4877 0.33049zm-1.8623 1.9973c-0.95868-0.0683-1.7904 0.34425-2.5357 0.83026-0.40013 0.26085-0.62854 0.66497-0.96081 1.0657 0 0 0.36598 1.4696 0.91003 1.9207 0.88668 0.7351 2.2343 0.91002 3.3358 0.86748 0.90155-0.0311 1.7692-0.33892 2.4987-0.83026 0.40856-0.27548 0.96076-1.1277 0.96076-1.1277s-0.55659-0.80615-0.93539-1.1029c-0.96076-0.75169-1.966-1.5297-3.274-1.6233zm16.395 0c-1.3628 0.13974-2.5022 0.84592-3.5572 1.611-0.40856 0.29545-1.0222 1.1153-1.0222 1.1153s0.61373 0.85546 1.0454 1.1277c0.79995 0.50247 1.7459 0.79587 2.7079 0.83026 1.2253 0.0448 2.5181-0.20806 3.5819-0.81794 0.7936-0.45424 1.8835-2.0001 1.8835-2.0001s-0.61369-0.80964-1.0454-1.0482c-1.0772-0.59576-2.3829-0.9199-3.5942-0.81788v4e-5zm-16.445 0.83026c0.96924 0.0692 2.002 0.68698 2.8565 1.2918 0.22624 0.16102 0.57771 0.60401 0.57771 0.60401s-0.35754 0.3123-0.56502 0.42099c-0.65179 0.34201-1.3798 0.67881-2.0929 0.70631-1.001 0.0399-2.0358-0.0918-2.7941-0.68157-0.34292-0.2666-0.61586-1.1524-0.61586-1.1524s0.35976-0.35976 0.57775-0.48344c0.63064-0.35622 1.4052-0.75294 2.0548-0.70636zm16.518 0c1.0348-0.10597 2.1501 0.29855 3.1388 0.71873 0.22845 0.0976 0.62854 0.40856 0.62854 0.40856s-0.24976 0.42188-0.43164 0.58241c-0.29632 0.26529-0.68142 0.41034-1.0327 0.59448-0.95654 0.50123-2.0887 0.75728-3.1636 0.71874-0.7957-0.0311-1.6147-0.23821-2.3321-0.60082-0.24754-0.12517-0.64753-0.52723-0.64753-0.52723s0.38504-0.37396 0.61368-0.51329c0.99887-0.61352 2.1359-1.2708 3.2277-1.3828zm20.211 0.68156c-0.6687 0.0479-1.3226 0.42809-1.7967 0.90461-0.85497 0.85877-1.2296 2.1104-1.6253 3.259-5e-3 0.0178-5e-3 0.0448-0.01329 0.0635-0.28346 1.5398-0.53964 3.0849-0.76398 4.6346-0.32383 2.241-0.83801 6.7411-0.83801 6.7411s3.1549-0.17788 4.505-0.90459c1.0179-0.54818 1.7818-1.518 2.4495-2.4659 0.81477-1.157 1.4327-2.4745 1.8369-3.8343 0.3957-1.3397 0.77032-2.7801 0.53965-4.1585-0.21159-1.2349-0.73434-2.5379-1.6739-3.3581-0.69624-0.60726-1.7015-0.9468-2.6207-0.88136zm0.06346 0.89223c0.69411-0.051 1.456 0.19874 1.9808 0.65671 0.78723 0.68547 1.2147 1.7806 1.3904 2.813 0.21381 1.2577-0.10598 2.5758-0.46557 3.7992-0.37884 1.284-0.9777 2.5208-1.7501 3.6111-0.59045 0.83225-1.2592 1.6862-2.1541 2.1686-0.9396 0.5069-3.1386 0.63192-3.1386 0.63192s0.42099-3.731 0.68991-5.5887c0.21781-1.5208 0.27947-3.0859 0.75125-4.5478 0.33226-1.0316 0.67934-2.1447 1.4391-2.9121 0.33004-0.33314 0.78935-0.59767 1.2549-0.63191zm-29.627 14.189c-0.45288 0.16591-1.1999 0.81159-1.1999 0.81159s0.99887 0.12864 1.4581-0.0311c0.49095-0.17079 1.2464-0.94143 1.2464-0.94143s-1.0306-0.0133-1.5046 0.16015zm-5.6129-0.41344s0.21781 0.93747 0.58406 1.1694c0.32161 0.20229 1.1364 0.0178 1.1364 0.0178s-0.47191-0.54751-0.76607-0.74965c-0.2879-0.19874-0.95441-0.43872-0.95441-0.43872zm-6.0654 12.277s3.2825-0.0705 4.9238-0.0666c1.6465 4e-3 3.2802-0.0572 4.9204-0.0572 1.6782 3e-3 3.3542 0.0399 5.0312 0.0741 1.6591 0.0311 4.9759 0.1224 4.9759 0.1224s-3.3104-0.46951-4.9759-0.60082c-1.6613-0.13086-3.3284-0.18276-4.9943-0.18587-1.6528-3e-3 -3.3081 0.0511-4.9573 0.16724-1.6464 0.1189-4.9238 0.54502-4.9238 0.54502zm8.7241 27.455c0.23512 0.41787 0.69625 1.0584 0.66454 1.2763-0.28347 1.9513-1.0433 3.893-1.3904 5.9729-0.58197 3.4919-1.1025 7.0424-1.0708 10.62 0.0222 2.9874 1.0348 8.699 1.0348 8.699l0.79996-0.14816s-0.99674-5.7446-1.0222-8.5504c-0.0222-3.492 0.4783-7.0032 1.0581-10.483 0.32606-1.9619 1.1004-3.9157 1.403-5.9976 0.10598-0.76522-0.5502-1.2489-1.0052-1.7758-0.45284-0.52657-1.3247-1.0206-1.3247-1.0206s0.58409 0.93005 0.85282 1.4085zm58.627 10.298c1.0264 3.7875 2.2722 7.5171 3.7049 11.153 1.4411 3.6593 3.353 7.1554 4.8743 10.632 1.2062 2.7547 1.7417 5.8927 1.6126 8.9097-0.12687 3.0933-0.78727 6.3315-2.4003 8.8972-1.2909 2.0539-3.4757 3.5801-5.6004 4.8205-0.41079 0.23999-0.92479 0.37218-1.3417 0.48344 0.19031-1.015 1.7205-8.9045 2.0548-13.482 0.48039-6.5445 0.96077-13.238-0.1056-19.777-0.64123-3.9182-1.803-7.7609-2.7941-11.636z" color="#000000" color-rendering="auto" dominant-baseline="auto" image-rendering="auto" shape-rendering="auto" solid-color="#000000" stroke="#000" stroke-width="1.3353" style="font-feature-settings:normal;font-variant-alternates:normal;font-variant-caps:normal;font-variant-ligatures:normal;font-variant-numeric:normal;font-variant-position:normal;isolation:auto;mix-blend-mode:normal;shape-padding:0;text-decoration-color:#000000;text-decoration-line:none;text-decoration-style:solid;text-indent:0;text-orientation:mixed;text-transform:none;white-space:normal"/>
 </g>
</svg>
