<?xml version="1.0" encoding="UTF-8"?>
<svg width="32px" height="32px" version="1.1" viewBox="0 0 42.421 42.421" xmlns="http://www.w3.org/2000/svg">
    <style> #filler { fill: #1e90ff; } @media (prefers-color-scheme: dark) { #filler { fill: #87cefa; } }
</style>
 <g transform="translate(-81.599 -100.5)" stroke-linecap="round">
  <path d="m102.81 100.63c-11.641 0-21.078 9.437-21.078 21.078s9.437 21.078 21.078 21.078 21.078-9.437 21.078-21.078-9.437-21.078-21.078-21.078z" fill="#fff"/>
  <path id="filler" d="m102.81 100.63a21.078 21.078 0 0 0-21.078 21.078 21.078 21.078 0 0 0 21.078 21.078 21.078 21.078 0 0 0 21.078-21.078 21.078 21.078 0 0 0-21.078-21.078zm-16.446 10.038h2.4288l-1.7347 3.1538 1.7347 3.1543h-2.4288zm5.4197 0a3.1541 3.1541 0 0 1 0.0052 0 3.1541 3.1541 0 0 1 3.1543 3.1538 3.1541 3.1541 0 0 1-3.1543 3.1543 3.1541 3.1541 0 0 1-3.1538-3.1543 3.1541 3.1541 0 0 1 3.1485-3.1538zm0.10335 0.72294c-0.26451 0-0.50188 0.0336-0.71262 0.10077-0.21071 0.0628-0.39052 0.15438-0.53847 0.27542s-0.26243 0.26956-0.34313 0.44442c-0.0807 0.17037-0.12092 0.36253-0.12092 0.57774 0 0.21518 0.0385 0.39946 0.11472 0.55188 0.07621 0.14794 0.17454 0.2758 0.29559 0.38343 0.12105 0.10311 0.25788 0.19072 0.41031 0.26252 0.15243 0.0673 0.3049 0.12706 0.45733 0.18086 0.3497 0.11655 0.59602 0.22657 0.73947 0.32969 0.14346 0.0986 0.21497 0.22376 0.21497 0.37621 0 0.0717-0.01064 0.13703-0.03307 0.19533-0.02241 0.0583-0.06315 0.10971-0.12144 0.15451-0.05828 0.0403-0.13649 0.0744-0.23512 0.10129-0.09415 0.0226-0.21482 0.0331-0.36277 0.0331-0.29591 0-0.5472-0.0285-0.75344-0.0868-0.20174-0.0628-0.37261-0.13257-0.51159-0.20877l-0.29559 0.83403c0.06277 0.0359 0.13874 0.0738 0.22841 0.11421 0.09415 0.0403 0.20416 0.0783 0.32969 0.1142 0.13001 0.0359 0.27802 0.0654 0.44389 0.0878 0.16588 0.027 0.35239 0.0398 0.55861 0.0398 0.6142 0 1.0728-0.11845 1.3777-0.35605 0.30488-0.24209 0.45786-0.58107 0.45786-1.0159 0-0.22415-0.02904-0.4141-0.08733-0.57102-0.05828-0.15691-0.14818-0.29371-0.26924-0.41031-0.11656-0.11657-0.26405-0.21772-0.44338-0.30281-0.17933-0.0897-0.39042-0.17912-0.6325-0.26871-0.11657-0.0403-0.22383-0.0788-0.32247-0.11472-0.09415-0.0404-0.17959-0.0823-0.2558-0.12712-0.07172-0.0493-0.12759-0.10345-0.16795-0.16175-0.04034-0.0583-0.06046-0.13039-0.06046-0.21548 0-0.14346 0.05363-0.24906 0.16123-0.31626 0.11208-0.0718 0.2936-0.10697 0.54466-0.10697 0.22416 0 0.41462 0.0268 0.57154 0.0806 0.16139 0.0493 0.30665 0.10798 0.43666 0.17518l0.30281-0.82734c-0.14795-0.0807-0.33618-0.15449-0.56482-0.22169-0.22864-0.0673-0.49955-0.10128-0.81337-0.10128zm18.288 0c0.19726 0 0.37655 0.0156 0.53794 0.047 0.1614 0.0268 0.30268 0.0604 0.42375 0.10077 0.12105 0.0359 0.22161 0.0743 0.30231 0.11472 0.0807 0.0404 0.13929 0.0711 0.17518 0.0935l-0.30281 0.84801c-0.14346-0.0762-0.31157-0.14154-0.50434-0.19534-0.18829-0.0538-0.40333-0.0806-0.64542-0.0806-0.1614 0-0.32056 0.0268-0.47748 0.0806-0.15243 0.0538-0.28927 0.14147-0.41031 0.26252-0.11657 0.11656-0.21045 0.26852-0.28215 0.45682s-0.108 0.41727-0.108 0.68627c0 0.2152 0.0224 0.41682 0.0672 0.60512 0.0493 0.18382 0.12528 0.34298 0.2284 0.47749 0.1076 0.1345 0.24666 0.24176 0.41703 0.32247 0.17037 0.0762 0.37698 0.11472 0.61907 0.11472 0.15243 0 0.28873-9e-3 0.40978-0.0269s0.22887-0.0381 0.32297-0.0605c0.0941-0.0269 0.17738-0.0559 0.24908-0.0873 0.0717-0.0315 0.13652-0.0609 0.19482-0.0879l0.28939 0.84129c-0.14793 0.0897-0.35628 0.17004-0.62528 0.24184s-0.58065 0.10749-0.93481 0.10749c-0.75768 0-1.3363-0.2111-1.7353-0.63251-0.39451-0.42142-0.59168-1.0196-0.59168-1.7952 0-0.38554 0.0609-0.72899 0.1819-1.0294 0.12105-0.30485 0.28641-0.56012 0.49712-0.76636 0.21072-0.21071 0.46201-0.36983 0.75345-0.47749 0.2914-0.10761 0.60752-0.16122 0.94825-0.16122zm-14.105 0.108h3.1474v0.88055h-2.098v0.91465h1.8629v0.86042h-1.8629v1.1229h2.2526v0.88108h-3.302v-4.6595zm4.0722 0h1.049v3.7589h2.065v0.90071h-3.1141v-4.6595zm3.7827 0h3.1474v0.88055h-2.0985v0.91465h1.8634v0.86042h-1.8634v1.1229h2.2531v0.88108h-3.302v-4.6595zm8.1731 0h3.8602v0.89349h-1.4051v3.766h-1.049v-3.766h-1.4061v-0.89349zm-25.575 7.0542h2.4282l-1.7347 3.1543 1.7347 3.1538h-2.4282zm5.2617 0a3.1541 3.1541 0 0 1 0.0052 0 3.1541 3.1541 0 0 1 3.1543 3.1543 3.1541 3.1541 0 0 1-3.1543 3.1538 3.1541 3.1541 0 0 1-3.1538-3.1538 3.1541 3.1541 0 0 1 3.1485-3.1543zm10.875 0.72294h5.2e-4c0.3136 4e-5 0.58485 0.034 0.81337 0.10128 0.22865 0.0673 0.41687 0.14099 0.56482 0.22169l-0.30231 0.82734c-0.13-0.0672-0.27577-0.12588-0.43716-0.17518-0.15691-0.0538-0.34687-0.0806-0.57102-0.0806-0.25107 0-0.43309 0.0357-0.54516 0.10748-0.1076 0.0673-0.16175 0.1728-0.16175 0.31626 0 0.0852 0.0207 0.15667 0.061 0.21497 0.0404 0.0583 0.0968 0.11244 0.16846 0.16174 0.0762 0.0448 0.16066 0.0872 0.25476 0.12764 0.0986 0.036 0.20642 0.0738 0.32297 0.11421 0.2421 0.0897 0.45267 0.17911 0.63201 0.2687 0.17932 0.0852 0.32784 0.18675 0.44441 0.30334 0.12105 0.11656 0.21093 0.2534 0.26924 0.41031 0.0583 0.15693 0.0868 0.34687 0.0868 0.57102 0 0.43486-0.15246 0.77334-0.45732 1.0154-0.30488 0.23758-0.76451 0.35658-1.3787 0.35658-0.20623 0-0.39222-0.0134-0.55811-0.0403-0.16588-0.0224-0.31337-0.0514-0.44338-0.0873-0.12553-0.0359-0.23559-0.0743-0.32969-0.11472-0.0897-0.0403-0.16561-0.0783-0.22841-0.1142l0.29559-0.83404c0.13898 0.0762 0.30932 0.14607 0.51106 0.20877 0.20624 0.0583 0.45701 0.0873 0.75292 0.0873 0.14794 0 0.26968-0.0112 0.36379-0.0336 0.0986-0.0269 0.17683-0.0604 0.23513-0.10076 0.0582-0.0448 0.0985-0.0962 0.12092-0.15451 0.0224-0.0583 0.0336-0.12354 0.0336-0.19534 0-0.15244-0.0715-0.27812-0.21497-0.37671-0.14347-0.1031-0.39031-0.21258-0.74001-0.32916-0.15243-0.0538-0.30437-0.11408-0.45682-0.18138-0.15243-0.0717-0.28927-0.1594-0.41031-0.26252-0.12105-0.1076-0.22042-0.23498-0.29662-0.38292-0.0762-0.15244-0.11369-0.33671-0.11369-0.55189 0-0.21521 0.0402-0.4079 0.12092-0.57824 0.0807-0.17486 0.19518-0.32287 0.34313-0.44389 0.14795-0.12104 0.32671-0.21273 0.53742-0.27542 0.21056-0.0671 0.4483-0.10124 0.71262-0.10129zm14.15 0.0537c0.69939 0 1.235 0.12618 1.6071 0.37724 0.37211 0.24658 0.5581 0.63198 0.5581 1.1565 0 0.32728-0.076 0.59372-0.2284 0.79993-0.14795 0.20175-0.36351 0.36089-0.64595 0.47749 0.0941 0.11657 0.19299 0.25116 0.29609 0.40359 0.10312 0.14794 0.20371 0.30487 0.30231 0.47076 0.10311 0.16139 0.20201 0.33173 0.29609 0.51107 0.0941 0.17486 0.18182 0.34744 0.26252 0.51778h-1.1772c-0.0852-0.15244-0.17281-0.30715-0.26251-0.46405-0.0852-0.15691-0.174-0.30887-0.26821-0.45682-0.0897-0.14796-0.17953-0.28752-0.26924-0.41753-0.0897-0.13451-0.17901-0.25512-0.2687-0.36277h-0.51832v1.7012h-1.049v-4.5928c0.22864-0.0448 0.46378-0.0762 0.7059-0.094 0.24657-0.0171 0.46661-0.0274 0.65938-0.0274zm-20.739 0.0543h0.8542c0.14795 0.14794 0.3116 0.32946 0.49093 0.54467 0.17933 0.21519 0.36136 0.44587 0.54517 0.69246 0.1883 0.24209 0.37427 0.49564 0.5581 0.76014 0.18381 0.26002 0.35589 0.51082 0.51728 0.75291v-2.7503h1.0428v4.66h-0.88108c-0.30038-0.53353-0.62542-1.0602-0.97511-1.5803s-0.7222-1.0104-1.1167-1.4722v3.0525h-1.0356v-4.66zm8.5279 0h1.1369c0.0448 0.26451 0.094 0.53988 0.14779 0.82682 0.0538 0.28244 0.10965 0.56779 0.16795 0.85472 0.0583 0.28691 0.11688 0.56454 0.17518 0.83354 0.0628 0.26899 0.12582 0.51804 0.18862 0.74672 0.0807-0.21969 0.15892-0.45309 0.23512-0.69968 0.0762-0.24657 0.14999-0.49291 0.22169-0.73948s0.13652-0.48447 0.19482-0.71312c0.0628-0.22865 0.11864-0.43304 0.16794-0.61237h0.89452c0.0538 0.18381 0.11238 0.39319 0.17518 0.62631 0.0673 0.22866 0.13656 0.46604 0.20825 0.71262l0.22893 0.73898c0.0762 0.24657 0.15051 0.47605 0.2222 0.68677 0.0583-0.22866 0.11637-0.47773 0.17467-0.74673 0.0628-0.269 0.12086-0.54662 0.17466-0.83353 0.0538-0.28694 0.10521-0.57226 0.15451-0.85473 0.0538-0.28693 0.10351-0.56231 0.14831-0.82681h1.0893c-0.15692 0.78009-0.33842 1.5715-0.54466 2.374-0.20175 0.8025-0.42177 1.5643-0.65939 2.2861h-0.9617c-0.1569-0.43039-0.30887-0.88111-0.45682-1.3518-0.14795-0.47521-0.29424-0.9505-0.43769-1.4257l-0.42995 1.4257c-0.14346 0.47074-0.29368 0.92143-0.4506 1.3518h-0.9617c-0.23761-0.7218-0.45986-1.4836-0.6661-2.2861-0.20175-0.8025-0.38103-1.5939-0.53795-2.374zm6.7743 0h3.1472v0.88108h-2.098v0.91415h1.8624v0.86092h-1.8624v1.1229h2.2526v0.88108h-3.3017v-4.66zm-20.034 0.22273c-0.14145 0.29098-0.279 0.59046-0.41238 0.89761-0.12933 0.3031-0.26256 0.62375-0.39996 0.96323-0.13337 0.33948-0.27093 0.70177-0.41238 1.0857s-0.29093 0.80204-0.44854 1.2547h0.98183c0.04446-0.14549 0.09318-0.29498 0.14572-0.44855 0.05658-0.15357 0.11076-0.30738 0.1633-0.46095h1.6371c0.05255 0.15357 0.10507 0.30737 0.15761 0.46095 0.05658 0.15357 0.10696 0.30305 0.15141 0.44855h1.0123c-0.15762-0.45265-0.3071-0.87076-0.44854-1.2547-0.14145-0.38394-0.28064-0.74623-0.41806-1.0857-0.13337-0.33948-0.26659-0.66015-0.39997-0.96323-0.13337-0.30715-0.26929-0.6066-0.40668-0.89761h-0.90277zm25.531 0.61753c-0.0762 0-0.14545 3e-3 -0.20825 7e-3 -0.0583 4e-3 -0.11466 0.01-0.16846 0.0139v1.264h0.29558c0.39452 0 0.67765-0.0492 0.84801-0.1478 0.17037-0.0986 0.2558-0.26675 0.2558-0.50434 0-0.22865-0.0877-0.39052-0.26252-0.48471-0.17037-0.0986-0.42391-0.14779-0.76014-0.14779zm-25.1 0.33435c0.02425 0.0606 0.05622 0.14353 0.09663 0.24856 0.04041 0.10509 0.0875 0.22638 0.14004 0.36379 0.05657 0.1374 0.11456 0.28853 0.17518 0.45424 0.06062 0.16568 0.12343 0.34003 0.1881 0.52193h-1.1937c0.06466-0.18188 0.12696-0.35623 0.18758-0.52193 0.06467-0.16571 0.12316-0.31684 0.1757-0.45424 0.05254-0.13741 0.0986-0.25877 0.13901-0.36379 0.04042-0.10507 0.07125-0.18796 0.09146-0.24856zm-5.2461 5.8803h2.4282l-1.7347 3.1538 1.7347 3.1543h-2.4282zm5.2617 0a3.1541 3.1541 0 0 1 0.0052 0 3.1541 3.1541 0 0 1 3.1543 3.1538 3.1541 3.1541 0 0 1-3.1543 3.1543 3.1541 3.1541 0 0 1-3.1538-3.1543 3.1541 3.1541 0 0 1 3.1485-3.1538zm14.569 0.79683c0.6994 0 1.235 0.12564 1.6071 0.37671 0.3721 0.24658 0.5581 0.63195 0.5581 1.1565 0 0.32728-0.076 0.59422-0.2284 0.80046-0.14795 0.20176-0.36298 0.36089-0.64542 0.47749 0.0942 0.11656 0.19246 0.25115 0.29559 0.40359 0.10311 0.14793 0.2037 0.30487 0.30231 0.47076 0.10311 0.16138 0.20252 0.33173 0.29662 0.51107 0.0941 0.17485 0.18078 0.34739 0.26148 0.51778h-1.1767c-0.0852-0.15245-0.17281-0.30715-0.26251-0.46405-0.0852-0.15691-0.1741-0.30937-0.26821-0.45732-0.0897-0.14793-0.17953-0.28702-0.26924-0.41704-0.0897-0.13448-0.17953-0.25561-0.26923-0.36326h-0.51779v1.7017h-1.049v-4.5934c0.22865-0.0449 0.46378-0.0756 0.7059-0.0935 0.24658-0.0171 0.46661-0.0274 0.65938-0.0274zm-16.121 0.0274v4.66h3.1136v-0.90121h-2.0644v-3.7589h-1.049zm5.8369 0.0263h3.1474v0.88108h-2.098v0.91466h1.8629v0.86041h-1.8629v1.1234h2.2526v0.88055h-3.302v-4.66zm5.457 0h1.0025c0.15244 0.32279 0.30215 0.65455 0.4501 0.99528 0.14795 0.33625 0.29646 0.69309 0.44442 1.0697 0.15242 0.37661 0.30715 0.7776 0.46404 1.2035 0.15692 0.4259 0.32279 0.88947 0.49765 1.3916h-1.1229c-0.0493-0.16139-0.10567-0.32728-0.16847-0.49765l-0.17466-0.51056h-1.8159c-0.0583 0.17038-0.11859 0.3402-0.18139 0.51056-0.0583 0.17035-0.11244 0.33623-0.16174 0.49765h-1.0898c0.17485-0.50212 0.34125-0.96572 0.49815-1.3916 0.15692-0.42592 0.30887-0.82694 0.45682-1.2035 0.15243-0.3766 0.30096-0.73344 0.44442-1.0697 0.14794-0.34073 0.2999-0.67249 0.45682-0.99528zm7.9535 0h0.85472c0.14795 0.14795 0.3116 0.32999 0.49093 0.5452 0.17934 0.21519 0.36083 0.44587 0.54466 0.69246 0.1883 0.24209 0.37428 0.49513 0.55811 0.75963 0.18382 0.26003 0.35639 0.51133 0.51778 0.75345v-2.7506h1.0423v4.66h-0.88158c-0.30038-0.5335-0.62492-1.0597-0.97461-1.5797-0.3497-0.52006-0.72167-1.0115-1.1162-1.4733v3.053h-1.0361v-4.66zm-3.066 0.84076c-0.0762 0-0.14545 3e-3 -0.20825 7e-3 -0.0583 4e-3 -0.11466 0.01-0.16846 0.0139v1.264h0.29609c0.39451 0 0.67661-0.0492 0.84697-0.14779 0.17036-0.0986 0.25528-0.26725 0.25528-0.50487 0-0.22864-0.0866-0.38999-0.26148-0.48421-0.17037-0.0987-0.42391-0.14779-0.76014-0.14779zm-4.41 0.21497c-0.0224 0.0673-0.0554 0.15937-0.10025 0.27596-0.0448 0.11656-0.0967 0.25116-0.15503 0.40359-0.0583 0.15243-0.12312 0.32001-0.19481 0.50384-0.0673 0.18381-0.13656 0.37703-0.20826 0.57877h1.3245c-0.0717-0.20175-0.14095-0.39497-0.20825-0.57877-0.0672-0.18382-0.13254-0.35142-0.19533-0.50384-0.0582-0.15243-0.10972-0.28699-0.15451-0.40359-0.0448-0.11655-0.0811-0.20865-0.10801-0.27596z"/>
 </g>
</svg>
