<?xml version="1.0" encoding="UTF-8"?>
<svg width="293.97mm" height="212.84mm" version="1.1" viewBox="0 0 293.97 212.84" xmlns="http://www.w3.org/2000/svg">
 <g transform="translate(-40.181 -314.99)">
  <path transform="matrix(.26458 0 0 .26458 40.181 314.99)" d="m378.73 0-4.9512 24.102-22.951 20.74 1.3672 27.516 9.7656-24.9 22.965-20.738-6.1953-26.719zm156.7 26.424-70.012 37.785-71.393-11.82-37.072 53.357 48.494-29.164 71.406 11.844 58.576-62.002zm-200.03 79.324-81.93 289.96h30.229l61.98-218.62 61.762 218.62h30.449l-81.93-289.96h-20.561zm83.66 2.3184-42.279 5.6133 39.66 11.898 34.922 32.789 40.436-12.959-37.816-4.5703-34.922-32.771zm299.44 41.461c-1.893 0.00553-3.8054 0.1453-5.6465 0.66407-2.6782 0.75458-5.2859 2.0228-7.4785 3.7578-1.9927 1.5766-3.6509 3.6191-4.8965 5.8281-1.089 1.9317-1.7809 4.0948-2.1406 6.2715-0.12624 0.76554-0.19229 1.8727-0.18359 2.8125 0.00378 0.53839 0.07234 1.0764 0.14453 1.6113 0.22526 1.9438 1.099 4.0057 0.85742 5.8066-0.29556 2.1895-2.026 4.1212-2.6016 6.5352-0.56436 2.3647-1.019 4.8792-0.66016 7.3477 0.34621 2.3872 1.2599 4.768 2.6738 6.7266 0.72121 1.0001 1.3896 1.723 2.1953 2.4746 0.76808 0.71535 1.5835 1.3983 2.4922 1.918 1.0259 0.58643 2.2073 1.1218 3.2871 1.3223-0.27402 0.35149-3.3131 5.2349-4.6504 7.7148-2.0686 3.836-3.9204 7.8985-4.8965 12.184-0.83841 3.6787-0.89018 7.4976-0.74414 11.232 0.1081 2.8437 1.16 8.0629 1.2051 8.2891-2.3502 1.6859-4.8248 3.6313-6.0703 6.3438-2.5064 5.458-2.7157 11.981-1.752 17.865 0.87447 5.3462 2.4203 11.513 6.7539 14.959 4.1349 3.2885 9.5951 3.9989 15.014 4.1836v226.79h38.1v-227.77h-13.938c3.5125-0.65335 6.9351-1.6542 10.156-3.166 1.3288-0.62397 2.8763-2.0024 4.1211-3.2305 1.2441-1.2282 1.9922-2.4707 1.9922-2.4707 2.2327-0.45944 7.5782-1.4534 11.127-3.1465 2.9059-1.3866 5.7935-3.163 7.959-5.6172 1.7345-1.9657 2.8297-4.44 3.6719-6.873 0.77348-2.2354 1.2751-4.6205 1.248-7.0098-0.03779-3.3226-0.5281-6.7744-1.9941-9.8301-1.7237-3.5937-3.1859-6.2963-4.5293-9.5332-1.4262-3.4379-2.956-6.8552-3.7344-10.441-0.64188-2.9571-0.82511-6.025-0.76562-9.0684 0.05404-2.5721 0.42486-5.154 0.95312-7.6875 0.48684-2.3295 1.1643-4.6241 2.0254-6.8398 0.5373-1.3826 1.1903-2.7291 1.9492-4.002 0.69596-1.1677 1.4941-2.2744 2.3711-3.3164 0.67612-0.80383 1.3712-1.5847 2.1699-2.2051 0.88346-0.68644 1.8731-1.2595 2.9062-1.7012 1.0836-0.46326 2.2109-0.84736 3.3438-0.96094 1.1503-0.11527 2.3424-0.06892 3.4102 0.27539 1.2441 0.40165 2.4384 1.1042 3.3555 2.0274 0.90871 0.91441 1.5429 2.1471 2.0234 3.4004 0.41646 1.0835 0.66992 2.245 0.66992 3.3887 0 1.1436-0.25508 2.315-0.66992 3.3984-0.47063 1.2282-1.2289 2.3668-2.0547 3.4316-0.94658 1.2205-2.5757 2.0208-3.5137 3.5488-0.41288 0.67079-0.72343 1.468-0.75586 2.291-0.0378 0.99205-0.00295 2.2631 0.80859 3.082 0.81317 0.81891 2.0656 0.8408 3.0508 0.80274 0.8168-0.03402 1.6097-0.34504 2.2754-0.75977 2.0296-1.2629 3.5849-3.1608 4.9922-5.0156 1.1522-1.5179 2.2396-3.1709 2.8535-5.0254 0.61481-1.8578 0.69845-3.8415 0.71289-5.7441 0.01512-2.1357-0.05295-4.3631-0.71289-6.4512-0.74287-2.344-1.9403-4.622-3.5762-6.4707-1.5127-1.7097-3.4279-3.1505-5.5488-4.0117-2.5015-1.0157-5.3104-1.3865-7.9902-1.1621-3.2409 0.27137-6.5109 1.2892-9.293 2.998-3.1603 1.941-5.6573 4.8652-7.791 7.8457-1.2549 1.7526-2.0324 3.7739-2.8418 5.7012-0.86725 2.0642-1.5767 4.1937-2.2031 6.334-0.61663 2.1035-1.1904 4.2407-1.5293 6.4297-0.38407 2.4725-0.67381 4.9912-0.55664 7.5176 0.10809 2.4638 0.6651 4.8744 1.2168 7.2637-1.8833-6.6313-4.1913-13.135-7.4863-19.131-1.2748-2.3184-3.7284-5.3028-5.873-7.7383-2.0547-2.3336-3.6739-3.9812-3.8184-4.1289 0.80413-1.5181 1.5393-3.0944 2.0254-4.7617 0.80776-2.7765 1.1699-5.6622 1.4043-8.5195 0.14438-1.6648 0.09033-3.339 0-4.9844-0.10809-2.354-0.2037-4.7469-0.70312-7.0938-0.46519-2.1913-1.0656-4.4167-2.1289-6.4297-1.0259-1.9409-2.3469-3.8044-4.0176-5.2578-1.7327-1.508-3.8182-2.6343-5.9766-3.3691-3.1912-1.0829-6.6034-1.3244-9.9102-1.4238v-0.00195c-0.62344-0.01871-1.2518-0.03114-1.8828-0.0293zm0.00195 0.70704c0.62004-0.00157 1.2403 0.01068 1.8594 0.02929v0.00195c3.2864 0.09903 6.6339 0.33872 9.7012 1.3828 2.0821 0.70881 4.0828 1.8016 5.7363 3.2402 1.5849 1.379 2.8643 3.163 3.8594 5.0469 1.0133 1.9201 1.607 4.0853 2.0664 6.25 0.4814 2.2678 0.57424 4.6195 0.69141 6.9785 0.09033 1.6373 0.12623 3.2778 0 4.8887-0.23245 2.8356-0.59685 5.6774-1.3848 8.3828-0.49043 1.6823-1.2367 3.2985-2.0762 4.8574-0.76989 1.432-2.4844 4.3965-2.4844 4.3965s1.9161-2.089 2.8418-3.6582c0.24151 0.24794 1.6878 1.7182 3.6602 3.959 2.1312 2.4203 4.5651 5.4172 5.7773 7.623 5.331 9.7008 8.6598 20.622 10.455 31.578 0.89427 5.461 0.4921 11.116 0.08984 16.691-0.28838 3.928-1.7117 11.376-1.791 11.793-1.3739 0.63292-2.731 1.2055-4.2031 1.5996-2.1285 0.56976-3.8359 1.1777-3.8359 1.1777s1.8303-0.01568 3.9805-0.59179c2.1503-0.57559 4.6766-1.3561 6.2812-2.248 1.9083-1.0606 3.8239-2.4413 5.0234-4.3496 1.4695-2.3379 2.0435-5.2046 2.1602-7.918 0.10809-2.6743-0.36106-5.4412-1.4375-7.8984-1.3144-3.0022-2.9362-5.9855-4.1426-9.0469-1.3703-3.4784-2.6371-7.0058-3.5332-10.621-0.70862-2.8592-1.3102-5.7655-1.4473-8.6797-0.1081-2.4521 0.16178-4.9272 0.53515-7.3789 0.33185-2.1361 0.9065-4.2405 1.5195-6.3359 0.62203-2.1241 1.329-4.2291 2.1816-6.2598 0.81494-1.941 1.5738-3.9101 2.7578-5.5644 2.1084-2.9453 4.5602-5.791 7.5938-7.6543 2.6795-1.6458 5.8512-2.6398 8.9863-2.9023 2.5747-0.21581 5.2774 0.14927 7.666 1.1191 2.0053 0.81433 3.8384 2.1969 5.2852 3.832 1.5578 1.7611 2.7128 3.9454 3.4297 6.207 0.62203 1.9627 0.69608 4.1142 0.68164 6.2305-0.01134 1.8829-0.10821 3.7878-0.68164 5.5215-0.57517 1.737-1.6056 3.3435-2.7363 4.834-1.3956 1.8393-2.9048 3.6668-4.8027 4.8476-0.58779 0.36586-1.273 0.61707-1.9297 0.64258-0.93578 0.03817-1.9928-0.05379-2.5391-0.60156-0.54633-0.55004-0.63176-1.6122-0.5957-2.5547 0.0189-0.66074 0.28635-1.3394 0.65039-1.9316 0.79514-1.2963 2.3876-2.0976 3.4707-3.4941 0.84745-1.0933 1.6412-2.2858 2.1504-3.6113 0.44175-1.1498 0.72265-2.4018 0.72265-3.6523 0-1.2506-0.28083-2.4928-0.72265-3.6426-0.49943-1.3004-1.1669-2.6209-2.1816-3.6426-1.0061-1.0128-2.2932-1.773-3.6387-2.207-1.1954-0.38547-2.4776-0.4167-3.6914-0.29492-1.2423 0.12435-2.431 0.53745-3.5449 1.0137-1.0836 0.46273-2.1262 1.0556-3.0625 1.7832-0.86726 0.67408-1.5917 1.4994-2.2754 2.3125-0.8979 1.0684-1.7254 2.2063-2.4434 3.4102-0.77892 1.307-1.4403 2.6881-1.9922 4.1074-0.87447 2.2533-1.5626 4.5807-2.0566 6.9473-0.53371 2.561-0.92234 5.1799-0.97461 7.8125-0.05405 3.0821 0.12529 6.2101 0.78515 9.2383 0.79877 3.6816 2.3434 7.142 3.7656 10.568 1.3595 3.2768 2.8345 5.9876 4.5508 9.5644 1.4028 2.9236 1.8832 6.265 1.9199 9.5234 0.0189 2.2837-0.45339 4.5997-1.207 6.7773-0.82942 2.3936-1.8959 4.7849-3.5332 6.6406-2.0715 2.3476-4.8695 4.0734-7.7285 5.4375-4.0597 1.9369-13.236 3.7486-13.168 4.0918 0 0 1.2808-0.01141 1.4629-0.04882-0.31181 0.35187-0.69208 0.80105-1.6152 1.7109-1.2224 1.2065-2.7699 2.553-3.9219 3.0938-4.6898 2.201-9.8475 3.2916-15.107 3.8106h-18.912v0.26367c-5.3537-0.19457-10.659-0.89538-14.59-4.0215-4.0755-3.2412-5.6347-9.2284-6.502-14.527-0.94659-5.7851-0.72403-12.176 1.6992-17.453 1.1846-2.5807 3.6227-4.5401 6.0098-6.2402 1.4803-1.0546 3.1976-1.8404 4.959-2.2793 2.4788-0.61777 5.1446-1.094 7.5195-0.44336 0.70499 0.19275 1.8137 0.91644 2.6465 1.5547 0.83301 0.63821 1.6367 0.91992 1.6367 0.91992s-0.46028-0.69226-1.3203-1.3516c-0.86007-0.65934-1.8669-1.5473-2.7852-1.7988-1.015-0.27799-2.0596-0.36403-3.1055-0.33203-0.05928-0.34474-0.819-4.7777-0.83984-7.0781-0.0189-2.9751 0.40637-5.9665 0.90039-8.9316 0.27779-1.6715 0.93747-3.3356 1.1953-5.1094 0.09033-0.65197-0.4678-1.0647-0.85547-1.5137-0.38581-0.44863-1.1289-0.86914-1.1289-0.86914s0.49759 0.79156 0.72656 1.1992c0.20031 0.35603 0.59343 0.90228 0.5664 1.0879-0.24151 1.6625-0.88983 3.3159-1.1855 5.0879-0.49584 2.9751-0.93917 6.0009-0.91211 9.0488 0.01789 2.4096 0.75348 6.6455 0.83594 7.1172-1.3831 0.10926-2.758 0.40149-4.0625 0.72656-1.675 0.41787-3.261 1.2088-4.709 2.1641-0.10809-0.54002-1.0515-5.2986-1.1543-7.9082-0.14437-3.7083-0.0887-7.473 0.72461-11.055 0.95562-4.1912 2.7713-8.2069 4.8242-12.014 1.2928-2.3965 4.5932-7.6007 4.7383-7.7871 1.2315 0.30085 2.8872 0.417 4.2793 0.48242 1.4911 0.06955 3.0098-0.70117 3.0098-0.70117s-1.5335 0.26801-2.9941 0.19922c-1.4623-0.06803-3.3647-0.23684-4.3691-0.63086-1.0296-0.21808-2.0787-0.6567-3.0195-1.1934-0.31899-0.18142-0.65639-0.48583-0.86914-0.67383 2.3715 0.76661 4.9216 1.1429 7.3047 1.123 2.1683-0.01512 4.5163-0.35614 6.6543-1.166 1.8055-0.6841 3.5172-1.8575 4.7188-3.3984 1.5182-1.9461 1.954-4.4628 2.6641-6.6738 1.1323-3.5247 0.94131-7.2565 2.5801-10.441 0.28498-0.55491 0.82372-0.93618 1.2168-1.4199 0.51205-0.62869 1.1797-1.1732 1.4844-1.9258 0.91053-2.2527 1.0074-4.8242 0.81445-7.248-0.20749-2.5815-0.8258-5.242-2.0859-7.4805-1.1918-2.115-2.7449-3.6346-4.8262-4.7305-2.437-1.2832-5.2419-1.95-7.9805-2.0156-3.3632-0.0805-6.9534 0.39417-9.9629 2.0156-1.8497 1.3472-3.7228 3.1072-4.918 4.9141-1.1954 1.8068-1.9219 4.1816-1.9219 4.1816s0.39025-2.7643 1.4414-4.7832c1.053-2.0189 3.4567-5.2815 5.3672-6.793h-0.00585c2.112-1.6711 4.6298-2.8998 7.2246-3.6309 1.75-0.49315 3.6008-0.62813 5.4609-0.63281zm-3.9512 5.4336c0.41481-0.0084 0.82755-0.00789 1.2383 0.00195 2.6378 0.06312 5.3491 0.70545 7.6777 1.9316 2.0143 1.0606 3.4545 2.5246 4.543 4.457 1.1377 2.0185 1.8259 4.6954 2.0566 7.1738 0.21467 2.309 0.18279 4.7652-0.64844 6.9277-0.2812 0.72842-0.90996 1.2656-1.4004 1.8711-0.42191 0.52165-1.0106 0.92171-1.3262 1.5156-1.6858 3.1804-1.668 7.1129-2.7422 10.457-0.73024 2.2747-1.1844 4.6988-2.5586 6.4609-1.1089 1.4209-2.7093 2.5258-4.4043 3.168-1.9514 0.73935-4.207 1.1696-6.4082 1.1875-2.6441 0.02268-5.3768-0.22243-7.6875-1.1758-1.4893-0.61459-2.7946-1.825-3.7637-3.168-1.3396-1.8556-2.2187-4.1304-2.5488-6.4082-0.33524-2.3156 0.08982-4.7593 0.6504-7.0957 0.51745-2.1702 2.2767-4.1156 2.6113-6.5977 0.28498-2.1102-0.71351-4.0901-0.65039-5.9453 0.09033-2.4452 0.25193-4.5399 1.3301-6.6113 1.2477-2.3983 3.2877-4.9364 5.6641-6.2168 2.4978-1.3458 5.4635-1.8748 8.3672-1.9336zm-8.8574 10.977c-0.45075-0.02646-1.3516 0.12305-1.3516 0.12305s0.94303 0.18229 1.2676 0.2832v-0.00195c0.49765 0.1542 1.0661 0.32495 1.4844 0.5625 0.33902 0.19162 0.75661 0.45893 1.0703 0.78125 0.3137 0.32277 0.52539 0.68359 0.52539 1.1191 0 0.44432-0.16283 1.2975-0.33593 2.1113-0.18029 0.81384-0.38684 1.6023-0.48243 1.9961-0.72302 2.9705-1.7153 4.5183-2.0332 5.0781-1.0187 1.7878-0.53125 3.543-0.53125 3.543s0.2334-1.5932 1.1387-3.1836c0.2812-0.49353 1.3608-2.2063 2.1074-5.2695 0.09033-0.38011 0.30037-1.1756 0.48243-2.0059 0.18217-0.83029 0.3457-1.6811 0.3457-2.2695 0-0.66501-0.32959-1.2108-0.72266-1.6152-0.39484-0.40429-0.69017-0.61986-1.0508-0.82421-0.56436-0.31975-1.261-0.38613-1.9141-0.42774zm-1.6719 2.1074c-0.81679-0.0582-1.5252 0.29295-2.1602 0.70703-0.34092 0.22224-0.53528 0.56676-0.81836 0.90821 0 0 0.31187 1.2524 0.77539 1.6367 0.75545 0.6263 1.9033 0.77452 2.8418 0.73828 0.76811-0.02646 1.5074-0.28841 2.1289-0.70703 0.3481-0.23471 0.81836-0.96094 0.81836-0.96094s-0.47414-0.68664-0.79687-0.93945c-0.81857-0.64045-1.6746-1.303-2.7891-1.3828zm13.969 0c-1.1611 0.11906-2.1305 0.71928-3.0293 1.3711-0.3481 0.25171-0.8711 0.95117-0.8711 0.95117s0.52284 0.72902 0.89063 0.96094c0.68156 0.4281 1.487 0.67774 2.3066 0.70703 1.0439 0.03817 2.1464-0.17766 3.0527-0.69727 0.67616-0.38702 1.6035-1.7031 1.6035-1.7031s-0.5228-0.68928-0.89063-0.89258c-0.91774-0.50759-2.0304-0.7842-3.0625-0.69727zm0.06446 0.70508v0.00195c0.88169-0.09033 1.8314 0.25334 2.6738 0.61133 0.19464 0.08315 0.53515 0.34961 0.53515 0.34961s-0.21223 0.35931-0.36719 0.4961c-0.25247 0.22601-0.58155 0.34897-0.88086 0.50586-0.81498 0.42704-1.7795 0.64612-2.6953 0.61328-0.67793-0.02646-1.3751-0.20278-1.9863-0.51172-0.21089-0.10659-0.55273-0.44922-0.55273-0.44922s0.32864-0.31879 0.52344-0.4375c0.85103-0.52271 1.8198-1.0842 2.75-1.1797zm-14.076 0.00195h0.00195c0.82579 0.05897 1.7055 0.58431 2.4336 1.0996 0.19276 0.1372 0.49219 0.51563 0.49219 0.51563s-0.3037 0.26678-0.48047 0.35937c-0.55533 0.29141-1.1756 0.57813-1.7832 0.60157-0.85285 0.03401-1.7349-0.07958-2.3809-0.58204-0.29216-0.22714-0.52539-0.98046-0.52539-0.98046s0.30646-0.30674 0.49219-0.41211c0.53729-0.3035 1.1965-0.64125 1.75-0.60157zm31.295 0.58008c-0.56973 0.04082-1.1274 0.36549-1.5312 0.77149-0.72843 0.73168-1.0476 1.7987-1.3848 2.7773-0.00378 0.01512-0.00221 0.03686-0.00976 0.05273-0.24152 1.312-0.46122 2.6289-0.65235 3.9492-0.2759 1.9093-0.71289 5.7441-0.71289 5.7441s2.6876-0.15232 3.8379-0.77148c0.86725-0.46704 1.519-1.294 2.0879-2.1016 0.69419-0.98578 1.2201-2.1071 1.5645-3.2656 0.33713-1.1414 0.65552-2.3686 0.45898-3.543-0.18028-1.0521-0.62524-2.1625-1.4258-2.8613-0.5932-0.51738-1.4492-0.80771-2.2324-0.75196zm0.05273 0.75977h0.00195c0.59139-0.04347 1.2404 0.17035 1.6875 0.56055 0.67072 0.58401 1.0339 1.5169 1.1836 2.3965 0.18217 1.0715-0.09016 2.194-0.39649 3.2363-0.32277 1.0939-0.83214 2.1492-1.4902 3.0781-0.50306 0.70908-1.0735 1.4366-1.8359 1.8477-0.80054 0.43189-2.6738 0.53711-2.6738 0.53711s0.35878-3.179 0.58789-4.7617c0.18558-1.2957 0.23868-2.6295 0.64063-3.875 0.28309-0.87889 0.57928-1.8266 1.2266-2.4805 0.2812-0.28384 0.6717-0.50988 1.0684-0.53906zm-30.023 11.736v0.00195s0.18601 0.79854 0.49805 0.99609c0.27402 0.17235 0.96875 0.01368 0.96875 0.01368s-0.40172-0.46644-0.65234-0.63868c-0.24529-0.16932-0.81446-0.37304-0.81446-0.37304zm6.0645 0.21679s-0.87737-0.01106-1.2812 0.13672c-0.38586 0.14136-1.0234 0.69141-1.0234 0.69141s0.85093 0.10872 1.2422-0.02735c0.41828-0.14551 1.0625-0.80078 1.0625-0.80078zm-2.8125 9.6367c-1.4082-0.00253-2.8195 0.04356-4.2246 0.14258-1.4027 0.10129-4.1953 0.46289-4.1953 0.46289v0.00195s2.7969-0.06004 4.1953-0.05664c1.4028 0.00371 2.7958-0.04883 4.1934-0.04883 1.4298 0.00246 2.8564 0.0334 4.2852 0.0625 1.4136 0.02646 4.2402 0.10547 4.2402 0.10547s-2.8213-0.39984-4.2402-0.51171c-1.4154-0.1115-2.8346-0.15556-4.2539-0.15821zm2.2773 0.97656s-1.6429 0.07353-2.4648 0.07618c-0.84923 0.00268-2.5469-0.0625-2.5469-0.0625s1.7008 0.19638 2.5547 0.19336c0.8222-0.00359 2.457-0.20704 2.457-0.20704zm46.736 31.967c0.86552 3.1683 1.9083 6.2892 3.1074 9.332 1.2279 3.1177 2.8562 6.0964 4.1523 9.0586 1.0277 2.347 1.483 5.0213 1.373 7.5918-0.10809 2.6355-0.67065 5.3941-2.0449 7.5801-1.0998 1.7499-2.9612 3.0506-4.7715 4.1074-0.34998 0.20448-0.78737 0.31537-1.1426 0.41016 0.16214-0.86479 1.4651-7.5861 1.75-11.486 0.40928-5.5759 0.81868-11.278-0.08985-16.85-0.53694-3.2809-1.4994-6.5002-2.334-9.7441zm-411.94 11.85-44.943 158.53h89.727l-44.783-158.53zm-246.38 31.525c-33.506 0-81.861 14.088-87.953 69.678-9.5187 100.14 143.16 64.726 143.16 138.59 0 34.648-30.84 50.641-63.584 50.641-33.125 0-56.352-19.8-64.348-30.08l-22.846 17.896c8.7572 14.849 45.692 40.359 87.193 40.359 41.502 0 92.521-20.56 92.521-79.576 0-101.66-154.2-63.586-142.78-136.31 4.1882-28.937 28.936-42.264 58.635-42.264 29.698 0 51.783 14.089 59.018 23.227l22.082-19.039c-15.611-19.037-47.594-33.125-81.1-33.125zm416.57 2.666v281.75h188.09v-28.557h-159.15v-253.2h-28.936zm269.07 12.357c-8.448 0-20.64 3.5504-22.176 17.566-2.4 25.248 36.096 16.321 36.096 34.945 0 8.736-7.7752 12.768-16.031 12.768-8.352 0-14.209-4.992-16.225-7.584l-5.7598 4.5117c2.208 3.744 11.52 10.176 21.984 10.176s23.328-5.1844 23.328-20.064c0-25.632-38.88-16.031-36-34.367 1.056-7.296 7.2952-10.656 14.783-10.656s13.057 3.5515 14.881 5.8555l5.5684-4.7988c-3.936-4.8-12.001-8.3516-20.449-8.3516zm87.221 0.66992v71.041h7.0078v-71.039l-7.0078-0.00195zm134.58 0.00195v22.752h-8.2559v7.0078h8.2559v41.279h7.0078v-41.279h9.9843v-7.0078h-9.9843v-22.752h-7.0078zm-168.21 22.08c-14.496 0-24 11.04-24 25.248s11.615 24.383 24.287 24.383c10.272 0 17.664-6.3347 20.064-8.6387l-4.9922-4.7051c-1.056 1.152-6.4323 6.4316-15.072 6.4316-8.736 0-15.648-6.3358-17.088-14.592h40.129v-2.8789c0-14.88-10.08-25.248-23.328-25.248zm75 0c-14.496 0-24 11.04-24 25.248s11.615 24.383 24.287 24.383c10.272 0 17.664-6.3347 20.064-8.6387l-4.9922-4.7051c-1.056 1.152-6.4323 6.4316-15.072 6.4316-8.736 0-15.648-6.3358-17.088-14.592h40.129v-2.8789c0-14.88-10.08-25.248-23.328-25.248zm58.975 0c-13.536 0-25.344 10.559-25.344 24.863 0 13.728 11.616 24.768 24.672 24.768 10.176 0 16.03-4.704 18.814-7.584l-5.0879-4.7988c-3.264 3.456-7.7753 5.7598-12.863 5.7598-10.08 0-18.527-8.3525-18.527-18.145 0-9.888 8.1599-18.24 18.336-18.24 4.992 0 9.6944 2.3998 13.15 5.7598l5.0898-4.7031c-2.784-2.784-8.8322-7.6797-18.24-7.6797zm-133.97 6.5274c6.048 0 14.111 2.5926 16.127 14.977h-32.928c1.152-8.64 7.0088-14.977 16.801-14.977zm75 0c6.048 0 14.111 2.5926 16.127 14.977h-32.928c1.152-8.64 7.0088-14.977 16.801-14.977zm125.32 31.584c-3.264 0-5.9511 2.5912-5.9511 5.9512 0 3.264 2.6871 5.9531 5.9511 5.9531 3.36 0 5.9512-2.6891 5.9512-5.9531 0-3.36-2.5912-5.9512-5.9512-5.9512zm-278 18.484v71.041h7.2969v-19.129h37.547c0.86131 10.404 0.83984 19.129 0.83984 19.129h7.2031s0.39551-27.013-5.0566-44.771c-2.7261-8.8791-7.1416-15.724-13.906-20.086-6.7646-4.3615-15.503-6.1836-26.627-6.1836h-7.2969zm7.2969 7.1973c10.343 0 17.587 1.7292 22.721 5.0391 5.1336 3.3098 8.5292 8.3134 10.934 16.145 1.5092 4.9155 2.0049 10.992 2.7051 16.955l-36.359-0.04492v-38.094zm4.5957 4.8203v28.463l27.168 0.03321c-0.52313-4.4558-0.89387-8.9951-2.0215-12.668-1.7965-5.8514-4.3342-9.5894-8.1699-12.062-3.8357-2.4731-9.2483-3.7656-16.977-3.7656zm72.723 10.062c-7.008 0-11.328 3.1694-14.496 7.7774v-7.1055h-7.0078v48.289h7.0078v-27.457c0.192-2.976 1.825-14.496 14.209-14.496 9.984 0 13.631 9.0253 13.631 14.113v27.84h7.0098v-27.84c0-10.464-6.8175-21.121-20.354-21.121zm229.94 0c-8.256 0-14.016 3.648-18.24 8.832v-8.1602h-7.0078v48.289h7.0078v-26.977c0.576-2.016 4.3197-13.151 15.264-14.783l3.8398-7.2012h-0.8632zm-159.24 0.67188 15.84 48.289h8.1602l11.424-37.152 11.328 37.152h8.1602l15.84-48.289h-7.1992l-12.672 38.594-11.809-38.594h-7.3926l-11.807 38.594-12.672-38.594h-7.2012zm-23.596 1.0332c-10.272 0-15.457 4.1275-17.281 10.271-5.184 20.256 28.897 13.729 27.361 25.729-0.576 4.032-4.3201 6.7207-11.328 6.7207s-10.656-3.2648-12.48-4.8008l-5.0879 4.7051c4.224 4.608 11.52 6.8144 17.184 6.8144 5.76 0 18.721-2.0156 18.721-14.016 0-16.992-28.992-12.095-27.84-21.887 0.48-4.512 4.1276-6.8164 10.848-6.8164s9.8887 2.8796 11.137 3.9356l4.7988-4.9922c-1.632-2.112-8.1592-5.6641-16.031-5.6641zm123.95 0c-14.496 0-24 11.04-24 25.248s11.617 24.385 24.289 24.385c10.272 0 17.662-6.3366 20.062-8.6406l-4.9902-4.7031c-1.056 1.152-6.4323 6.4316-15.072 6.4316-8.736 0-15.648-6.3358-17.088-14.592l40.127-0.00196v-2.8789c0-14.88-10.08-25.248-23.328-25.248zm0 6.5293c6.048 0 14.113 2.5906 16.129 14.975l-32.928 0.00195c1.152-8.64 7.0069-14.977 16.799-14.977zm-171.33 3.6992c-8.7343 0-10.951 6.8939-10.951 11.094v21.006h21.299l-0.01953-21.17c-0.00401-4.455-2.5887-10.93-10.328-10.93zm-634.94 6.1152v34.422h273.66v-34.422h-273.66zm878.53 21.77c-3.264 0-5.9512 2.5912-5.9512 5.9512 0 3.264 2.6872 5.9512 5.9512 5.9512 3.36 0 5.9531-2.6872 5.9531-5.9512 0-3.36-2.5931-5.9512-5.9531-5.9512zm-327.93 16.15v71.039h47.424v-7.1992h-40.127v-63.84h-7.2969zm-521.29 3.998-30.516 108h30.078l30.619-108h-30.182zm47.174 0-22.248 78.477h162.11l-22.17-78.477h-117.7zm134.72 0 30.51 108h30.459l-30.516-108h-30.453zm420.14 18.082c-14.496 0-24 11.04-24 25.248s11.615 24.385 24.287 24.385c10.272 0 17.664-6.3366 20.064-8.6406l-4.9922-4.7051c-1.056 1.152-6.4323 6.4336-15.072 6.4336-8.736 0-15.648-6.3358-17.088-14.592h40.129v-2.8809c0-14.88-10.08-25.248-23.328-25.248zm54.75 0c-14.304 0-24 12.288-24 24.768 0 12.288 9.2159 24.865 24.672 24.865 8.448 0 14.399-5.281 17.951-9.793v9.1191h6.8164v-48.287h-6.8164v8.2559c-3.648-5.088-9.503-8.9277-18.623-8.9277zm63.939 0c-8.256 0-14.016 3.648-18.24 8.832v-8.1602h-7.0078v48.287h7.0078v-26.975c0.576-2.016 4.3216-13.153 15.266-14.785l3.8398-7.1992h-0.86524zm27.877 0c-7.008 0-11.328 3.1674-14.496 7.7754v-7.1035h-7.0078v48.287h7.0078v-27.455c0.192-2.976 1.823-14.496 14.207-14.496 9.984 0 13.633 9.0233 13.633 14.111v27.84h7.0078v-27.84c0-10.464-6.8155-21.119-20.352-21.119zm-146.57 6.5274c6.048 0 14.111 2.5926 16.127 14.977h-32.928c1.152-8.64 7.0088-14.977 16.801-14.977zm54.654 0.28906c9.6 0 17.375 8.0632 17.375 17.951 0 9.984-7.775 18.049-17.375 18.049-9.696 0-17.473-8.0648-17.473-18.049 0-9.888 7.7767-17.951 17.473-17.951zm-0.01368 4.9297c-7.04 0-12.686 5.8558-12.686 13.035 0 7.2491 5.6456 13.104 12.686 13.104 6.9703 0 12.615-5.8545 12.615-13.104 0-7.1794-5.645-13.035-12.615-13.035zm91.65 0.1875c-8.7343 0-10.951 6.8939-10.951 11.094v21.004h21.299l-0.01953-21.168c-0.00401-4.455-2.5887-10.93-10.328-10.93zm35.092 26.178c-3.264 0-5.9531 2.5931-5.9531 5.9531 0 3.264 2.6891 5.9512 5.9531 5.9512 3.36 0 5.9512-2.6872 5.9512-5.9512 0-3.36-2.5912-5.9531-5.9512-5.9531zm-142.6 17.125c-27.2 0.24987-64.25 16.027-64.25 76.566v15.23h-27.033v28.174h27.033v163.34h27.795v-163.34h55.588v-28.174h-55.588v-16.754c0-38.836 26.271-52.162 50.639-44.547l7.9961-26.652c-5.1401-2.2845-13.113-3.927-22.18-3.8438zm-168.91 6.1289v36.051h-159.54v21.061h257.36c2.7811-27.776 14.252-46.216 28.688-57.111h-126.51zm198.23 0-10.135 33.783-7.2344-2.2656c-10.264-3.2075-20.252-1.927-27.719 3.6914-5.6258 4.2333-10.259 11.162-12.203 21.902h258.17v-57.111h-200.88zm-909.64 28.555v28.557h508.33v-28.557h-18.166l2.1191 7.4961h-46.041l-2.1172-7.4961h-197.26l-2.125 7.4961h-45.65l2.1172-7.4961h-59.949c-16.143 7.1988-33.954 10.16-50.371 10.16-17.462 0-33.939-4.1696-48.152-10.16h-42.729zm515.82 9.5195v237.97h28.555v-237.97h-28.555zm162.92 44.928c-27.795 0-44.928 12.564-57.492 30.84v-28.174h-27.795v191.52h27.795v-108.89c0.76139-11.803 7.233-57.492 56.35-57.492 39.598 0 54.066 35.791 54.066 55.971v110.42h27.795v-110.42c0-41.502-27.033-83.766-80.719-83.766zm333.31 0c-54.447 0-98.613 44.166-98.613 98.232 0 54.447 44.166 98.615 98.613 98.615 54.447-1e-5 98.994-44.168 98.994-98.615 0-54.066-44.547-98.232-98.994-98.232zm0 26.652c39.598 0 71.58 32.363 71.58 71.58 0 39.598-31.982 71.582-71.58 71.582-39.217 0-71.199-31.984-71.199-71.582 0-39.217 31.982-71.58 71.199-71.58zm-0.0703 19.982a51.79 51.79 0 0 0-51.529 51.789 51.79 51.79 0 0 0 51.791 51.789 51.79 51.79 0 0 0 51.789-51.789 51.79 51.79 0 0 0-51.789-51.789 51.79 51.79 0 0 0-0.2617 0zm-334.4 4.3867c-32.63 0-40.908 25.753-40.908 41.443v78.471h79.572l-0.07422-79.084c-0.01508-16.644-9.676-40.83-38.59-40.83z" style="paint-order:stroke fill markers"/>
 </g>
</svg>
