<?xml version="1.0" encoding="UTF-8"?>
<svg width="15em" version="1.1" viewBox="0 0 18.521 18.521" xmlns="http://www.w3.org/2000/svg" fill="#ffffff">
 <g transform="translate(-107.16 -4.6354)">
  <g stroke-width=".26458" aria-label="HELP">
   <path d="m114.15 19.483h0.23812v2.3495h-0.23812v-1.0795h-1.3494v1.0795h-0.23812v-2.3495h0.23812v1.0287h1.3494z"/>
   <path d="m115.06 21.597h1.2097v0.23495h-1.4478v-2.3495h1.416v0.23495h-1.1779v0.84138h1.1049v0.23495h-1.1049z"/>
   <path d="m116.91 21.594h1.3272v0.23812h-1.5684v-2.3495h0.2413z"/>
   <path d="m119.56 19.483c0.3429 0 0.7112 0.21908 0.7112 0.69215v0.0032c0 0.47308-0.3683 0.69215-0.7112 0.69215h-0.6858v0.96202h-0.2413v-2.3495zm0.44767 0.69532v-0.0032c0-0.26988-0.19367-0.4572-0.4572-0.4572h-0.67627v0.91758h0.67627c0.26353 0 0.4572-0.18732 0.4572-0.4572z"/>
  </g>
  <path d="m120.28 5.0189c-1.0636 0.015359-2.0298 0.34356-2.7507 0.87747-0.76897 0.56949-1.2595 1.3764-1.279 2.2825-0.0105 0.52469 0.14012 1.0337 0.3545 1.4506 0.20061 0.39004 0.45511 0.68711 0.70022 0.85576l-0.73278 1.5673 2.2944-0.76481c0.47297 0.15546 0.97604 0.24404 1.4862 0.25787h5.2e-4c1.1476 0.02861 2.1957-0.30694 2.9647-0.87643 0.76896-0.5695 1.2595-1.3764 1.279-2.2825 0.0195-0.90619-0.43578-1.7365-1.1793-2.3435-0.74347-0.60707-1.7762-0.9946-2.9238-1.0232-0.0717-0.00179-0.14303-0.00205-0.21394-0.00103zm3e-3 0.14573c0.069-1e-3 0.13844-7.085e-4 0.20825 0.00103 1.117 0.027828 2.1188 0.40573 2.8345 0.99012 0.7157 0.58439 1.1444 1.3718 1.126 2.2273-0.0184 0.85551-0.48012 1.6208-1.2201 2.1689-0.7399 0.54797-1.7574 0.87579-2.8742 0.84801-0.50515-0.01369-1.004-0.10133-1.4702-0.25735l-0.0233-0.0078-2.0154 0.67179 0.63872-1.3663-0.0558-0.03411c-0.22263-0.13618-0.49167-0.44492-0.69659-0.84336-0.20494-0.39844-0.34834-0.88599-0.33849-1.3808 0.0185-0.8554 0.4802-1.6204 1.2201-2.1683 0.69372-0.51376 1.6317-0.83398 2.6665-0.84904zm0.0698 1.0862a0.58358 0.57865 0 0 0-0.58342 0.57878 0.58358 0.57865 0 0 0 0.58342 0.57878 0.58358 0.57865 0 0 0 0.58343-0.57878 0.58358 0.57865 0 0 0-0.58343-0.57878zm-0.59428 1.0888-0.42478 0.51005 0.0326 0.072347h0.47697l-5.1e-4 2.1404-0.54209 0.2713 0.0326 0.13849h2.0402l0.0326-0.13849-0.54312-0.2713v-2.6396c-0.1383 0.11781-0.3149 0.19172-0.50953 0.19172-0.23715-3.2e-6 -0.44924-0.10809-0.5948-0.27492zm-7.4538 1.8448c-0.33711 9.8e-4 -0.68035 0.025987-1.0123 0.11886-0.47945 0.13419-0.94587 0.35938-1.3394 0.66869-0.35825 0.28156-0.65537 0.64509-0.8785 1.0382-0.19604 0.34535-0.31942 0.73105-0.38396 1.1183-0.0233 0.13946-0.0351 0.33505-0.0336 0.50281 9.9e-4 0.09852 0.0136 0.19438 0.0243 0.28784 0.041 0.35218 0.19152 0.71225 0.15142 1.0077-0.0492 0.36265-0.35322 0.70234-0.45889 1.1426-0.10026 0.41726-0.1827 0.86564-0.11782 1.31 0.0623 0.42706 0.22693 0.85225 0.48214 1.2035 0.12951 0.17825 0.25013 0.3083 0.39429 0.44183 0.13698 0.12689 0.28412 0.24942 0.4501 0.34365 0.16397 0.09307 0.35073 0.16784 0.53072 0.21187-5e-3 0.0075-6e-3 0.0093-0.0124 0.0186-0.0234 0.03617-0.0537 0.0837-0.0894 0.14056-0.0714 0.11373-0.16396 0.26321-0.26096 0.4222l-0.0155 0.02584h0.26406c0.0878-0.14108 0.17218-0.27522 0.23513-0.37414 0.0337-0.05294 0.0616-0.0965 0.0822-0.12816 0.012-0.01847 0.0138-0.02108 0.0202-0.03049 0.22032 0.04894 0.49493 0.07123 0.73019 0.08217 0.27072 0.01236 0.51373-0.11313 0.53433-0.12351 1.1e-4 -1.9e-5 8e-3 -5.16e-4 8e-3 -5.16e-4l-5.2e-4 -1e-3c3.9e-4 -2e-4 0.015-0.0036 0.015-0.0036l-0.031-0.09353s-0.26754 0.04529-0.51831 0.03359h-5.2e-4c-0.25665-0.01194-0.59442-0.04377-0.75654-0.10697l-4e-3 -0.0016-4e-3 -1e-3c-0.17308-0.03638-0.35084-0.11025-0.5116-0.2005 0.36607 0.09715 0.7449 0.17197 1.1059 0.16898 0.38826-0.0032 0.80864-0.0628 1.1937-0.20774 0.32721-0.12315 0.63671-0.33434 0.85576-0.6134 0.27838-0.35462 0.35553-0.80401 0.47955-1.1875 0.20382-0.63032 0.17181-1.2825 0.45321-1.8262v-5.16e-4c0.0431-0.08286 0.13386-0.1481 0.20929-0.2403 0.0858-0.10485 0.21004-0.2033 0.27026-0.3514 0.16539-0.40684 0.18146-0.86614 0.14676-1.296-0.037-0.45865-0.14726-0.93244-0.37517-1.3343-0.21481-0.37876-0.49752-0.65404-0.87333-0.85059-0.43858-0.22939-0.94199-0.34797-1.4335-0.35967-0.60021-0.01428-1.2433 0.06949-1.7865 0.36018l-3e-3 0.0015-3e-3 0.0021c-0.33087 0.23936-0.66568 0.55044-0.88212 0.8754-0.0273 0.04103-0.019 0.05104-0.0434 0.09405 0.0254-0.06702 0.0126-0.08668 0.045-0.14831 0.18151-0.346 0.60764-0.91862 0.9338-1.1756 4.7e-4 -3.7e-4 1e-3 -0.0012 2e-3 -0.0016h5.2e-4c0.36768-0.28897 0.80701-0.50266 1.2599-0.62942 0.40386-0.11304 0.84285-0.1164 1.2795-0.10335 0.57973 0.017319 1.1665 0.059678 1.7007 0.2403 0.36264 0.12263 0.7111 0.31131 0.99787 0.55914 0.27421 0.23698 0.49753 0.54554 0.67128 0.8723 0.17581 0.33062 0.27927 0.70638 0.36018 1.0847 0.084 0.39267 0.1003 0.8033 0.12093 1.218 0.0143 0.28698 0.0236 0.57305 5.1e-4 0.85214-0.0411 0.49655-0.10514 0.99234-0.24288 1.4624-0.085 0.29055-0.21592 0.5713-0.36328 0.84336-0.13523 0.24963-0.43873 0.7705-0.43873 0.7705l0.0801 0.05943s7e-3 -0.0087 7e-3 -0.0088c8e-3 -0.0088 0.28693-0.3234 0.46199-0.59118 0.0641 0.06523 0.27994 0.283 0.6072 0.65216 0.37578 0.42392 0.805 0.95073 1.0149 1.3302 0.0775 0.13998 0.14969 0.28413 0.22273 0.4284h0.25218l-0.0109-0.02222c-0.0851-0.17366-0.17261-0.34626-0.26665-0.51625-0.22967-0.41512-0.66532-0.9391-1.0454-1.3679-0.3519-0.39696-0.61259-0.66057-0.6537-0.70228 0.13643-0.25832 0.26404-0.52657 0.34778-0.81235 0.14438-0.4928 0.20795-1.0031 0.2496-1.5064 0.0245-0.29627 0.0149-0.59203 5.1e-4 -0.8816-0.0206-0.41302-0.0358-0.83634-0.12505-1.2542-0.0827-0.38671-0.18984-0.78186-0.38138-1.142-0.1834-0.34492-0.42037-0.67785-0.72192-0.93844-0.3122-0.26982-0.68628-0.47012-1.0733-0.601-0.57063-0.19296-1.1791-0.23571-1.7653-0.25321-0.11059-0.00331-0.22202-0.00549-0.33435-0.00517zm-0.4811 1.1793c0.45921 0.01093 0.9313 0.12251 1.3353 0.33383 0.34815 0.1821 0.59492 0.4304 0.78341 0.76274 0.19599 0.34556 0.31734 0.81078 0.3576 1.2402 0.0376 0.40178 0.0305 0.82532-0.11214 1.1937-0.0434 0.11227-0.14859 0.2045-0.23926 0.31574-0.0681 0.08362-0.17623 0.15435-0.23978 0.27337-0.30638 0.57386-0.30251 1.269-0.48886 1.8454-0.13057 0.40368-0.21139 0.82312-0.4439 1.1193-0.18921 0.24105-0.46582 0.43074-0.75757 0.54054-0.33916 0.12764-0.73264 0.20205-1.1157 0.20516-0.46419 0.0038-0.94136-0.03972-1.34-0.20309-0.25162-0.10312-0.4772-0.30882-0.6444-0.53898-0.23147-0.3186-0.38408-0.71157-0.44132-1.1038-0.0577-0.39572 0.0162-0.81841 0.11421-1.2268 0.087-0.36279 0.40063-0.70864 0.4625-1.1643 0.053-0.39021-0.12489-0.7424-0.1142-1.049 0.0149-0.42819 0.0442-0.786 0.22944-1.1395 0.21706-0.41426 0.57435-0.85372 0.98082-1.0713 0.49369-0.26421 1.0983-0.347 1.6738-0.33331zm-1.7813 1.8273c-0.0953-0.0062-0.25011 0.02274-0.25011 0.02274l-1e-3 0.09818s0.17087 0.03336 0.21859 0.04806h5.2e-4l6e-3 0.0026h5.2e-4c0.0865 0.02662 0.18139 0.05565 0.24598 0.09198 0.058 0.03261 0.12796 0.07797 0.17777 0.12867 0.0503 0.05126 0.0785 0.10156 0.0785 0.16175 0 0.06614-0.0264 0.2179-0.0579 0.35967-0.0314 0.14171-0.0679 0.27972-0.0853 0.34985-0.12634 0.5154-0.29564 0.77636-0.3545 0.87902-0.17567 0.30634-0.1134 0.58302-0.10232 0.62839l-0.0191-0.0067 0.0212 0.08888s9e-3 0.0382 0.0253 0.08113c0.0166 0.04293 0.0358 0.09349 0.0853 0.12454 0.046 0.02882 0.0938 0.02348 0.13436 0.02015 0.0406-0.0033 0.0739-0.01085 0.0739-0.01085l0.0816-0.01809-0.0548-0.06305s-0.0186-0.02167-0.0429-0.04702c-0.0243-0.02537-0.0528-0.05442-0.0822-0.07441-0.0289-0.01971-0.0659-0.03549-0.0977-0.04858-0.0266-0.01098-0.042-0.01622-0.0486-0.0186l0.0248-0.0015s0.0405-0.2715 0.19533-0.54157c0.047-0.08204 0.24417-0.39376 0.37776-0.93844 0.0161-0.06572 0.0527-0.20644 0.0853-0.35347 0.0326-0.1468 0.0625-0.2967 0.0625-0.40928 0-0.13331-0.0662-0.24162-0.14211-0.31884-0.0722-0.07345-0.12986-0.11581-0.19688-0.15348-0.11267-0.06334-0.24378-0.07421-0.36019-0.08165zm-0.29456 0.37c-0.1607-0.01147-0.29716 0.05792-0.41289 0.13281-0.0726 0.04701-0.1089 0.11295-0.15555 0.16898l-0.0165 0.01964 6e-3 0.02429s0.0141 0.05759 0.0393 0.12402c0.0251 0.06643 0.0574 0.14298 0.11472 0.19017 0.14969 0.12304 0.36373 0.14821 0.53641 0.14159 0.14571-0.0056 0.28498-0.05486 0.40204-0.13332 0.0419-0.02806 0.0772-0.07196 0.10697-0.11059 0.0298-0.03863 0.0517-0.07183 0.0517-0.07183l0.0186-0.02842-0.0196-0.02739s-0.0215-0.03168-0.0506-0.06873-0.0642-0.07907-0.10077-0.10749c-0.14484-0.11259-0.30505-0.23846-0.51987-0.25373zm2.4614 5.16e-4c-0.21932 0.02234-0.39924 0.13418-0.56017 0.25011-0.0388 0.02797-0.0767 0.07112-0.10852 0.10852-0.0318 0.0374-0.0558 0.06925-0.0558 0.06925l-0.0222 0.02946 0.0217 0.02997s0.0238 0.03325 0.0563 0.07183c0.0326 0.03858 0.0716 0.08237 0.11524 0.10955 0.12812 0.07989 0.27848 0.12683 0.43253 0.13229 0.19274 0.0069 0.39609-0.03223 0.56637-0.12919 0.0723-0.04119 0.14253-0.118 0.19999-0.18604 0.0575-0.06804 0.0997-0.12764 0.0997-0.12764l0.0212-0.02997-0.0222-0.02946s-0.0241-0.03179-0.0568-0.06821c-0.0327-0.03643-0.0717-0.07778-0.11627-0.10232-0.1704-0.09371-0.37575-0.14441-0.56999-0.12816h-5.2e-4zm0.0217 0.22376c0.13945-0.01421 0.30086 0.04184 0.44803 0.10387 8e-3 0.0035 0.0288 0.01634 0.046 0.0279-0.0111 0.01548-0.0245 0.03279-0.0294 0.03721-0.0354 0.03138-0.0894 0.05205-0.14625 0.08165-0.13578 0.07079-0.29873 0.10725-0.45165 0.1018-0.11232-0.0039-0.22943-0.03334-0.33073-0.08423-8e-3 -0.0039-0.0268-0.01923-0.0434-0.03307 0.0182-0.016 0.031-0.02851 0.0419-0.03514 0.14945-0.09125 0.31721-0.18486 0.46561-0.19999zm-2.498 5.17e-4h0.00103c0.12741 9e-3 0.27844 0.09515 0.40463 0.18397 8e-3 0.0059 0.0272 0.02496 0.0429 0.04186-0.0157 0.01214-0.027 0.02212-0.0351 0.02636-0.0966 0.05031-0.20108 0.09616-0.29404 0.09974-0.14523 0.0056-0.28898-0.01453-0.38861-0.09147-0.01-0.0075-0.0351-0.04634-0.0506-0.08165-9e-3 -0.0199-0.0101-0.02489-0.0145-0.03721 3e-3 -0.0028 3e-3 -0.0026 6e-3 -0.0057 0.0166-0.01482 0.0384-0.03239 0.047-0.03721 0.0937-0.05252 0.20627-0.10406 0.28164-0.0987zm5.5345 0.0015c-0.11712 0.0083-0.22402 0.07222-0.3023 0.15038-0.14069 0.1405-0.19779 0.33587-0.25683 0.50643l-5.2e-4 1e-3v5.17e-4c-4e-3 0.01209-4e-3 0.02025-4e-3 0.02429l1e-3 -0.0093c-0.0426 0.23101-0.0814 0.46299-0.11524 0.69556-0.049 0.33733-0.12609 1.0103-0.12609 1.0103l-7e-3 0.05891 0.0589-0.0031s0.12071-0.0068 0.26716-0.02739c0.14645-0.02056 0.31804-0.05297 0.43253-0.1142 0.16586-0.0887 0.28426-0.24058 0.38603-0.38396 0.12633-0.17802 0.22211-0.38011 0.28422-0.5886 0.06-0.20164 0.11939-0.4243 0.0822-0.64492-0.0326-0.1928-0.11427-0.39794-0.26871-0.53175-0.11594-0.10041-0.27785-0.15506-0.43099-0.14418zm0.016 0.23306v5.17e-4c0.09-0.0065 0.19455 0.02746 0.26252 0.0863 0.1054 0.09123 0.16758 0.2442 0.19275 0.39119 0.0298 0.17441-0.0149 0.36437-0.0687 0.5457-0.0554 0.18669-0.1437 0.36747-0.25683 0.52607-0.0878 0.12314-0.1851 0.24405-0.30747 0.30954-0.0581 0.03109-0.17461 0.05644-0.27285 0.07028-0.0653 0.0092-0.0875 0.0095-0.11886 0.01189 8e-3 -0.07255 0.0591-0.51706 0.0961-0.77256 0.0335-0.23108 0.0431-0.46225 0.1111-0.67231 0.0502-0.15473 0.10168-0.31344 0.20464-0.41651 0.0428-0.0429 0.10347-0.07615 0.15761-0.0801zm-4.24 1.9999s-0.0404-2.39e-4 -0.0899 0.0026c-0.0496 0.0028-0.10696 0.0072-0.154 0.02429-0.0454 0.01651-0.0905 0.04861-0.12867 0.077-0.0382 0.02839-0.0677 0.05374-0.0677 0.05374l-0.0853 0.07286 0.11162 0.01447s0.0391 0.0053 0.0878 0.0072c0.0486 0.0019 0.10544 0.0025 0.15452-0.01447 0.0514-0.01774 0.098-0.05538 0.13746-0.08888 0.0395-0.0335 0.0692-0.06356 0.0692-0.06356l0.0822-0.08372zm-0.49764 1.6929c-0.25015-4.52e-4 -0.501 0.0069-0.75086 0.0248-0.25019 0.01791-0.73222 0.08077-0.73897 0.08165-5e-5 6e-6 -5e-3 5.17e-4 -5e-3 5.17e-4l7e-3 0.09974s0.49484-0.0105 0.74052-0.0098c0.089 2.38e-4 0.17625-0.0017 0.26458-0.0031l-6e-3 0.07958s4e-3 5.13e-4 4e-3 5.17e-4c5e-5 6e-6 5e-3 -1.3e-5 5e-3 0 0.0105 0.0012 0.29301 0.03477 0.44907 0.03411 0.15074-6.36e-4 0.42441-0.03503 0.43357-0.03617 6e-5 -8e-6 3e-3 5e-6 3e-3 0 5e-5 -6e-6 4e-3 -5.17e-4 4e-3 -5.17e-4l-6e-3 -0.077c0.11615 2e-3 0.23203 0.0029 0.3483 0.0052 0.2494 0.0049 0.74879 0.0186 0.74879 0.0186l9e-3 -0.09973s-6e-3 -5.09e-4 -6e-3 -5.17e-4c-7e-3 -1e-3 -0.49361-0.0696-0.74672-0.0894-0.25177-0.01971-0.50457-0.02797-0.75654-0.02842z" color="#000000" color-rendering="auto" dominant-baseline="auto" image-rendering="auto" shape-rendering="auto" solid-color="#000000" style="font-feature-settings:normal;font-variant-alternates:normal;font-variant-caps:normal;font-variant-ligatures:normal;font-variant-numeric:normal;font-variant-position:normal;isolation:auto;mix-blend-mode:normal;paint-order:stroke fill markers;shape-padding:0;text-decoration-color:#000000;text-decoration-line:none;text-decoration-style:solid;text-indent:0;text-orientation:mixed;text-transform:none;white-space:normal"/>
 </g>
</svg>
