<?xml version="1.0" encoding="UTF-8"?>
<svg width="15em" version="1.1" viewBox="0 0 18.521 18.521" xmlns="http://www.w3.org/2000/svg" fill="#ffffff">
 <g transform="translate(-107.16 -4.6354)">
  <path d="m116.42 4.9-7.8052 7.7932h2.6017v6.4943h10.407v-6.4943h2.6017zm-2.6017 7.7932h2.3416v2.338h-2.3416zm2.8619 0h2.3416v2.338h-2.3416zm-2.8619 2.8575h2.3416v2.338h-2.3416zm2.8619 0h2.3416v2.338h-2.3416z"/>
  <g transform="scale(.99609 1.0039)" stroke-width=".26562" aria-label="HOME">
   <path d="m113.99 19.388h0.23906v2.3587h-0.23906v-1.0837h-1.3547v1.0837h-0.23907v-2.3587h0.23907v1.0327h1.3547z"/>
   <path d="m116.92 20.542c0 0.612-0.46537 1.2081-1.1921 1.2081-0.72355 0-1.1921-0.59606-1.1921-1.2081 0-0.60243 0.47493-1.1826 1.1921-1.1826 0.72037 0 1.1921 0.58012 1.1921 1.1826zm-1.1921 0.97856c0.64069 0 0.94987-0.55462 0.94987-0.9658 0-0.41118-0.32193-0.96262-0.94987-0.96262-0.62793 0-0.94986 0.55143-0.94986 0.96262 0 0.41118 0.30918 0.9658 0.94986 0.9658z"/>
   <path d="m119.62 21.747h-0.23587l-0.28687-1.7882-0.66618 1.5778h-0.22313l-0.61518-1.5587-0.28368 1.769h-0.23269l0.37612-2.3587h0.153l0.71718 1.8105 0.76818-1.8105h0.153z"/>
   <path d="m120.14 21.511h1.2144v0.23587h-1.4535v-2.3587h1.4216v0.23587h-1.1826v0.84468h1.1092v0.23587h-1.1092z"/>
  </g>
 </g>
</svg>
