<?xml version="1.0" encoding="UTF-8"?>
<svg width="15em" version="1.1" viewBox="0 0 18.521 18.521" xmlns="http://www.w3.org/2000/svg" fill="#ffffff">
 <g transform="translate(-107.16 -4.6354)">
  <path d="m111.12 8.3411v4.0457l0.91364 0.59376v-3.7259h6.6378l0.72761-0.91364zm10.532 0-0.86248 1.7642v7.9039h-3.8644l-0.44648 0.91364h5.2245v-10.582zm-10.532 5.9428v4.639h4.0272l-0.79323-0.91364h-2.3203v-2.6732z" color="#000000" color-rendering="auto" dominant-baseline="auto" image-rendering="auto" shape-rendering="auto" solid-color="#000000" style="font-feature-settings:normal;font-variant-alternates:normal;font-variant-caps:normal;font-variant-ligatures:normal;font-variant-numeric:normal;font-variant-position:normal;isolation:auto;mix-blend-mode:normal;paint-order:stroke fill markers;shape-padding:0;text-decoration-color:#000000;text-decoration-line:none;text-decoration-style:solid;text-indent:0;text-orientation:mixed;text-transform:none;white-space:normal"/>
  <path d="m114.56 15.22-4.5138-2.9355 5.8367 6.7217 6.8957-14.106z" color="#000000" color-rendering="auto" dominant-baseline="auto" image-rendering="auto" shape-rendering="auto" solid-color="#000000" style="font-feature-settings:normal;font-variant-alternates:normal;font-variant-caps:normal;font-variant-ligatures:normal;font-variant-numeric:normal;font-variant-position:normal;isolation:auto;mix-blend-mode:normal;paint-order:stroke fill markers;shape-padding:0;text-decoration-color:#000000;text-decoration-line:none;text-decoration-style:solid;text-indent:0;text-orientation:mixed;text-transform:none;white-space:normal"/>
  <g stroke-width=".26458" aria-label="LESSON">
   <path d="m110.68 21.588h1.3272v0.23812h-1.5684v-2.3495h0.2413z"/>
   <path d="m112.65 21.591h1.2097v0.23495h-1.4478v-2.3495h1.416v0.23495h-1.1779v0.84138h1.1049v0.23495h-1.1049z"/>
   <path d="m115.7 21.184c0 0.49212-0.42545 0.66358-0.77153 0.66358-0.34607 0-0.65405-0.21272-0.72707-0.33655l0.1905-0.14922c0.0667 0.08573 0.26035 0.25082 0.53657 0.25082 0.27305 0 0.53023-0.13335 0.53023-0.42228 0-0.61595-1.2732-0.32068-1.1938-1.1557 0.0508-0.46355 0.45402-0.58102 0.73342-0.58102s0.5461 0.11748 0.67628 0.27622l-0.18415 0.15875c-0.0603-0.0762-0.24448-0.19368-0.49213-0.19368s-0.45402 0.11112-0.48895 0.35242c-0.0952 0.60642 1.1906 0.28892 1.1906 1.1366z"/>
   <path d="m117.52 21.184c0 0.49212-0.42545 0.66358-0.77152 0.66358-0.34608 0-0.65405-0.21272-0.72708-0.33655l0.1905-0.14922c0.0667 0.08573 0.26035 0.25082 0.53658 0.25082 0.27305 0 0.53022-0.13335 0.53022-0.42228 0-0.61595-1.2732-0.32068-1.1938-1.1557 0.0508-0.46355 0.45403-0.58102 0.73343-0.58102s0.5461 0.11748 0.67627 0.27622l-0.18415 0.15875c-0.0603-0.0762-0.24447-0.19368-0.49212-0.19368s-0.45403 0.11112-0.48895 0.35242c-0.0952 0.60642 1.1906 0.28892 1.1906 1.1366z"/>
   <path d="m120.14 20.626c0 0.6096-0.46355 1.2033-1.1874 1.2033-0.72072 0-1.1874-0.59372-1.1874-1.2033 0-0.60008 0.47308-1.1779 1.1874-1.1779 0.71755 0 1.1874 0.57785 1.1874 1.1779zm-1.1874 0.97472c0.63818 0 0.94615-0.55245 0.94615-0.96202s-0.32067-0.95885-0.94615-0.95885c-0.62547 0-0.94615 0.54928-0.94615 0.95885s0.30798 0.96202 0.94615 0.96202z"/>
   <path d="m122.12 19.476h0.23177v2.3495h-0.23177l-1.4288-1.9653v1.9653h-0.23178v-2.3495h0.23495l1.4256 1.9622z"/>
  </g>
 </g>
</svg>
