<?xml version="1.0" encoding="UTF-8"?>
<svg width="15em" version="1.1" viewBox="0 0 18.521 18.521" xmlns="http://www.w3.org/2000/svg" fill="#ffffff">
 <g transform="translate(-107.16 -4.6354)">
  <g stroke-width=".26458" aria-label="LOGOUT">
   <path d="m109.76 21.594h1.3272v0.23812h-1.5684v-2.3495h0.2413z"/>
   <path d="m113.74 20.632c0 0.6096-0.46355 1.2033-1.1874 1.2033-0.72073 0-1.1874-0.59372-1.1874-1.2033 0-0.60008 0.47307-1.1779 1.1874-1.1779 0.71755 0 1.1874 0.57785 1.1874 1.1779zm-1.1874 0.97472c0.63817 0 0.94615-0.55245 0.94615-0.96202s-0.32068-0.95885-0.94615-0.95885c-0.62548 0-0.94615 0.54928-0.94615 0.95885s0.30797 0.96202 0.94615 0.96202z"/>
   <path d="m115.92 20.051s-0.2032-0.36195-0.73342-0.36195c-0.55563 0-0.89853 0.46038-0.89853 0.97472s0.37148 0.97155 0.9144 0.97155c0.51118 0 0.79375-0.38418 0.86678-0.63818v-0.1016h-0.74613v-0.23178h0.97155v0.37148c-0.13652 0.50482-0.59372 0.83185-1.1017 0.83185-0.64135 0-1.1398-0.53658-1.1398-1.2351 0-0.6604 0.5207-1.1716 1.1398-1.1716 0.46037 0 0.74295 0.24765 0.89535 0.43815z"/>
   <path d="m118.98 20.632c0 0.6096-0.46355 1.2033-1.1874 1.2033-0.72073 0-1.1874-0.59372-1.1874-1.2033 0-0.60008 0.47307-1.1779 1.1874-1.1779 0.71755 0 1.1874 0.57785 1.1874 1.1779zm-1.1874 0.97472c0.63817 0 0.94615-0.55245 0.94615-0.96202s-0.32068-0.95885-0.94615-0.95885c-0.62548 0-0.94615 0.54928-0.94615 0.95885s0.30797 0.96202 0.94615 0.96202z"/>
   <path d="m120.19 21.855c-0.71438 0-0.89218-0.508-0.89218-0.9906v-1.3811h0.23813v1.4002c0 0.32385 0.127 0.7366 0.65405 0.7366s0.65722-0.41275 0.65722-0.7366v-1.4002h0.23813v1.3811c0 0.4826-0.1778 0.9906-0.89535 0.9906z"/>
   <path d="m123.31 19.483v0.24765h-0.84138v2.1018h-0.2413v-2.1018h-0.8382v-0.24765z"/>
  </g>
  <path transform="matrix(.26458 0 0 .26458 107.16 4.6354)" d="m35.732 1.0645c-0.01443 0.00196-0.02877 0.00456-0.04297 0.00781l-16.941 2.0664h-0.0078c-0.03431 0.00159-0.06836 0.00683-0.10156 0.015625-0.01309 0.00142-0.02613 0.00338-0.03906 0.00586-0.03045 0.00944-0.05989 0.021874-0.08789 0.037109-0.0026 0.00257-0.0052 0.00518-0.0078 0.00781-0.02634 0.015206-0.05119 0.032862-0.07422 0.052734-0.0026 0.00193-0.0052 0.00388-0.0078 0.00586-0.01073 0.00739-0.02115 0.015208-0.03125 0.023437-1.2e-5 0.00195-1.2e-5 0.00391 0 0.00586-0.01022 0.00998-0.02 0.020406-0.0293 0.03125-0.0026 0.00193-0.0052 0.00388-0.0078 0.00586-0.0077 0.012046-0.01487 0.024428-0.02148 0.037109-0.01873 0.028224-0.03445 0.058337-0.04687 0.089844-0.0052 0.014103-0.0098 0.028441-0.01367 0.042969-0.0084 0.031297-0.01364 0.063359-0.01563 0.095703-3.36e-4 0.010414-3.36e-4 0.020836 0 0.03125-0.0015 0.022109-0.0015 0.044297 0 0.066406v48.779c0.0013 0.24606 0.18701 0.45198 0.43164 0.47852l17 2.082c0.28713 0.03299 0.53895-0.19145 0.53906-0.48047v-2.9102c0.03425 0.03048 0.05909 0.06677 0.0957 0.0957 0.06453 0.05098 0.1362 0.08692 0.20312 0.13281h-0.26367v0.97461h14.998c0.2691 0.0014 0.48773-0.21717 0.48633-0.48633v-2.6133c0.66922-0.31898 1.3396-0.72834 1.8516-1.3047 0.41919-0.47187 0.67719-1.0532 0.87305-1.6152 0.18217-0.5215 0.29977-1.0813 0.29297-1.6484-0.0076-0.77001-0.12019-1.5778-0.4707-2.3027-0.39632-0.82047-0.72963-1.4317-1.0332-2.1582-0.32768-0.78393-0.67237-1.5529-0.8457-2.3457-0.14287-0.6555-0.18472-1.3405-0.17187-2.0234 0.01134-0.57063 0.09541-1.1474 0.21484-1.7168 0.10923-0.52071 0.26153-1.0343 0.45508-1.5293 0.11943-0.30554 0.26687-0.60322 0.43555-0.88476 0.15458-0.25746 0.32995-0.49987 0.52539-0.73047 0.15307-0.18025 0.30801-0.34983 0.47461-0.47852 0.19049-0.14706 0.40486-0.2701 0.62891-0.36523 0.24038-0.10208 0.48311-0.18375 0.7168-0.20703 0.24794-0.02457 0.50002-0.01399 0.71484 0.05469 0.26079 0.0836 0.51204 0.23274 0.70117 0.42188 0.18293 0.18274 0.32011 0.44322 0.42578 0.7168 0.0892 0.23097 0.14453 0.47564 0.14453 0.71094 0 0.23531-0.05571 0.48444-0.14453 0.71484-0.09864 0.25572-0.26305 0.50238-0.44726 0.73828-0.18217 0.2335-0.56713 0.42328-0.8125 0.82031-0.10507 0.16966-0.18857 0.37485-0.19727 0.59961-0.0076 0.2335-0.01136 0.57799 0.23242 0.82226 0.24454 0.24457 0.58753 0.23747 0.82031 0.22852 0.22337-0.0087 0.42919-0.09002 0.59961-0.19531 0.49485-0.30584 0.861-0.7548 1.1855-1.1797v-2e-3c0.26797-0.35089 0.52822-0.73888 0.67773-1.1875 0.15042-0.45086 0.16885-0.91883 0.17188-1.3555v-2e-3c0.0027-0.48926-0.01125-1.0102-0.17188-1.5137-0.17613-0.55181-0.45936-1.089-0.85156-1.5293-0.36132-0.40549-0.81792-0.74849-1.3301-0.95508-0.59875-0.24151-1.2652-0.32842-1.9023-0.27539-0.766 0.06372-1.535 0.30229-2.1953 0.70508-0.62475 0.38116-1.1305 0.91604-1.5684 1.4785v-26.738c-0.001866-0.26688-0.21966-0.48185-0.48638-0.48047h-14.998v0.9668h14.521v28.018c-0.18498 0.44864-0.3428 0.90521-0.47852 1.3652-0.14173 0.48053-0.27415 0.97343-0.35352 1.4824-0.08844 0.56588-0.15845 1.1502-0.13086 1.7422 0.0023 0.04913 0.01966 0.09375 0.02344 0.14258-0.34242-0.9938-0.6432-2.0055-1.1523-2.9258-0.30539-0.5525-0.87159-1.2322-1.3652-1.7891-0.43298-0.48846-0.72471-0.78201-0.80469-0.86328 0.16554-0.31888 0.32541-0.64781 0.42969-1.0039 0.18973-0.64776 0.27175-1.313 0.32617-1.9668 0.03024-0.3902 0.0189-0.77806 0-1.1543-0.02646-0.5335-0.04614-1.0869-0.16406-1.6387-0.10772-0.50377-0.24718-1.0249-0.50195-1.5039-0.24151-0.45419-0.55493-0.89468-0.95703-1.2422-0.41507-0.35868-0.9084-0.62392-1.4199-0.79688-0.75356-0.25485-1.5519-0.30924-2.3125-0.33203h-2e-3c-0.57301-0.01701-1.1762-0.01398-1.7637 0.15039-0.63179 0.17684-1.2468 0.47358-1.7676 0.88281-0.47516 0.37346-0.8678 0.85457-1.1621 1.373-0.26041 0.45871-0.42274 0.96611-0.50781 1.4766-0.03402 0.19147-0.04681 0.44778-0.04492 0.66992 0.0014 0.13448 0.01418 0.26113 0.0293 0.38281 0.05556 0.4766 0.24375 0.93779 0.19727 1.2793-0.05783 0.42624-0.44937 0.86727-0.59375 1.4688-0.03343 0.13938-0.05242 0.28872-0.08008 0.43359v-28.1c0.001485-0.27149-0.22069-0.49102-0.49215-0.48633zm-0.4707 1.0332v51.902l-16.033-1.957v-47.988zm6.6465 19.922c0.74744 0.02268 1.4989 0.07843 2.1738 0.30664 0.45831 0.15496 0.89969 0.39392 1.2598 0.70508 0.34318 0.29635 0.6252 0.68488 0.8457 1.0996 0.22072 0.4148 0.35302 0.89117 0.45703 1.377 0.10658 0.49701 0.12746 1.0233 0.1543 1.5605 0.0189 0.3699 0.03024 0.73611 0 1.0898-0.05291 0.63955-0.13518 1.2768-0.31055 1.875-0.10772 0.36665-0.27211 0.72195-0.46094 1.0703-0.17235 0.31861-0.56836 0.99414-0.56836 0.99414l0.25977 0.19336s0.01966-0.02816 0.02344-0.0293c0.02268-0.02381 0.29745-0.35599 0.51953-0.66406 0.1149 0.1169 0.32617 0.32799 0.70703 0.75781 0.4842 0.5462 1.0379 1.228 1.3008 1.7031 1.2086 2.1845 1.9667 4.6518 2.375 7.127 0.20032 1.2157 0.1098 2.4872 0.01758 3.7539-0.06198 0.83952-0.35944 2.3795-0.39648 2.5723-0.28384 0.12779-0.55938 0.24744-0.85547 0.32617-0.49395 0.13134-0.89062 0.27148-0.89062 0.27148l0.05469 0.31445s0.4375-2e-3 0.95117-0.13867c0.49686-0.13209 1.0795-0.30727 1.4746-0.52539 0.44859-0.24764 0.90981-0.57521 1.207-1.0449 0.35754-0.56572 0.49209-1.2449 0.51953-1.8789 0.02646-0.63194-0.08479-1.2856-0.3418-1.8691-0.30425-0.69116-0.6744-1.3659-0.94531-2.0488-0.31257-0.7874-0.5985-1.5818-0.80078-2.3926-0.16101-0.64584-0.29789-1.2967-0.32812-1.9414-0.02646-0.54025 0.03416-1.0927 0.12109-1.6445 0.07408-0.47333 0.20353-0.94375 0.34375-1.418 0.14135-0.4785 0.30199-0.95204 0.49414-1.4062 0.18822-0.4443 0.35903-0.8795 0.61328-1.2324 0.47652-0.66118 1.023-1.2899 1.6875-1.6953 0.58927-0.35947 1.2939-0.57912 1.9863-0.63672 0.56466-0.04698 1.1595 0.0325 1.6797 0.24219 0.43147 0.17405 0.83243 0.4734 1.1484 0.82812 0.33864 0.38031 0.59416 0.857 0.75195 1.3516 0.13304 0.41694 0.15222 0.8891 0.14844 1.3652-0.0026 0.42339-0.02636 0.84054-0.14844 1.2051v2e-3c-0.12246 0.36775-0.34773 0.71679-0.60156 1.0488-0.31672 0.41452-0.65156 0.81335-1.0547 1.0625-0.1149 0.07109-0.24832 0.11866-0.36133 0.12305-0.19956 0.0076-0.40417-0.03289-0.46094-0.08984-0.05745-0.05737-0.0974-0.25958-0.08984-0.45898v-2e-3c0.0027-0.10749 0.05363-0.23905 0.12695-0.35742 0.14702-0.23807 0.50666-0.42707 0.7832-0.78125 0.1988-0.25478 0.39033-0.53763 0.51562-0.86133 0.10658-0.27636 0.17578-0.57964 0.17578-0.88867 0-0.3089-0.06882-0.61036-0.17578-0.88672-0.1183-0.30671-0.28044-0.62835-0.53711-0.88477-0.25058-0.25062-0.56724-0.43292-0.89844-0.53906-0.30274-0.09694-0.61612-0.10524-0.9082-0.07617-0.30917 0.03099-0.59738 0.13088-0.85938 0.24219-0.25965 0.11017-0.50986 0.25296-0.73633 0.42774-0.2143 0.16547-0.38878 0.36193-0.54688 0.54883-0.2109 0.24884-0.40313 0.5149-0.57226 0.79688-0.18331 0.30558-0.33979 0.62867-0.46875 0.95898-0.20296 0.52034-0.36208 1.0567-0.47656 1.6035-0.12321 0.5883-0.21447 1.1924-0.22656 1.8047-0.01512 0.7098 0.03014 1.4344 0.18359 2.1387 0.18784 0.85855 0.54486 1.6536 0.86914 2.4297 0.31484 0.75385 0.65412 1.3726 1.0449 2.1816 0.30614 0.63391 0.41555 1.37 0.42383 2.0957 0.0036 0.4955-0.1021 1.0031-0.26953 1.4844-0.18595 0.53471-0.42352 1.059-0.77539 1.4551-0.45207 0.50888-1.0736 0.89244-1.7168 1.1973-0.43933 0.20822-1.1935 0.42277-1.8301 0.58984-0.31824 0.08353-0.60858 0.15574-0.82031 0.21289-0.10583 0.02872-0.19123 0.05421-0.25586 0.07617-0.03402 0.01096-0.05992 0.01922-0.08789 0.0332-0.01512 0.0072-0.02653 0.01431-0.04883 0.0332-0.0038 0.0049-0.01002 0.01002-0.01758 0.01758-0.0076 0.0076-0.02344 0.02854-0.02344 0.0293-3.78e-4 6.92e-4 -0.01953 0.04819-0.01953 0.04883-1.51e-4 6.5e-4 -0.0021 0.0658-2e-3 0.06641l0.02734 0.13281 0.07813-2e-3c-0.03893 0.03995-0.0397 0.04658-0.09375 0.09961-0.27364 0.26835-0.63294 0.56903-0.85352 0.67188-1.8497 0.86227-4.0418 0.97978-6.1348 0.93945-1.6986-0.0325-3.5932 0.05805-4.8164-0.9082-0.14818-0.11715-0.27707-0.25928-0.39844-0.41211v-7.4727c0.20986-0.19098 0.435-0.3748 0.66992-0.54102 0.32126-0.22738 0.69699-0.39735 1.0801-0.49219 0.55982-0.13856 1.1465-0.23792 1.6406-0.10352 0.10318 0.02797 0.36658 0.18735 0.54883 0.32617 0.21203 0.16142 0.41797 0.23438 0.41797 0.23438l0.45508 0.1582-0.26758-0.40234s-0.11943-0.17944-0.33789-0.3457c-0.19011-0.1446-0.41927-0.36095-0.69336-0.43555-0.20183-0.05495-0.40054-0.05685-0.59961-0.05859-0.03024-0.18614-0.1732-1.0151-0.17773-1.4707v-2e-3c-0.0035-0.65925 0.09245-1.3292 0.20508-2 0.05972-0.35554 0.21032-0.73699 0.27344-1.1641 0.0189-0.12488-0.03038-0.23726-0.08594-0.31055-0.05443-0.07332-0.11171-0.12614-0.14648-0.16602-0.12359-0.14268-0.30469-0.23242-0.30469-0.23242l-0.21484 0.22852s0.11449 0.18337 0.16211 0.26758c0.02646 0.05008 0.06137 0.09973 0.08594 0.14062 0.0076 0.01436 0.01002 0.02375 0.01758 0.0332-0.0548 0.34345-0.19451 0.70768-0.26367 1.1211-0.11376 0.67818-0.21774 1.3763-0.21094 2.0859 0.0034 0.52434 0.13301 1.2514 0.17383 1.4863-0.27099 0.03175-0.54144 0.07447-0.79297 0.13672-0.32995 0.08168-0.6273 0.24639-0.91602 0.41602-0.02646-0.13145-0.05104-0.25856-0.09375-0.51367-0.05972-0.35694-0.1199-0.77409-0.13086-1.0547-0.03402-0.83683-0.02271-1.6797 0.16211-2.4707 0.21354-0.93082 0.62184-1.8311 1.0879-2.6895 0.14362-0.26464 0.40753-0.69658 0.63672-1.0645 0.11452-0.18395 0.22299-0.35376 0.30273-0.47852 0.03402-0.05499 0.05898-0.09732 0.08203-0.13281 0.28309 0.05586 0.60656 0.08837 0.89062 0.10156 0.36208 0.01701 0.63265-0.12886 0.69531-0.16016 0.0012-2e-4 0.03125-2e-3 0.03125-2e-3l-2e-3 -0.0039c0.0029-0.0015 0.04883-0.01172 0.04883-0.01172l-0.10156-0.30469s-0.34092 0.05741-0.65039 0.04297c-0.03024-0.0014-0.05457-0.0098-0.08594-0.01172 0.47361-0.01587 0.97204-0.07605 1.4395-0.25195 0.43854-0.16505 0.85377-0.44641 1.1504-0.82422 0.38011-0.48402 0.47938-1.0798 0.63672-1.5664 0.27099-0.83811 0.23168-1.6764 0.58008-2.3496 0.04082-0.07846 0.15016-0.15861 0.25977-0.29297 0.10167-0.12442 0.27452-0.25746 0.36523-0.48047 0.22299-0.54828 0.24262-1.1565 0.19727-1.7207-0.04913-0.60333-0.19312-1.2303-0.49805-1.7676-0.28611-0.50463-0.66872-0.87654-1.1699-1.1387-0.58235-0.30459-1.2481-0.46109-1.8984-0.47656-0.7875-0.01852-1.6351 0.0909-2.3594 0.47852l-0.01172 0.0039-0.01172 0.0078c-0.09449 0.06837-0.1586 0.17549-0.25195 0.25195 0.16781-0.19899 0.29219-0.44125 0.44141-0.55859 0.46428-0.36488 1.0211-0.63411 1.5957-0.79492 0.50494-0.14132 1.0631-0.14756 1.625-0.13086zm-1.041 1.2285c0.57993 0.01398 1.1759 0.15636 1.6836 0.42188 0.4348 0.22738 0.73854 0.53101 0.97461 0.94727 0.24378 0.42949 0.3982 1.0222 0.44922 1.5664 0.048 0.51258 0.03783 1.0458-0.13867 1.5-0.04422 0.11433-0.16982 0.22885-0.29492 0.38281-0.07635 0.09252-0.2216 0.1881-0.31836 0.36914-0.41238 0.77241-0.40457 1.6784-0.63867 2.4023-0.17197 0.5304-0.27819 1.0627-0.55859 1.4199-0.23168 0.29514-0.57535 0.52972-0.9375 0.66602-0.42716 0.16078-0.92856 0.25584-1.4121 0.25977-0.59403 0.0049-1.1972-0.05248-1.6934-0.25586-0.30274-0.12404-0.58483-0.37757-0.79297-0.66406-0.28913-0.398-0.48288-0.89273-0.55469-1.3848-0.07143-0.49034 0.02251-1.0258 0.14648-1.5508 0.10394-0.43331 0.51434-0.88749 0.59961-1.5156 0.07408-0.5433-0.15896-1.0082-0.14648-1.3672 0.0189-0.55127 0.05769-0.99448 0.28711-1.4316 0.27364-0.52221 0.72932-1.0785 1.2285-1.3457 0.61716-0.33029 1.3836-0.43738 2.1172-0.41992zm-2.3008 2.1699c-0.15109-0.0083-0.33984 0.0293-0.33984 0.0293l-0.0078 0.32031s0.2284 0.04724 0.27148 0.06055h2e-3c0.11603 0.03553 0.2371 0.07405 0.30664 0.11328 0.07181 0.04033 0.15878 0.09522 0.21094 0.14844 0.05443 0.05541 0.07227 0.09304 0.07227 0.14062 0 0.02419-0.01978 0.11088-0.02734 0.16406-0.03855-0.04857-0.08053-0.10379-0.14063-0.15039-0.18791-0.14605-0.41391-0.32548-0.72663-0.34766-0.23887-0.01701-0.43705 0.0841-0.59375 0.18555-0.11981 0.07756-0.17012 0.17674-0.22266 0.24024l-0.05273 0.0625 0.01953 0.08008s0.01878 0.08018 0.05469 0.17188c0.03402 0.09169 0.07191 0.198 0.17773 0.28516 0.22526 0.18576 0.5229 0.21415 0.75977 0.20508 0.20712-0.0079 0.4042-0.07604 0.57031-0.1875 0.02646-0.01852 0.03781-0.04025 0.05859-0.06055-0.02268 0.08769-0.04807 0.19439-0.06055 0.24609-0.16063 0.65451-0.36665 0.9724-0.44727 1.1133-0.21128 0.36775-0.13237 0.59646-0.10742 0.73438l-0.0957-0.0332 0.06641 0.28906s0.01248 0.05426 0.03516 0.11719c0.02268 0.06293 0.04305 0.1437 0.15039 0.21094 0.10356 0.06478 0.17586 0.04462 0.23633 0.03906 0.06047-0.0057 0.10742-0.01758 0.10742-0.01758l0.13281-0.03125 0.33203 0.04297s0.05501 0.0071 0.12305 0.0098c0.06803 0.0027 0.14411 0.0083 0.23633-0.02344 0.09487-0.0325 0.15418-0.08644 0.20898-0.13281 0.05443-0.04637 0.0957-0.08984 0.0957-0.08984l0.26953-0.27148-0.38281-0.0039s-0.05501 4.4e-5 -0.12305 0.0039c-0.06765 0.0042-0.14417 0.0073-0.22656 0.03711-0.0805 0.0291-0.13925 0.07263-0.19141 0.11133-0.05253 0.03866-0.09375 0.07422-0.09375 0.07422l-0.17188 0.14648-0.125-0.13867s-0.07764-0.10229-0.17969-0.17188c-0.03402-0.02419-0.06786-0.03477-0.09961-0.04883 0.0076-0.04819 0.04609-0.30735 0.2207-0.61133 0.05518-0.09653 0.322-0.521 0.49805-1.2363 0.02268-0.08761 0.07057-0.27088 0.11328-0.46289 0.04271-0.1923 0.08203-0.38773 0.08203-0.55078 0-0.20398-0.1002-0.3679-0.21094-0.48047-0.09902-0.1008-0.1855-0.16532-0.27734-0.2168v2e-3c-0.16988-0.0957-0.3528-0.10749-0.50391-0.11719h-2e-3zm2.793 0.47852c-0.31143 0.03175-0.56137 0.18907-0.77344 0.3418v2e-3c-0.06576 0.04732-0.11316 0.10388-0.15625 0.1543-0.04309 0.05042-0.07617 0.09375-0.07617 0.09375l-0.07227 0.0957 0.06836 0.0957s0.0339 0.04639 0.07813 0.09961c0.0446 0.05322 0.09364 0.11523 0.17188 0.16406 0.18066 0.11274 0.39108 0.17592 0.60742 0.18359 0.26494 0.0091 0.545-0.04291 0.78516-0.17969 0.1183-0.06728 0.20768-0.17041 0.28516-0.26172 0.0771-0.09131 0.13476-0.17188 0.13476-0.17188l0.06836-0.09766-0.07227-0.09375s-0.0339-0.0454-0.07813-0.0957c-0.04498-0.05031-0.09414-0.1074-0.17578-0.15234-0.23698-0.13028-0.51876-0.20064-0.79297-0.17774zm3.9531 0.29297c-0.18049 0.01426-0.33481 0.10674-0.44922 0.2207-0.20523 0.20527-0.27988 0.47544-0.35547 0.69336v0.0039l-2e-3 0.0039c-0.01134 0.03704-0.0078 0.04717-0.0078 0.03516-0.05518 0.29813-0.10497 0.59604-0.14844 0.89648-0.06387 0.44015-0.16602 1.3086-0.16602 1.3086l-0.02344 0.19141 0.19336-0.0098s0.15962-0.0083 0.35352-0.03516c0.19427-0.02683 0.41839-0.06545 0.5918-0.1582 0.23962-0.12813 0.39982-0.33929 0.5332-0.52734 0.17046-0.24008 0.29748-0.50999 0.38086-0.78906 0.07824-0.26272 0.16304-0.56494 0.10938-0.87891-0.04498-0.26521-0.15421-0.55116-0.37891-0.74609h-2e-3c-0.17098-0.14825-0.39964-0.22398-0.625-0.20898h-2e-3zm-7.1562 0.19141h2e-3c0.10545 0.0076 0.25284 0.09408 0.38867 0.17969-0.08239 0.0359-0.1693 0.07961-0.23242 0.08203-0.17613 0.0068-0.33862-0.02194-0.43945-0.09961 0.01512 0.0102-0.0083-0.02193-0.02344-0.04687 0.11717-0.06523 0.25215-0.11894 0.30469-0.11524zm3.248 0h2e-3c0.11981-0.01247 0.27629 0.04495 0.42773 0.10156-0.02646 0.01323-0.03781 0.02156-0.07031 0.03906-0.1595 0.08311-0.35679 0.12752-0.53711 0.12109-0.08957-0.0033-0.17794-0.0382-0.26562-0.06836 0.15496-0.08761 0.31633-0.18043 0.44336-0.19336zm3.9512 0.30469h2e-3c0.08781-0.0058 0.2003 0.0321 0.26562 0.08789 0.11074 0.09592 0.18889 0.2744 0.21875 0.44922 0.03402 0.19722-0.01872 0.43083-0.08789 0.66406-0.06841 0.23025-0.17852 0.45462-0.31836 0.65039-0.11187 0.15662-0.22949 0.29943-0.36328 0.37109-0.04989 0.02683-0.19786 0.06115-0.32031 0.07813-0.01512 0.0021-0.01027 0.0023-0.02539 0.0039 0.02268-0.18792 0.06547-0.5894 0.10742-0.87695 0.04422-0.30592 0.05823-0.59893 0.14062-0.85352 0.06463-0.20013 0.13145-0.38702 0.24219-0.49805 0.0415-0.04165 0.10151-0.07287 0.13867-0.07617zm-13.094 1.0371c-1.0912 1.2e-5 -1.9766 1.0485-1.9766 2.3418 0 1.2933 0.88538 2.3418 1.9766 2.3418 1.0912 1.9e-5 1.6641-1.0485 1.6641-2.3418 0-1.2933-0.57284-2.3418-1.6641-2.3418zm6.957 3.5449c-0.32617-5.89e-4 -0.65314 0.01015-0.97852 0.0332-0.33373 0.02381-0.96875 0.10547-0.96875 0.10547l0.02734 0.32422s0.01758 1.1e-5 0.01758 0h2e-3c0.02646-5.63e-4 0.6274-0.01443 0.93555-0.01367 0.11112 2.95e-4 0.21852-0.0025 0.32812-0.0039l-0.0078 0.10547s0.01172-3.4e-5 0.01172 0c0.01512 0.0017 0.37343 0.04388 0.58984 0.04297 0.20939-8.88e-4 0.5561-0.04506 0.57031-0.04687 2.64e-4 -3.8e-5 0.01172 0 0.01172 0l-0.007872-0.09962c0.14665 0.0024 0.29216 0.0028 0.43945 0.0059 0.32164 0.0064 0.9707 0.02344 0.9707 0.02344l0.02734-0.32227s-0.01953-0.0019-0.01953-2e-3c-0.02268-0.0031-0.63135-0.08931-0.96289-0.11523-0.32844-0.0257-0.65597-0.03673-0.98438-0.03711zm-2.9922 0.02734c0.1093 0.4472 0.29736 0.88112 0.56836 1.2539 0.17121 0.23558 0.33145 0.41008 0.52148 0.58594 0.17991 0.16672 0.37683 0.32942 0.60156 0.45703 0.17877 0.10156 0.38546 0.16986 0.58789 0.23438-0.01512 0.02646-0.02256 0.03213-0.04297 0.06641-0.07937 0.12484-0.18261 0.28932-0.29297 0.46875-0.22072 0.35883-0.47063 0.77652-0.62695 1.0645-0.47694 0.87846-0.90641 1.815-1.1348 2.8105-0.19729 0.85838-0.20942 1.7409-0.17578 2.5957 0.02646 0.64306 0.23772 1.6621 0.26758 1.8105-0.09288 0.06808-0.18161 0.14647-0.27344 0.21875zm15.52 11.436c0.06594 0.14144 0.13808 0.29284 0.19922 0.43164 0.22337 0.50796 0.32459 1.0923 0.30078 1.6523-0.02646 0.58088-0.15116 1.1831-0.44336 1.6445-0.0161 0.02542-0.03877 0.04761-0.05664 0.07227zm-0.96289 7.3672v1.7734h-3.2559c0.08358-0.03568 0.16939-0.06502 0.25195-0.10352 0.34356-0.16014 0.69881-0.48194 0.98828-0.76562 0.26986-0.26445 0.40101-0.47962 0.43359-0.53125 0.34314-0.06944 0.96324-0.192 1.582-0.37305z" color="#000000" color-rendering="auto" dominant-baseline="auto" image-rendering="auto" shape-rendering="auto" solid-color="#000000" style="font-feature-settings:normal;font-variant-alternates:normal;font-variant-caps:normal;font-variant-ligatures:normal;font-variant-numeric:normal;font-variant-position:normal;isolation:auto;mix-blend-mode:normal;paint-order:stroke fill markers;shape-padding:0;text-decoration-color:#000000;text-decoration-line:none;text-decoration-style:solid;text-indent:0;text-orientation:mixed;text-transform:none;white-space:normal"/>
 </g>
</svg>
