<?xml version="1.0" encoding="UTF-8"?>
<svg width="15em" version="1.1" viewBox="0 0 18.521 18.521" xmlns="http://www.w3.org/2000/svg" fill="#ffffff">
 <g transform="translate(-107.16 -4.6354)">
  <path d="m119.23 17.248-0.35311 0.35616v0.66551l0.35311 0.35616h0.65984l0.35312-0.35616v-0.66551l-0.35312-0.35616zm0.11301 0.27475h0.43383l0.19371 0.19538v0.43757l-0.19371 0.19538h-0.43383l-0.19372-0.19538v-0.43757zm-0.0558-9.6934v0.71631h1.0937v-0.71631zm0.2724 0.27475h0.54684v0.16477h-0.54684zm-8.0579 10.09v0.70215l0.35312 0.3297h1.1966l0.35312-0.3297v-0.70215zm0.26232 0.26458h1.3762v0.32156l-0.19169 0.18113h-0.99076l-0.19371-0.18113zm-0.26232-5.6334v5.1226h1.9028v-5.1226h-0.13115zm0.26232 0.26458h1.3762v4.5935h-1.3762zm0.0103-8.1897v1.4328l0.27442 0.76727v5.6597h0.80916v-5.6597l0.2724-0.76727v-1.4328zm0.26434 0.26458h0.82932v1.1234l-0.27241 0.76727v5.4399h-0.28451v-5.4399l-0.2724-0.76727zm6.8384-0.37828-1.0937 1.101v2.0454l0.44998 0.45385 0.44997 0.45385h1.7535l0.89996-0.9077v-2.0454l-1.0936-1.101v2.3995h-1.3663zm-0.27443 0.66551v2.0108h1.9149v-2.0108l0.54481 0.55154v1.8154l-0.73852 0.74489h-1.5275l-0.36954-0.37244-0.37128-0.37244v-1.8154zm0.27415 3.4684v7.7058h1.3661v-7.7058zm0.2724 0.27679h0.82126v7.1543h-0.82126zm-0.19775 7.499c-0.20764 0.23158-0.4144 0.46396-0.62149 0.69604v1.213l0.62553 0.63295h1.2067l0.62754-0.63295v-1.213l-0.6235-0.69604zm0.12309 0.27475h0.97058l0.47217 0.52712v0.99318l-0.46814 0.47013h-0.97864l-0.46814-0.47013v-0.99318z" color="#000000" color-rendering="auto" dominant-baseline="auto" image-rendering="auto" shape-rendering="auto" solid-color="#000000" style="font-feature-settings:normal;font-variant-alternates:normal;font-variant-caps:normal;font-variant-ligatures:normal;font-variant-numeric:normal;font-variant-position:normal;isolation:auto;mix-blend-mode:normal;shape-padding:0;text-decoration-color:#000000;text-decoration-line:none;text-decoration-style:solid;text-indent:0;text-orientation:mixed;text-transform:none;white-space:normal"/>
  <g transform="scale(1.0014 .99862)" stroke-width=".26422" aria-label="SETTING">
   <path d="m111.23 21.197c0 0.49144-0.42486 0.66266-0.77046 0.66266-0.34559 0-0.65314-0.21243-0.72607-0.33608l0.19024-0.14902c0.0666 0.08561 0.25999 0.25048 0.53583 0.25048 0.27268 0 0.5295-0.13317 0.5295-0.42169 0-0.6151-1.2714-0.32023-1.1922-1.1541 0.0507-0.46291 0.45339-0.58022 0.73241-0.58022 0.27901 0 0.54534 0.11731 0.67534 0.27584l-0.1839 0.15853c-0.0602-0.07609-0.24414-0.19341-0.49144-0.19341-0.24731 0-0.4534 0.11097-0.48828 0.35194-0.0951 0.60559 1.189 0.28852 1.189 1.1351z"/>
   <path d="m111.84 21.603h1.208v0.23462h-1.4458v-2.3463h1.4141v0.23462h-1.1763v0.84021h1.1034v0.23462h-1.1034z"/>
   <path d="m115.23 19.492v0.24731h-0.84021v2.0989h-0.24096v-2.0989h-0.83705v-0.24731z"/>
   <path d="m117.33 19.492v0.24731h-0.84021v2.0989h-0.24096v-2.0989h-0.83704v-0.24731z"/>
   <path d="m117.94 21.838h-0.2378v-2.3463h0.2378z"/>
   <path d="m120.11 19.492h0.23145v2.3463h-0.23145l-1.4268-1.9626v1.9626h-0.23145v-2.3463h0.23462l1.4236 1.9594z"/>
   <path d="m122.64 20.059s-0.20291-0.36145-0.73241-0.36145c-0.55485 0-0.89728 0.45974-0.89728 0.97338s0.37096 0.97021 0.91314 0.97021c0.51046 0 0.79265-0.38364 0.86557-0.63729v-0.10146h-0.74509v-0.23146h0.97021v0.37096c-0.13634 0.50413-0.59291 0.8307-1.1002 0.8307-0.64046 0-1.1382-0.53583-1.1382-1.2334 0-0.65949 0.51998-1.17 1.1382-1.17 0.45974 0 0.74193 0.24731 0.89412 0.43754z"/>
  </g>
 </g>
</svg>
