<?xml version="1.0" encoding="UTF-8"?>
<svg width="15em" version="1.1" viewBox="0 0 18.521 18.521" xmlns="http://www.w3.org/2000/svg" fill="#ffffff">
 <g transform="translate(-107.16 -4.6354)">
  <path transform="matrix(.26458 0 0 .26458 107.16 4.6354)" d="m35 1c-4.963 0-9.0039 4.0392-9.0039 9 0 4.9608 4.0409 9 9.0039 9 4.9629 0 9.0039-4.0392 9.0039-9 0-4.9608-4.041-9-9.0039-9zm-0.003906 19c-3.0034 0-5.7395 0.87754-7.7812 2.3594-2.0418 1.4818-3.3516 3.6956-3.3516 6.1445v24.289c2.5785 1.5435 7.2389 2.4449 10.908 2.4551 3.8198 0.010583 8.823-0.93316 11.365-2.4551v-24.289c0-2.4489-1.3176-4.6627-3.3594-6.1445-2.0417-1.4818-4.7778-2.3594-7.7812-2.3594z" color="#000000" color-rendering="auto" dominant-baseline="auto" image-rendering="auto" shape-rendering="auto" solid-color="#000000" style="font-feature-settings:normal;font-variant-alternates:normal;font-variant-caps:normal;font-variant-ligatures:normal;font-variant-numeric:normal;font-variant-position:normal;isolation:auto;mix-blend-mode:normal;paint-order:stroke fill markers;shape-padding:0;text-decoration-color:#000000;text-decoration-line:none;text-decoration-style:solid;text-indent:0;text-orientation:mixed;text-transform:none;white-space:normal"/>
  <g transform="translate(6.0309e-6 -.16828)">
   <path d="m109.12 22.024c-0.71438 0-0.89218-0.508-0.89218-0.9906v-1.3811h0.23813v1.4002c0 0.32385 0.127 0.7366 0.65405 0.7366s0.65722-0.41275 0.65722-0.7366v-1.4002h0.23813v1.3811c0 0.4826-0.1778 0.9906-0.89535 0.9906z"/>
   <path d="m111.91 21.36c0 0.49212-0.42545 0.66358-0.77153 0.66358-0.34607 0-0.65405-0.21272-0.72707-0.33655l0.1905-0.14922c0.0667 0.08573 0.26035 0.25082 0.53657 0.25082 0.27305 0 0.53023-0.13335 0.53023-0.42228 0-0.61595-1.2732-0.32068-1.1938-1.1557 0.0508-0.46355 0.45402-0.58102 0.73342-0.58102s0.5461 0.11748 0.67628 0.27622l-0.18415 0.15875c-0.0603-0.0762-0.24448-0.19368-0.49213-0.19368s-0.45402 0.11112-0.48895 0.35242c-0.0952 0.60642 1.1906 0.28892 1.1906 1.1366z"/>
   <path d="m112.52 21.767h1.2097v0.23495h-1.4478v-2.3495h1.416v0.23495h-1.1779v0.84138h1.1049v0.23495h-1.1049z"/>
   <path d="m115.81 22.002h-0.2921l-0.62865-0.96202h-0.52705v0.96202h-0.2413v-2.3495h0.9271c0.3429 0 0.7112 0.21908 0.7112 0.69215v0.0032c0 0.41592-0.28575 0.635-0.5842 0.68262zm-1.4478-2.1146v0.91758h0.67628c0.26352 0 0.4572-0.18732 0.4572-0.4572v-0.0032c0-0.26988-0.19368-0.4572-0.4572-0.4572z"/>
   <path d="m117.05 19.652c0.3429 0 0.7112 0.21908 0.7112 0.69215v0.0032c0 0.47308-0.3683 0.69215-0.7112 0.69215h-0.6858v0.96202h-0.2413v-2.3495zm0.44768 0.69532v-0.0032c0-0.26988-0.19368-0.4572-0.4572-0.4572h-0.67628v0.91758h0.67628c0.26352 0 0.4572-0.18732 0.4572-0.4572z"/>
   <path d="m119.94 22.002-0.254-0.56832h-1.2636l-0.25717 0.56832h-0.25083l1.0541-2.3495h0.17145l1.0541 2.3495zm-1.416-0.8001h1.0573l-0.52705-1.1748z"/>
   <path d="m122.34 20.22s-0.2032-0.36195-0.73342-0.36195c-0.55563 0-0.89853 0.46038-0.89853 0.97472s0.37148 0.97155 0.9144 0.97155c0.51118 0 0.79375-0.38418 0.86678-0.63818v-0.1016h-0.74613v-0.23178h0.97155v0.37148c-0.13652 0.50482-0.59372 0.83185-1.1017 0.83185-0.64135 0-1.1398-0.53658-1.1398-1.2351 0-0.6604 0.5207-1.1716 1.1398-1.1716 0.46037 0 0.74295 0.24765 0.89535 0.43815z"/>
   <path d="m123.39 21.767h1.2097v0.23495h-1.4478v-2.3495h1.416v0.23495h-1.1779v0.84138h1.1049v0.23495h-1.1049z"/>
  </g>
 </g>
</svg>
